<svg width="332" height="188" viewBox="0 0 166 94" fill="none" xmlns="http://www.w3.org/2000/svg"
    style="padding: 4rem 1rem 3rem 3rem;">
    <path
        d="M5.55226 66.8842L6.34748 65.9314C8.07879 63.8423 14.5851 56.107 16.2608 54.1699C18.615 51.4451 20.6633 49.6507 23.0267 47.0334C24.1537 45.7877 25.8776 44.7052 26.4004 43.0832C26.9379 41.4149 27.5848 38.9792 28.495 37.5482C28.6451 37.5441 28.795 37.5622 28.9399 37.6019L29.6424 33.231C29.6424 33.231 29.9297 30.8954 30.1985 29.2883C29.4793 29.0807 29.2958 27.9092 29.2531 27.1343C29.1975 26.0759 29.1475 25.0156 29.1271 23.9553C27.3624 23.9349 25.2066 23.731 24.0925 22.287C22.5447 20.2832 23.9072 17.714 25.5273 16.726C26.6061 16.0624 28.1502 15.8474 30.0372 15.8993C30.3881 14.6906 30.8862 13.5295 31.5202 12.4422C32.6991 10.4514 34.7047 8.34381 37.0682 8.65337C37.273 8.58913 37.465 8.48937 37.6354 8.35863C42.188 4.85522 47.393 8.78127 52.2459 9.01483C52.941 9.04819 53.3044 10.0362 52.6166 10.3958C51.9419 10.7503 51.2468 11.0647 50.535 11.3375C51.9123 11.8936 53.2636 12.4812 54.576 12.9909C56.4778 13.7324 62.8692 17.0412 62.8692 17.0412L52.7668 17.4119C52.7668 17.4119 52.5814 21.2323 52.5203 22.7263C52.4368 24.8914 52.2552 26.9582 52.1495 29.1196C51.9938 32.4228 50.7871 42.1267 50.7871 42.1267L50.7741 42.7588H50.8909C51.5786 44.733 52.2978 47.2595 52.5073 49.3486C52.5417 49.7233 52.5455 50.1003 52.5184 50.4756C54.9949 52.5999 58.9765 58.0422 60.8284 60.0998C63.2551 62.8488 65.4191 65.819 67.2921 68.9714C67.7777 66.3763 68.445 63.5402 69.2013 61.3214C69.9335 59.1748 71.055 56.6335 72.4452 54.8336C72.8586 54.296 74.1506 53.3061 75.1293 53.0225V52.9966C76.957 50.3459 78.6513 47.2187 80.1954 44.4123C81.7246 41.6429 83.2243 38.4806 85.2522 35.8669C83.7266 35.9529 82.2083 36.1387 80.707 36.423C80.3498 36.4898 79.9939 36.5639 79.6393 36.6455C82.6729 33.3661 86.1897 30.5694 90.068 28.3522C91.0819 27.7701 91.3099 26.2594 90.4387 25.4401C88.674 23.7718 86.3959 24.3279 84.4106 25.2418C82.0008 26.3539 79.6078 27.5143 77.2073 28.6506L75.146 29.6257C81.8579 24.8812 89.0137 20.7983 96.5131 17.4341C97.3436 17.0634 97.6086 15.8845 97.2713 15.1189C96.8802 14.2292 96.0201 13.8751 95.084 14.0457C87.2683 15.4781 79.6119 17.6735 72.2246 20.6002C73.0236 19.9755 73.8299 19.362 74.6529 18.7688C76.6635 17.3192 78.7378 15.9599 80.8757 14.6907C81.4318 14.3608 81.9922 14.0376 82.5569 13.7213C83.0407 13.4488 83.6691 13.2022 84.0658 12.8056C85.241 11.6285 84.6219 9.81932 83.4337 8.96478C82.4439 8.25854 81.2242 8.12322 80.0545 7.8878L75.7429 7.02585L67.4774 5.37795C61.9999 4.28429 56.5316 3.11093 51.0244 2.17854C41.0721 0.49356 30.5581 -0.197855 21.0322 3.75971C16.9541 5.45395 13.1411 7.85815 10.1753 11.1614C6.88689 14.8223 4.88679 19.3453 3.70045 24.0814C1.11645 34.3951 1.00338 45.3984 2.73655 55.8438C3.34084 59.4733 4.03411 63.4049 5.55226 66.8842Z"
        fill="#6CE9A6" />
    <path
        d="M46.6962 53.3673C46.8241 56.1311 46.5349 59.2564 45.7379 61.8942C45.2077 63.6459 44.7832 65.4588 44.1826 67.1864C43.7155 68.5284 42.7627 69.8 42.418 71.1198C44.3532 69.4163 49.4137 67.4348 50.7001 71.1699C52.1182 75.2887 47.7009 80.9572 45.4932 83.8563C46.3181 83.2687 47.9604 81.6004 48.9892 82.4327C49.5453 82.8869 49.6398 83.9601 49.6287 84.5996C49.6083 85.8787 48.9688 86.8908 48.3997 88.0326C47.8306 89.1745 46.5627 91.7826 46.7314 93.1617"
        stroke="#F9FAFB" stroke-width="1.29756" stroke-linecap="round" stroke-linejoin="round" />
    <path
        d="M1.44141 72.1338C2.94287 69.9298 4.64824 67.9797 6.34804 65.9314C8.07936 63.8423 14.5857 56.107 16.2614 54.17C18.6156 51.4451 20.6638 49.6507 23.0273 47.0334C24.1543 45.7877 25.8782 44.7052 26.4009 43.0832C26.9403 41.4149 27.5854 38.9792 28.4956 37.5482C29.3519 37.4926 30.8738 38.577 33.0074 39.3407C35.1409 40.1044 38.7092 40.6976 41.2951 41.35C44.4459 42.1413 47.6683 42.6139 50.9137 42.7607C51.6014 44.7348 52.3206 47.2614 52.5301 49.3504C52.8026 52.0568 51.1139 56.0551 50.1926 56.1163C49.2714 56.1775 47.7829 49.4098 46.7467 47.3281C45.7828 48.6257 43.5714 55.8216 42.4184 55.9309C41.2654 56.0403 39.2338 54.6908 37.8992 53.688C36.5645 52.6852 31.5559 48.4236 28.5938 44.9573"
        stroke="#F9FAFB" stroke-width="1.29756" stroke-linecap="round" stroke-linejoin="round" />
    <path
        d="M52.5273 50.4719C55.0038 52.5944 58.9892 58.0423 60.8429 60.1017C63.3485 62.9391 65.5734 66.0126 67.4864 69.2791C68.8785 71.6889 70.6079 74.1265 70.9453 75.8578C71.2827 77.5891 70.4244 79.782 68.923 79.8376C67.4215 79.8932 66.3575 77.6132 66.4965 74.8698C66.6355 72.1264 67.7607 65.5867 69.2158 61.3232C69.948 59.1767 71.0695 56.6353 72.4597 54.8354C73.001 54.131 74.2671 52.6518 75.1475 52.9985"
        stroke="#F9FAFB" stroke-width="1.29756" stroke-linecap="round" stroke-linejoin="round" />
    <path
        d="M28.9299 37.6724L29.6436 33.2236C29.6436 33.2236 30.0143 30.1521 30.3202 28.6303C30.5389 27.5181 31.2285 25.8887 31.1228 24.8117C31.0431 24.0054 31.3619 24.4187 30.6594 24.0703C30.2126 23.8534 29.6621 23.9442 29.1765 23.9405C27.4044 23.9238 25.2207 23.7292 24.0974 22.2722C22.5496 20.2684 23.9121 17.6992 25.5322 16.7112C27.3321 15.599 30.4147 15.7381 34.2444 16.2905C34.6985 15.9197 34.9006 14.5869 35.2361 14.0012C35.6921 13.206 36.1017 12.5331 36.7727 11.8954C38.1463 10.5979 39.4902 10.0195 41.2883 9.69514C45.839 8.87211 50.4064 11.3542 54.5901 12.9761C56.492 13.7176 62.8834 17.0264 62.8834 17.0264L52.7809 17.3971C52.7809 17.3971 52.5956 21.2175 52.5344 22.7115C52.451 24.8766 52.2693 26.9434 52.1637 29.1048C52.008 32.408 50.8031 42.1119 50.8031 42.1119"
        stroke="#F9FAFB" stroke-width="1.29756" stroke-linecap="round" stroke-linejoin="round" />
    <path d="M40.793 20.8634C41.134 21.7291 43.3362 23.5957 44.1296 22.7171" stroke="#F9FAFB" stroke-width="1.29756"
        stroke-linecap="round" stroke-linejoin="round" />
    <path d="M46.6017 14.3163C46.598 14.8617 46.6812 15.4042 46.8482 15.9234" stroke="#F9FAFB" stroke-width="1.29756"
        stroke-linecap="round" stroke-linejoin="round" />
    <path d="M48.9492 13.9456C49.1324 14.3374 49.2573 14.7539 49.32 15.1819" stroke="#F9FAFB" stroke-width="1.29756"
        stroke-linecap="round" stroke-linejoin="round" />
    <path d="M27.6953 20.122C28.5424 19.9959 29.5898 20.6781 30.4146 20.8634" stroke="#F9FAFB" stroke-width="1.29756"
        stroke-linecap="round" stroke-linejoin="round" />
    <path
        d="M30.6602 24.0851C30.2135 23.8682 29.663 23.959 29.1773 23.9553H29.1328C29.1532 25.0156 29.2033 26.0759 29.2589 27.1343C29.3015 27.9092 29.485 29.0807 30.2042 29.2883C30.245 29.0529 30.2839 28.8323 30.3229 28.6377C30.5416 27.5255 31.2312 25.8961 31.1255 24.8191C31.0439 24.0146 31.3628 24.4261 30.6602 24.0851Z"
        fill="#F9FAFB" />
    <path
        d="M52.2556 9.01484C47.4027 8.78128 42.1976 4.85523 37.645 8.35864C37.4751 8.48899 37.2838 8.58873 37.0797 8.65337C34.7144 8.34381 32.7087 10.4514 31.5298 12.4423C30.8958 13.5295 30.3978 14.6906 30.0469 15.8993C30.9515 15.9234 31.9339 16.0087 32.9831 16.1366C32.9823 16.144 32.9823 16.1514 32.9831 16.1588C33.3538 17.3248 33.9803 18.5167 33.5911 19.7531C33.3798 20.4241 34.3603 21.0655 34.8293 20.4742C36.8602 17.9435 38.115 14.879 38.4421 11.6507C40.0956 12.5572 42.4219 12.6165 44.1143 12.5905C47.0854 12.5392 50.0025 11.7872 52.6281 10.3958C53.314 10.0362 52.9507 9.0482 52.2556 9.01484Z"
        fill="#F9FAFB" />
    <path
        d="M75.2734 52.9966C77.4561 53.7838 79.5498 54.7984 81.5203 56.0236C84.025 57.6613 86.2886 59.641 88.2453 61.9053C89.9433 63.8998 90.3437 64.6172 90.4697 67.2809C90.5958 69.9446 90.4401 72.9901 87.6411 74.2877C89.263 75.8689 90.4215 80.9164 87.3945 81.8247C87.8653 82.3808 88.49 82.8405 88.9312 83.4244C89.9989 84.8424 90.7385 86.3458 90.9702 87.9696"
        stroke="#F9FAFB" stroke-width="1.29756" stroke-linecap="round" stroke-linejoin="round" />
    <path
        d="M75.1484 52.9966C76.9761 50.3459 78.6704 47.2188 80.2145 44.4123C82.5408 40.1989 84.7967 35.081 88.9545 32.3487C93.976 29.0492 100.957 29.8129 106.518 31.6721C112.264 33.5944 114.294 36.6585 111.651 37.7892C110.538 38.2582 108.314 36.8735 107.093 36.6288C105.515 36.3155 103.819 35.8262 102.34 36.0542"
        stroke="#F9FAFB" stroke-width="1.29756" stroke-linecap="round" stroke-linejoin="round" />
    <path
        d="M79.3516 46.0732C82.3471 46.7535 84.3564 48.1419 86.7032 49.9047C87.8932 50.7982 91.0407 52.8909 91.2039 54.2904C91.3596 55.614 88.8664 62.2612 88.8664 62.2612"
        stroke="#F9FAFB" stroke-width="1.29756" stroke-linecap="round" stroke-linejoin="round" />
    <path
        d="M91.832 34.8308C93.2241 34.3358 94.5032 34.397 96.0343 34.9234C97.7134 35.5321 99.2179 36.5427 100.416 37.867C101.186 38.7624 102.27 41.8246 100.105 42.0174C99.4951 42.073 98.2624 40.8292 97.6766 40.5456C96.7924 40.1174 95.4318 39.6317 94.4642 39.8968C96.6052 40.7309 97.2688 42.77 95.8786 44.7163"
        stroke="#F9FAFB" stroke-width="1.29756" stroke-linecap="round" stroke-linejoin="round" />
    <path
        d="M91.7148 47.8063C92.1801 49.5265 94.0338 49.5729 95.5593 49.66C97.413 49.7712 100.672 48.0955 100.981 46.1751C102.638 47.2243 103.239 49.1187 103.751 50.8945C103.997 51.7565 104.631 53.5193 105.899 52.8798C107.271 52.1865 106.974 49.7842 106.668 48.7906C106.127 47.0352 105.393 45.5616 103.467 44.0249C106.298 45.3984 109.614 51.8232 111.365 48.9204C113.099 46.0509 106.294 41.148 104.21 40.4881C104.192 40.4574 104.182 40.4221 104.182 40.3861C104.182 40.3502 104.192 40.3149 104.21 40.2842C107.538 40.9441 109.278 43.4076 112.037 44.0267C115.138 44.7237 115.816 40.3194 111.666 37.778"
        stroke="#F9FAFB" stroke-width="1.29756" stroke-linecap="round" stroke-linejoin="round" />
    <path d="M93.0685 49.4098C93.0685 50.6906 91.365 52.1903 91.2148 53.612" stroke="#F9FAFB" stroke-width="1.29756"
        stroke-linecap="round" stroke-linejoin="round" />
    <path
        d="M94.0547 25.3456C96.8834 23.5976 100.971 22.0961 104.166 21.3658C107.477 20.6095 110.756 19.6975 114.089 19.0784C116.955 18.5389 123.774 17.7808 128.872 17.7808"
        stroke="#F9FAFB" stroke-width="1.29756" stroke-linecap="round" stroke-linejoin="round" />
    <path
        d="M114.699 27.6626C116.017 27.2697 117.48 26.8377 118.792 26.5504C120.377 26.2094 121.975 26.0147 123.567 25.7126C126.012 25.2473 128.542 25.0397 131.011 24.8173"
        stroke="#F9FAFB" stroke-width="1.29756" stroke-linecap="round" stroke-linejoin="round" />
    <path
        d="M157.846 17.271C154.053 16.98 150.277 16.3108 146.499 15.764C142.692 15.2079 130.372 12.9835 129.598 13.2541C131.058 15.5249 133.17 17.6251 135.159 19.6826C135.159 19.6826 134.571 23.8923 134.708 26.2186C134.708 26.2186 137.93 24.7895 139.385 24.4614C140.464 25.7589 141.463 26.9749 141.463 26.9749C141.463 26.9749 150.238 24.5707 152.867 23.4048C155.857 22.072 158.872 20.9468 161.92 19.7994C162.929 19.4418 163.835 18.8437 164.561 18.057C162.48 17.5676 159.987 17.4341 157.846 17.271Z"
        fill="#9ED5F0" stroke="#9ED5F0" stroke-width="1.29756" stroke-linecap="round" stroke-linejoin="round" />
    <path
        d="M141.459 26.9805C141.459 26.9805 140.46 25.7626 139.381 24.4669C138.593 23.5179 137.761 22.5261 137.248 21.9404C136.593 21.1989 135.881 20.4426 135.155 19.6882C133.169 17.6306 131.058 15.5304 129.594 13.2597"
        stroke="#F9FAFB" stroke-width="1.29756" stroke-linecap="round" stroke-linejoin="round" />
    <path
        d="M156.985 19.0098C156.294 19.4695 155.742 19.0357 154.996 19.0635C153.918 19.1062 153.1 19.7531 151.96 19.6697C149.895 19.5177 143.116 19.7549 141.196 19.8031C139.947 19.8328 136.33 19.9459 135.155 19.6808C135.155 19.6808 134.567 23.8904 134.704 26.2168"
        stroke="#F9FAFB" stroke-width="1.29756" stroke-linecap="round" stroke-linejoin="round" />
</svg>