<svg width="150" height="20" viewBox="0 0 602 83" fill="none" xmlns="http://www.w3.org/2000/svg">
<path opacity="0.3" d="M85.1816 29.9307H21.7204C16.551 29.9307 12.3604 34.1213 12.3604 39.2907V43.7836C12.3604 48.953 16.551 53.1436 21.7204 53.1436H85.1816C90.351 53.1436 94.5416 48.953 94.5416 43.7836V39.2907C94.5416 34.1213 90.351 29.9307 85.1816 29.9307Z" fill="white" class="letter"/>
<path opacity="0.3" d="M99.7841 59.4152H36.3229C31.1535 59.4152 26.9629 63.6058 26.9629 68.7752V73.268C26.9629 78.4375 31.1535 82.6281 36.3229 82.6281H99.7841C104.954 82.6281 109.144 78.4375 109.144 73.268V68.7752C109.144 63.6058 104.954 59.4152 99.7841 59.4152Z" fill="white" class="letter"/>
<path d="M73.2006 0.35376H9.73945C4.57003 0.35376 0.379395 4.5444 0.379395 9.71381V14.2066C0.379395 19.376 4.57003 23.5667 9.73945 23.5667H73.2006C78.37 23.5667 82.5607 19.376 82.5607 14.2066V9.71381C82.5607 4.5444 78.37 0.35376 73.2006 0.35376Z" fill="white" class="letter"/>
<path d="M57.8502 29.9307H21.7204C16.551 29.9307 12.3604 34.1213 12.3604 39.2907V43.7836C12.3604 48.953 16.551 53.1436 21.7204 53.1436H57.8502C63.0196 53.1436 67.2103 48.953 67.2103 43.7836V39.2907C67.2103 34.1213 63.0196 29.9307 57.8502 29.9307Z" fill="white" class="letter"/>
<path d="M45.0278 59.4152H36.3229C31.1535 59.4152 26.9629 63.6058 26.9629 68.7752V73.268C26.9629 78.4375 31.1535 82.6281 36.3229 82.6281H45.0278C50.1972 82.6281 54.3878 78.4375 54.3878 73.268V68.7752C54.3878 63.6058 50.1972 59.4152 45.0278 59.4152Z" fill="white" class="letter"/>
<path d="M184.145 5.69171V19.2835H164.618V77.9518H150.338V19.2835H130.896V5.69171H184.059H184.145Z" fill="white" class="letter"/>
<path d="M221.307 26.3373H234.641V77.9516H221.307V71.8439C217.35 76.8333 211.672 79.414 204.446 79.414C197.22 79.414 191.629 76.7473 186.725 71.4998C181.822 66.2524 179.327 59.8006 179.327 52.1445C179.327 44.4883 181.822 38.0365 186.725 32.7891C191.629 27.5416 197.565 24.8749 204.446 24.8749C211.672 24.8749 217.264 27.3696 221.307 32.445V26.3373ZM196.704 62.6394C199.371 65.3921 202.812 66.6825 206.941 66.6825C211.07 66.6825 214.511 65.3061 217.178 62.6394C219.931 59.8866 221.221 56.4457 221.221 52.1445C221.221 47.8433 219.845 44.4023 217.178 41.6495C214.425 38.8968 211.07 37.6064 206.941 37.6064C202.812 37.6064 199.371 38.9828 196.704 41.6495C194.038 44.4023 192.661 47.8433 192.661 52.1445C192.661 56.4457 194.038 59.8866 196.704 62.6394Z" fill="white" class="letter"/>
<path d="M275.707 24.875C282.675 24.875 288.61 27.5418 293.514 32.7892C298.417 38.0367 300.912 44.4885 300.912 52.1446C300.912 59.8008 298.417 66.2526 293.514 71.5C288.61 76.7475 282.675 79.4142 275.707 79.4142C268.739 79.4142 262.889 76.9195 259.018 71.8441V77.9518H245.684V5.69171H259.018V32.4452C262.975 27.4558 268.481 24.875 275.707 24.875ZM262.975 62.6395C265.642 65.3923 269.083 66.6827 273.212 66.6827C277.341 66.6827 280.782 65.3063 283.449 62.6395C286.202 59.8868 287.492 56.4458 287.492 52.1446C287.492 47.8434 286.116 44.4025 283.449 41.6497C280.696 38.8969 277.341 37.6066 273.212 37.6066C269.083 37.6066 265.642 38.983 262.975 41.6497C260.308 44.4025 258.932 47.8434 258.932 52.1446C258.932 56.4458 260.308 59.8868 262.975 62.6395Z" fill="white" class="letter"/>
<path d="M309.288 77.952V5.54376H322.622V77.952H309.288Z" fill="white" class="letter"/>
<path d="M345.021 57.65C346.827 64.1018 351.645 67.3707 359.559 67.3707C364.634 67.3707 368.505 65.6502 371.086 62.2092L381.839 68.403C376.764 75.801 369.279 79.414 359.301 79.414C350.784 79.414 343.902 76.8333 338.741 71.6719C333.58 66.5104 330.999 59.9726 330.999 52.1444C330.999 44.3163 333.58 37.8645 338.655 32.703C343.73 27.5416 350.268 24.8749 358.268 24.8749C365.838 24.8749 372.118 27.4556 377.022 32.703C381.925 37.9505 384.42 44.4023 384.42 52.1444C384.42 53.8649 384.248 55.6714 383.904 57.65H345.021ZM344.849 47.3271H371.172C370.398 43.8001 368.849 41.2194 366.441 39.4989C364.032 37.7785 361.365 36.9182 358.354 36.9182C354.741 36.9182 351.817 37.8645 349.494 39.671C347.171 41.4775 345.623 44.0582 344.849 47.3271Z" fill="white" class="letter"/>
<path d="M436.496 19.2835H407.592V36.4023H429.636V49.994H407.592V77.8658H393.312V5.69171H436.496V19.2835Z" fill="white" class="letter"/>
<path d="M444.303 77.952V5.96506H457.637V77.952H444.303Z" fill="white" class="letter"/>
<path d="M513.81 71.4998C508.477 76.7473 502.025 79.414 494.369 79.414C486.713 79.414 480.261 76.7473 475.013 71.4998C469.766 66.2523 467.099 59.8006 467.099 52.1444C467.099 44.4883 469.766 38.0365 475.013 32.789C480.261 27.5416 486.713 24.8748 494.369 24.8748C502.025 24.8748 508.477 27.5416 513.81 32.789C519.144 38.0365 521.724 44.4883 521.724 52.1444C521.724 59.8006 519.058 66.2523 513.81 71.4998ZM484.476 62.3813C487.143 65.048 490.412 66.4244 494.455 66.4244C498.498 66.4244 501.767 65.048 504.434 62.3813C507.1 59.7145 508.477 56.2736 508.477 52.1444C508.477 48.0153 507.1 44.5743 504.434 41.9076C501.767 39.2408 498.412 37.8645 494.455 37.8645C490.498 37.8645 487.143 39.2408 484.476 41.9076C481.809 44.5743 480.519 48.0153 480.519 52.1444C480.519 56.2736 481.809 59.7145 484.476 62.3813Z" fill="white" class="letter"/>
<path d="M587.189 26.3377H601.297L584.866 77.952H572.135L562.672 46.6393L553.209 77.952H540.478L524.047 26.3377H538.155L546.93 57.9945L556.306 26.3377H568.866L578.242 58.1665L587.017 26.3377H587.189Z" fill="white" class="letter"/>
</svg>
