<svg width="230" height="238" viewBox="0 0 344 355" fill="none" xmlns="http://www.w3.org/2000/svg">
    <path
        d="M333.348 122.838C328.278 110.559 321.485 99.0657 313.174 88.7026C304.949 78.4672 288.905 65.5347 275.717 64.1376C262.698 62.7712 244.591 63.9841 232.651 76.4866C226.93 63.2267 220.389 50.3358 213.066 37.8888C201.116 17.6534 182.073 4.16816 153.25 0.365691C139.632 -1.42551 109.289 3.43632 93.0963 13.3493C76.9039 23.2624 74.5497 43.1345 78.1731 51.0925C68.5313 49.7363 58.5517 53.2829 51.1413 59.8694C46.428 64.0242 43.0797 69.5059 41.5353 75.5962C40.7216 78.892 40.7011 82.3362 40.957 85.7037C41.2129 89.0711 42.0778 93.0476 40.9007 96.3843C39.8772 99.2758 37.0727 101.118 34.7083 102.828C31.7249 104.913 28.9455 107.276 26.4073 109.885C21.6939 114.89 12.743 126.62 10.0972 132.94C4.46767 146.308 3.33666 156.251 1.51475 170.586C-0.486277 186.313 -0.79846 201.236 2.38476 216.912C4.94362 229.481 10.4708 241.236 17.9836 251.605C18.4953 251.369 19.0071 251.144 19.5752 250.939C22.5281 249.814 25.3787 248.693 29.7646 248.959C26.1822 240.346 22.6458 232.91 24.2323 223.222C25.7062 214.22 30.261 203.913 41.6325 203.401L43.1269 203.268C45.7421 183.493 48.4545 162.92 53.1679 142.981C56.2999 129.757 59.5156 116.541 62.8148 103.334C63.6899 99.8234 68.1321 78.6258 72.8865 81.7118C77.2365 84.5419 70.1229 106.088 69.3962 110.509C70.2918 107.469 78.6081 73.4621 84.6419 77.1212C88.1066 79.2195 87.0728 89.4038 85.5119 98.4672C88.8435 84.6033 94.8671 66.5122 101.152 72.6381C104.693 76.0875 100.568 88.4519 99.6163 92.459C98.2703 98.0885 96.6839 103.646 94.9182 109.117C100.645 99.1479 111.976 93.5849 122.252 104C124.749 106.528 130.906 117.536 128.296 121.297C124.253 127.126 120.077 117.966 116.013 114.373C110.983 109.941 104.161 115.786 101.684 120.765C98.8947 126.395 98.3113 138.027 100.246 144.041C103.158 153.104 112.789 153.375 118.076 146.354C119.739 144.143 119.898 140.862 122.406 139.701C125.292 138.385 128.496 139.133 129.724 142.5C132.104 149.015 126.106 157.689 119.591 163.073C113.076 168.457 97.3287 169.88 89.5037 164.557C88.7258 176.185 88.8282 187.792 88.3983 199.358L89.5242 199.261C96.2642 200.172 100.389 206.426 99.0841 214.844C98.0605 221.467 96.7146 230.315 93.4546 236.641C95.9622 233.887 100.737 232.577 103.209 235.141C109.217 241.369 100.225 258.826 97.6357 264.824C98.081 264.082 99.5344 263.345 100.195 262.674C113.659 273.59 100.338 299.363 97.5487 312.316C101.408 305.546 105.19 306.564 108.061 309.384C110.502 311.774 113.25 316.334 113.946 319.619C114.125 320.453 114.32 321.339 114.519 322.24C117.728 316.068 122.15 309.476 126.996 305.034C133.137 299.404 141.326 295.31 149.197 302.649C151.049 295.822 156.275 287.434 158.214 284.819C161.57 280.279 165.63 276.305 170.241 273.048L170.42 273.089C170.236 259.727 169.826 243.775 169.289 229.931C168.609 229.948 167.93 229.858 167.278 229.665C161.612 226.083 158.066 220.878 155.84 214.993C151.208 214.481 147.017 212.971 144.652 208.57C139.918 199.711 145.389 195.351 152.554 193.38C152.554 193.14 152.554 192.869 152.554 192.649C152.58 186.2 153.547 179.286 157.825 174.184C160.485 170.913 164.314 168.808 168.501 168.314C168.314 166.652 168.559 164.971 169.211 163.432C169.864 161.893 170.902 160.548 172.227 159.527C175.911 156.558 181.034 155.781 185.625 155.571C197.022 155.059 208.24 159.261 219.642 157.618C221.863 157.301 223.286 160.039 221.218 161.359C218.946 162.812 216.611 164.148 214.212 165.366C223.322 167.556 232.252 170.822 240.313 173.155C247.314 175.177 253.388 177.449 263.649 181.855C256.638 185.612 225.553 195.238 225.553 195.238C225.553 195.238 227.697 216.246 228.542 224.332C229.381 232.326 231.863 255.745 233.204 268.345C243.685 270.658 257.222 276.134 268.348 282.163C278.897 288.065 289.105 294.56 298.921 301.615C300.18 300.08 301.413 298.544 302.616 296.917C321.881 271.151 335.023 241.335 341.045 209.732C346.47 180.724 344.719 150.253 333.348 122.838ZM242.37 111.001C232.897 114.071 225.722 116.18 216.014 118.421C203.132 121.39 190.676 124.383 177.631 126.61C165.968 128.6 152.718 130.847 141.039 132.239C135.251 132.93 121.592 136.333 121.592 132.751C122.344 126.021 152.298 119.957 152.298 119.957C152.298 119.957 147.83 102.776 146.418 96.241C144.253 86.2052 141.525 74.8592 143.347 64.4293C144.959 55.2174 154.202 49.2399 163.567 51.3894C165.875 51.9011 168.26 53.2471 170.507 54.9718C173.465 51.3126 177.723 47.8069 182.493 47.8786C192.626 48.0475 198.695 62.0956 202.784 69.7671C208.956 81.3536 211.838 94.5624 216.792 106.103C216.792 106.103 231.403 103.999 239.565 102.52C244.171 101.686 258.127 97.5665 259.78 101.241C261.433 104.916 247.278 109.414 242.37 111.001Z"
        fill="#F4F6F9" />
    <path
        d="M6.95499 285.259C6.06451 277.148 4.84138 267.961 8.7462 260.438C11.1413 255.832 14.4627 252.854 19.5753 250.914C22.5282 249.788 25.3788 248.667 29.7647 248.934C26.1823 240.32 22.6459 232.884 24.2324 223.197C25.7063 214.194 30.2611 203.887 41.6327 203.376"
        stroke="#333333" stroke-width="3.5824" stroke-linecap="round" stroke-linejoin="round" />
    <path
        d="M89.478 199.215C96.2181 200.126 100.343 206.38 99.0379 214.798C97.8762 222.316 96.2999 232.71 91.9857 239.015C93.26 234.793 100.046 231.851 103.168 235.095C109.176 241.323 100.184 258.78 97.5947 264.778C98.04 264.036 99.4934 263.299 100.154 262.629C113.618 273.545 100.297 299.317 97.5077 312.27C101.366 305.5 105.148 306.518 108.02 309.338C110.461 311.728 113.209 316.288 113.905 319.573C114.785 323.703 116.054 328.862 116.464 333.135C116.643 334.962 116.054 338.765 115.149 340.479C113.843 342.915 111.019 342.158 109.806 340.044C107.759 336.462 111.341 328.811 112.876 325.433C116.111 318.432 121.239 310.218 126.945 304.962C133.086 299.333 141.274 295.239 149.146 302.577C150.998 295.75 156.223 287.362 158.163 284.747C161.518 280.207 165.579 276.234 170.19 272.977C186.843 277.071 200.149 278.77 208.337 278.376C217.47 277.789 226.171 274.281 233.158 268.371C243.649 270.674 257.211 276.16 268.358 282.214C279.504 288.268 300.543 301.595 316.065 314.942"
        stroke="#333333" stroke-width="3.5824" stroke-linecap="round" stroke-linejoin="round" />
    <path d="M285.359 319.548C274.847 319.666 265.4 320.085 255.165 322.618" stroke="#333333" stroke-width="3.5824"
        stroke-linecap="round" stroke-linejoin="round" />
    <path d="M268.982 315.965C270.927 320.387 271.03 334.389 271.03 334.389" stroke="#333333" stroke-width="3.5824"
        stroke-linecap="round" stroke-linejoin="round" />
    <path d="M274.1 314.43C277.411 318.207 277.171 324.333 277.171 329.272" stroke="#333333" stroke-width="3.5824"
        stroke-linecap="round" stroke-linejoin="round" />
    <path
        d="M209.617 302.659C206.873 309.824 202.554 322.107 205.937 329.272C209.008 335.766 215.845 333.801 219.852 339.988C222.319 343.801 222.687 348.396 223.434 352.813"
        stroke="#333333" stroke-width="3.5824" stroke-linecap="round" stroke-linejoin="round" />
    <path
        d="M167.651 285.259C173.306 292.332 183.434 303.32 192.728 303.427C202.452 303.535 205.737 294.497 211.664 288.023C215.041 293.294 219.586 301.498 227.017 298.064C233.624 295.024 237.836 283.831 237.764 277.081"
        stroke="#333333" stroke-width="3.5824" stroke-linecap="round" stroke-linejoin="round" />
    <path
        d="M170.21 272.977C170.149 253.826 169.627 234.512 168.598 215.223C160.445 214.763 149.151 216.953 144.621 208.498C137.8 195.76 152.324 192.291 162.457 192.04C164.248 180.648 169.473 170.771 181.162 165.939C200.123 158.13 222.349 167.987 240.323 173.166C247.324 175.187 253.399 177.459 263.66 181.866C256.648 185.622 225.563 195.249 225.563 195.249C225.563 195.249 227.708 216.257 228.552 224.343L233.158 268.355"
        stroke="#333333" stroke-width="3.5824" stroke-linecap="round" stroke-linejoin="round" />
    <path d="M198.87 185.464L200.405 190.581" stroke="#333333" stroke-width="3.5824" stroke-linecap="round"
        stroke-linejoin="round" />
    <path d="M207.57 184.44L209.105 189.046" stroke="#333333" stroke-width="3.5824" stroke-linecap="round"
        stroke-linejoin="round" />
    <path d="M200.917 206.958C203.562 210.822 207.974 210.725 212.687 209.517" stroke="#333333" stroke-width="3.5824"
        stroke-linecap="round" stroke-linejoin="round" />
    <path d="M153.26 203.145C155.87 203.376 158.649 204.087 161.065 204.624" stroke="#333333" stroke-width="3.5824"
        stroke-linecap="round" stroke-linejoin="round" />
    <path
        d="M42.2671 209.517C45.1637 187.843 47.9273 164.993 53.1422 142.956C56.2743 129.732 59.4899 116.516 62.7891 103.309C63.6643 99.7982 68.1065 78.6006 72.8608 81.6866C77.2109 84.5167 70.0973 106.062 69.3705 110.484C70.2661 107.444 78.5824 73.4369 84.6162 77.096C90.4504 80.6324 83.521 107.132 82.8148 112.531C82.8148 108.974 91.6736 63.401 101.126 72.6129C104.667 76.0622 100.543 88.4267 99.5907 92.4338C97.3821 101.544 94.648 110.518 91.4023 119.312C93.4955 104.118 108.803 90.3305 122.247 103.959C124.744 106.487 130.901 117.495 128.291 121.257C124.248 127.086 120.072 117.925 116.008 114.333C110.978 109.901 104.156 115.745 101.679 120.725C98.8895 126.354 98.3061 137.987 100.241 144C103.158 153.063 112.784 153.335 118.071 146.313C119.734 144.102 119.893 140.822 122.4 139.66C125.287 138.345 128.49 139.092 129.719 142.46C132.098 148.974 126.1 157.649 119.586 163.033C113.071 168.417 97.3235 169.839 89.4985 164.517C88.7053 176.385 88.8332 188.232 88.3675 200.013C88.2037 204.205 88.0195 206.032 83.3265 207.04C77.8557 208.217 70.7472 209.312 64.826 210.013C58.3418 210.786 44.1811 210.617 42.2671 209.517Z"
        stroke="#333333" stroke-width="3.5824" stroke-linecap="round" stroke-linejoin="round" />
    <path
        d="M46.3613 183.416C53.0144 184.338 59.1556 183.314 65.8087 182.905C74.1608 182.393 80.5323 180.249 88.8384 178.811"
        stroke="#333333" stroke-width="3.5824" stroke-linecap="round" stroke-linejoin="round" />
    <path
        d="M179.422 65.1972C176.177 59.6241 169.596 52.7765 163.557 51.3794C154.192 49.23 144.949 55.187 143.337 64.4194C141.52 74.8493 144.248 86.1953 146.408 96.2311C147.82 102.766 152.288 119.947 152.288 119.947C152.288 119.947 122.339 126.011 121.582 132.741C121.582 136.323 135.241 132.92 141.029 132.229C152.708 130.837 165.957 128.59 177.621 126.6C190.666 124.373 203.122 121.38 216.003 118.411C225.727 116.17 232.892 114.051 242.36 110.991C247.268 109.404 261.418 104.936 259.76 101.267C258.102 97.5975 244.13 101.712 239.545 102.546C231.357 104.025 216.771 106.129 216.771 106.129C211.817 94.573 208.936 81.3641 202.764 69.793C198.67 62.1164 192.605 48.0734 182.472 47.9045C177.702 47.8226 173.445 51.3385 170.486 54.9976"
        stroke="#333333" stroke-width="3.5824" stroke-linecap="round" stroke-linejoin="round" />
    <path
        d="M155.809 214.921C158.015 220.807 161.582 226.011 167.247 229.594C167.5 229.752 167.787 229.848 168.084 229.875C168.38 229.901 168.68 229.858 168.957 229.747C168.957 224.906 168.859 220.065 168.598 215.223C164.693 215.003 160.067 215.387 155.809 214.921Z"
        fill="#A694FA" />
    <path
        d="M219.642 157.644C208.24 159.276 197.022 155.085 185.625 155.597C181.019 155.806 175.901 156.584 172.226 159.553C170.9 160.569 169.858 161.91 169.201 163.447C168.544 164.983 168.294 166.663 168.475 168.324C164.289 168.818 160.459 170.924 157.8 174.194C153.521 179.312 152.554 186.211 152.528 192.659C152.528 192.9 152.528 193.171 152.528 193.391C155.708 192.575 158.97 192.126 162.252 192.055C162.636 193.642 163.061 195.223 163.47 196.784C164.52 201.13 166.087 205.334 168.137 209.307C168.91 210.74 170.85 210.52 171.669 209.307C176.484 202.219 181.756 194.624 183.439 186.047C184.079 182.767 184.166 179.148 182.59 176.098C182.251 175.439 181.828 174.826 181.331 174.276C195.51 173.475 209.244 169.039 221.213 161.395C223.286 160.064 221.863 157.326 219.642 157.644Z"
        fill="#A694FA" />
    <path d="M200.661 95.2791C200.661 95.2791 207.779 94.4091 211.157 93.969" stroke="#333333" stroke-width="3.5824"
        stroke-linecap="round" stroke-linejoin="round" />
    <path
        d="M151.531 114.071C169.187 109.732 187.355 105.545 205.523 103.068C208.025 102.726 212.038 102.813 214.223 101.533"
        stroke="#333333" stroke-width="3.5824" stroke-linecap="round" stroke-linejoin="round" />
    <path
        d="M149.739 107.163C154.504 104.527 163.224 102.198 168.163 101.021C174.069 99.6242 183.004 98.5136 191.218 96.9271"
        stroke="#333333" stroke-width="3.5824" stroke-linecap="round" stroke-linejoin="round" />
</svg>