<svg width="116" height="108" viewBox="0 0 116 108" fill="none" xmlns="http://www.w3.org/2000/svg">
    <path
        d="M24.3913 71.9152C25.2183 71.3637 26.2142 71.1239 27.2015 71.2386C27.5392 71.2817 27.8736 71.3474 28.2025 71.4351C28.2025 71.4351 34.2139 65.6888 37.6357 63.2475C38.9518 62.3077 40.2142 61.8832 41.4543 61.8776C43.0818 60.5004 45.5712 57.7811 47.0579 56.1109V55.9107C46.3516 52.6186 44.8947 49.4544 43.3858 46.4571C42.5869 44.8629 39.5617 40.099 43.1467 40.112C44.4832 40.112 46.3591 42.0138 47.4564 43.7377C46.2089 40.6384 45.3451 37.8227 44.0512 34.703C43.4321 33.2108 41.306 26.9677 45.2135 27.0622H45.7696C45.6287 26.2021 45.8382 25.431 46.9226 24.9917C49.071 24.1223 50.0293 26.2689 50.8746 27.433L50.8857 27.4459C51.0933 24.6376 54.669 25.9 55.683 29.0938L55.6978 29.1624C56.0407 29.0271 56.4893 29.0456 57.0584 29.3144C56.962 28.8751 56.3169 27.6943 56.1538 26.9677C55.7831 25.3383 56.0926 23.2882 58.0927 23.8443C61.8 24.8768 63.5388 32.3303 64.2654 35.337C63.6537 31.2033 63.3386 29.9929 62.4748 27.3755C61.978 25.8685 60.1336 23.3086 60.9344 21.6885C61.8612 19.8107 64.5416 21.1324 65.4758 22.1982C68.627 25.761 68.8402 31.2812 69.6466 35.7021C69.621 32.9336 69.3942 30.1705 68.9681 27.4348C68.5492 24.7062 67.5334 21.3418 68.8087 20.1499C71.0683 18.0386 72.7978 21.3752 73.2871 23.2493C74.7589 28.8862 74.7145 35.6484 74.0972 41.5578C74.7627 40.4957 75.4633 39.4669 76.2085 38.4919C77.4727 36.8384 79.7638 32.7456 82.5109 33.6613C85.1543 34.5417 82.5109 38.6958 81.7954 40.3696C80.5535 43.2651 79.5822 46.2569 78.3384 49.1356C77.7285 50.5518 76.0139 53.3304 75.5746 55.3565C75.5746 55.3565 79.9603 61.2326 82.1495 63.8833L82.231 63.9055C82.3515 63.6683 82.4572 63.4384 82.5425 63.2215C85.8791 65.9483 88.2406 68.8474 91.1527 71.6724C91.6235 72.1302 91.9943 72.4528 92.2649 72.7493C92.3928 72.5918 92.5188 72.4324 92.6356 72.2729C98.0112 65.3551 100.389 56.7986 100.736 48.3218C100.892 43.8221 100.576 39.3184 99.7926 34.8847C99.1197 30.9475 98.0075 27.0715 96.165 23.4698C94.2628 19.7558 91.4694 16.5714 88.0349 14.2016C84.5611 11.7918 80.4441 10.2273 76.2975 9.17814C67.5983 6.97599 57.7275 6.17707 49.0487 8.87414C40.837 11.4248 34.44 17.1581 29.6594 23.7887C20.5228 36.4566 16.1389 53.8791 22.6155 68.4507C23.1426 69.6377 23.7354 70.7943 24.3913 71.9152Z"
        fill="#6CE9A6" />
    <path
        d="M74.0342 83.1629C71.934 80.8292 69.4928 77.9115 67.7522 75.2404C67.9709 75.1737 68.1878 75.1032 68.4028 75.0309C67.3536 73.802 61.5869 66.9564 61.3014 64.9062C60.953 65.277 60.597 65.6236 60.2634 65.9814C57.279 69.1734 55.138 71.9817 52.4113 75.4035L52.1499 75.5574C51.9516 77.9189 50.2833 79.5112 48.5816 81.4891C46.9269 83.355 45.1733 85.1309 43.3284 86.8091C47.9088 87.621 52.5967 87.5802 57.2308 87.1798C61.865 86.7794 66.5454 86.2085 71.085 85.2075C72.4104 84.9146 73.7321 84.5754 75.0371 84.1806C74.6385 83.8062 74.2937 83.4502 74.0342 83.1629Z"
        fill="#6CE9A6" />
    <path
        d="M1 86.8449C1.5561 84.3888 4.38478 81.5657 6.40897 80.0383C7.232 79.4154 8.60185 78.3236 9.68809 78.8149C10.9968 79.4043 10.9041 81.9123 11.9125 82.841C12.2128 79.9938 14.5836 76.0307 16.6764 74.1288C18.0611 72.872 19.7498 73.1631 21.1956 74.3031C23.1883 73.0871 24.5563 70.9238 27.1922 71.2408C29.4351 71.5114 31.7281 72.9332 33.3945 74.418C35.8655 76.6183 37.936 78.6017 39.3577 81.625C40.3736 83.7864 40.6034 86.109 41.1169 88.5243C41.8064 91.7627 40.444 93.6701 36.9888 93.646C36.9647 94.862 36.0045 96.5395 35.3205 97.5387C34.2416 99.1087 33.0609 99.0031 31.7503 99.9595C30.8346 100.629 30.3397 101.785 29.6631 102.658C28.6121 104.013 27.4276 105.204 26.549 106.659"
        stroke="#101828" stroke-width="1.29756" stroke-linecap="round" stroke-linejoin="round" />
    <path d="M34.5513 91.2805C34.7203 90.9457 34.957 90.6497 35.2464 90.4111" stroke="#101828" stroke-width="1.29756"
        stroke-linecap="round" stroke-linejoin="round" />
    <path
        d="M28.2007 71.4351C28.2007 71.4351 34.2121 65.6887 37.6339 63.2475C40.876 60.9323 43.7862 61.7386 46.8781 64.2522C49.8662 66.6823 51.5475 70.3859 52.0999 74.1674C52.5652 77.3445 50.5984 79.1482 48.5779 81.4912C47.032 83.2874 42.7649 87.6082 41.1225 88.5351"
        stroke="#101828" stroke-width="1.29756" stroke-linecap="round" stroke-linejoin="round" />
    <path
        d="M8.5388 44.7314C10.0217 48.3146 10.1255 49.8698 7.26904 52.0738C10.0495 49.4675 12.2016 50.3925 14.1609 53.0729C12.5019 50.8912 12.285 50.3462 12.5538 48.8095C12.7003 47.9791 14.0497 46.548 14.8375 45.9919C13.3046 47.0467 10.3925 48.4999 8.5388 44.7314Z"
        stroke="#101828" stroke-width="1.29756" stroke-linecap="round" stroke-linejoin="round" />
    <path d="M41.4524 61.8777C43.9011 59.8071 48.3017 54.6929 48.3017 54.6929" stroke="#101828" stroke-width="1.29756"
        stroke-linecap="round" stroke-linejoin="round" />
    <path
        d="M52.4111 75.4038C55.1379 71.9819 57.2788 69.1736 60.2632 65.9816C61.3217 64.8491 62.5988 63.722 63.2291 62.4022C63.9298 60.9193 64.0076 58.0814 64.0076 56.4334C64.0076 49.9827 63.4107 42.8869 61.1437 36.7847C60.5005 35.0571 58.873 30.156 57.0657 29.3052C55.3028 28.4747 54.6837 30.0188 54.8876 31.2534C55.4437 34.6011 56.2686 38.0099 56.6189 40.9591"
        stroke="#101828" stroke-width="1.29756" stroke-linecap="round" stroke-linejoin="round" />
    <path d="M26.7195 23.9354L22.2021 23.4146" stroke="#101828" stroke-width="1.29756" stroke-linecap="round"
        stroke-linejoin="round" />
    <path d="M31.4538 13.8569L28.8049 12.1182" stroke="#101828" stroke-width="1.29756" stroke-linecap="round"
        stroke-linejoin="round" />
    <path
        d="M55.683 29.0924C54.5096 25.3851 49.8922 24.2729 51.06 29.0924C51.4845 30.8404 51.605 33.3095 52.0406 35.0927C52.4428 36.735 52.9674 39.738 52.9674 39.738"
        stroke="#101828" stroke-width="1.29756" stroke-linecap="round" stroke-linejoin="round" />
    <path d="M57.8257 64.4266C58.3484 64.4897 59.266 63.9058 59.266 63.9058" stroke="#101828" stroke-width="1.29756"
        stroke-linecap="round" stroke-linejoin="round" />
    <path
        d="M50.8746 27.4314C50.0293 26.2673 49.071 24.1208 46.9226 24.9902C44.9484 25.7891 45.8715 27.6872 46.5389 29.2221C47.8253 32.1879 49.6271 39.2948 49.6271 39.2948"
        stroke="#101828" stroke-width="1.29756" stroke-linecap="round" stroke-linejoin="round" />
    <path d="M67.0366 63.9056C67.4908 63.444 68.071 63.2401 68.6011 63.3847" stroke="#101828" stroke-width="1.29756"
        stroke-linecap="round" stroke-linejoin="round" />
    <path
        d="M45.2097 27.0606C41.3022 26.9661 43.4283 33.2092 44.0474 34.7014C45.345 37.8211 46.2051 40.6331 47.4526 43.7361C47.8067 44.6148 48.6093 46.7205 48.6093 46.7205"
        stroke="#101828" stroke-width="1.29756" stroke-linecap="round" stroke-linejoin="round" />
    <path
        d="M72.7607 43.8047C73.7859 41.9552 74.938 40.1788 76.2085 38.4884C77.4727 36.835 79.7639 32.7421 82.511 33.6578C85.1543 34.5383 82.511 38.6923 81.7955 40.3662C80.5535 43.2616 79.5822 46.2534 78.3384 49.1321C77.5561 50.945 74.9629 54.9971 75.5579 56.8359"
        stroke="#101828" stroke-width="1.29756" stroke-linecap="round" stroke-linejoin="round" />
    <path
        d="M47.0522 55.9111C46.3459 52.619 44.889 49.4548 43.3801 46.4574C42.5812 44.8633 39.556 40.0994 43.141 40.1123C44.4774 40.1123 46.3534 42.0142 47.4507 43.7381"
        stroke="#101828" stroke-width="1.29756" stroke-linecap="round" stroke-linejoin="round" />
    <path
        d="M74.0973 41.5578C74.7145 35.6483 74.759 28.8862 73.2872 23.2492C72.7978 21.3751 71.0628 18.0386 68.8088 20.1462C67.5335 21.3381 68.5493 24.7025 68.9682 27.431C69.3943 30.1667 69.6211 32.9298 69.6466 35.6984C68.8403 31.2737 68.6253 25.7572 65.4759 22.1945C64.5491 21.1342 61.8613 19.8069 60.9344 21.6847C60.1336 23.3048 61.978 25.8647 62.4748 27.3717C63.3386 29.9891 63.6537 31.1995 64.2655 35.3332C63.5388 32.3284 61.8075 24.8748 58.0928 23.8405C56.0927 23.2844 55.785 25.3346 56.1538 26.9639C56.317 27.6906 56.962 28.8713 57.0584 29.3106"
        stroke="#101828" stroke-width="1.29756" stroke-linecap="round" stroke-linejoin="round" />
    <path d="M75.5671 55.3584C75.5671 55.3584 79.9733 61.2586 82.155 63.9056" stroke="#101828" stroke-width="1.29756"
        stroke-linecap="round" stroke-linejoin="round" />
    <path d="M61.3013 64.9048C61.6145 67.1607 68.3804 75.0369 68.3804 75.0369" stroke="#101828" stroke-width="1.29756"
        stroke-linecap="round" stroke-linejoin="round" />
    <path
        d="M75.8063 71.0978C73.2817 72.8439 70.6161 74.3806 67.7522 75.2407C69.4928 77.9118 71.9341 80.8295 74.0342 83.1632C74.9611 84.1865 76.9519 86.0698 78.3329 86.3256C79.8974 86.6185 81.9902 85.4803 83.1783 84.6462C85.8142 82.7925 87.59 81.152 89.9145 78.8998C90.8877 77.9563 92.2538 76.1564 92.6116 74.8218C93.0472 73.2072 92.4985 72.9867 91.1454 71.6706C88.2333 68.8456 85.8699 65.9465 82.5351 63.2197C81.6342 65.4923 78.7907 69.0328 75.8063 71.0978Z"
        stroke="#101828" stroke-width="1.29756" stroke-linecap="round" stroke-linejoin="round" />
    <path
        d="M78.3328 86.3257C77.8027 88.235 78.2346 89.9904 78.8611 91.3194C79.5525 92.7875 81.4562 93.5957 81.966 95.099C82.4201 96.4466 82.0383 97.8795 83.0133 99.1345C83.664 99.9705 87.0283 102.052 88.0645 102.137"
        stroke="#101828" stroke-width="1.29756" stroke-linecap="round" stroke-linejoin="round" />
    <path
        d="M92.7561 73.834C99.1197 74.5143 103.733 80.3477 107.092 85.2581C107.048 83.4804 108.796 82.8706 110.158 82.9855C113.085 83.2339 113.393 85.8346 115 87.679"
        stroke="#101828" stroke-width="1.29756" stroke-linecap="round" stroke-linejoin="round" />
    <path
        d="M105.789 46.7017C105.563 48.0307 104.213 50.3478 103.194 51.3043C101.967 52.4499 99.6387 52.4943 98.0278 52.6019C103.127 52.6019 102.091 55.6252 101.798 59.5012C102.397 56.4259 102.614 55.3842 103.528 54.335C104.725 52.9615 106.421 53.3544 107.819 52.7668C105.893 52.7983 104.657 53.0616 104.579 50.9502C104.516 49.4265 105.307 48.1772 105.789 46.7017Z"
        stroke="#101828" stroke-width="1.29756" stroke-linecap="round" stroke-linejoin="round" />
    <path d="M95.1509 19.8071L98.1427 17.5049" stroke="#101828" stroke-width="1.29756" stroke-linecap="round"
        stroke-linejoin="round" />
    <path d="M93.1045 13.8571L95.5365 11.0767" stroke="#101828" stroke-width="1.29756" stroke-linecap="round"
        stroke-linejoin="round" />
    <path d="M66.1672 3.77673L66.8624 1.34473" stroke="#101828" stroke-width="1.29756" stroke-linecap="round"
        stroke-linejoin="round" />
    <path d="M50.528 7.47269L49.4844 4.50684" stroke="#101828" stroke-width="1.29756" stroke-linecap="round"
        stroke-linejoin="round" />
</svg>