<svg width="332" height="188" viewBox="0 0 166 94" fill="none" xmlns="http://www.w3.org/2000/svg"
    style="padding: 4rem 1rem 3rem 3rem;">
    <path
        d="M5.55226 66.8838L6.34748 65.931C8.07879 63.8419 14.5851 56.1066 16.2608 54.1695C18.615 51.4446 20.6633 49.6503 23.0267 47.0329C24.1537 45.7873 25.8776 44.7047 26.4004 43.0828C26.9379 41.4145 27.5848 38.9788 28.495 37.5478C28.6451 37.5436 28.795 37.5617 28.9399 37.6015L29.6424 33.2306C29.6424 33.2306 29.9297 30.895 30.1985 29.2879C29.4793 29.0803 29.2958 27.9087 29.2531 27.1339C29.1975 26.0755 29.1475 25.0152 29.1271 23.9549C27.3624 23.9345 25.2066 23.7306 24.0925 22.2866C22.5447 20.2828 23.9072 17.7136 25.5273 16.7256C26.6061 16.062 28.1502 15.847 30.0372 15.8989C30.3881 14.6902 30.8862 13.5291 31.5202 12.4418C32.6991 10.451 34.7047 8.34338 37.0682 8.65294C37.273 8.58871 37.465 8.48894 37.6354 8.3582C42.188 4.85479 47.393 8.78084 52.2459 9.0144C52.941 9.04777 53.3044 10.0358 52.6166 10.3954C51.9419 10.7499 51.2468 11.0643 50.535 11.337C51.9123 11.8931 53.2636 12.4807 54.576 12.9905C56.4778 13.732 62.8692 17.0407 62.8692 17.0407L52.7668 17.4115C52.7668 17.4115 52.5814 21.2319 52.5203 22.7259C52.4368 24.891 52.2552 26.9578 52.1495 29.1192C51.9938 32.4224 50.7871 42.1263 50.7871 42.1263L50.7741 42.7584H50.8909C51.5786 44.7325 52.2978 47.2591 52.5073 49.3482C52.5417 49.7229 52.5455 50.0998 52.5184 50.4752C54.9949 52.5995 58.9765 58.0418 60.8284 60.0994C63.2551 62.8484 65.4191 65.8185 67.2921 68.971C67.7777 66.3759 68.445 63.5398 69.2013 61.3209C69.9335 59.1744 71.055 56.633 72.4452 54.8331C72.8586 54.2956 74.1506 53.3057 75.1293 53.0221V52.9962C76.957 50.3454 78.6513 47.2183 80.1954 44.4119C81.7246 41.6425 83.2243 38.4802 85.2522 35.8665C83.7266 35.9525 82.2083 36.1382 80.707 36.4226C80.3498 36.4893 79.9939 36.5635 79.6393 36.645C82.6729 33.3657 86.1897 30.569 90.068 28.3518C91.0819 27.7697 91.3099 26.259 90.4387 25.4397C88.674 23.7714 86.3959 24.3275 84.4106 25.2413C82.0008 26.3535 79.6078 27.5139 77.2073 28.6502L75.146 29.6252C81.8579 24.8808 89.0137 20.7979 96.5131 17.4337C97.3436 17.063 97.6086 15.8841 97.2713 15.1185C96.8802 14.2287 96.0201 13.8747 95.084 14.0452C87.2683 15.4777 79.6119 17.673 72.2246 20.5998C73.0236 19.9751 73.8299 19.3615 74.6529 18.7684C76.6635 17.3188 78.7378 15.9594 80.8757 14.6903C81.4318 14.3604 81.9922 14.0372 82.5569 13.7208C83.0407 13.4484 83.6691 13.2018 84.0658 12.8051C85.241 11.6281 84.6219 9.81889 83.4337 8.96435C82.4439 8.25811 81.2242 8.12279 80.0545 7.88738L75.7429 7.02543L67.4774 5.37752C61.9999 4.28387 56.5316 3.1105 51.0244 2.17811C41.0721 0.493132 30.5581 -0.198283 21.0322 3.75928C16.9541 5.45352 13.1411 7.85772 10.1753 11.1609C6.88689 14.8219 4.88679 19.3448 3.70045 24.0809C1.11645 34.3947 1.00338 45.398 2.73655 55.8434C3.34084 59.4728 4.03411 63.4045 5.55226 66.8838Z"
        fill="#6CE9A6" />
    <path
        d="M46.6962 53.3672C46.8241 56.131 46.5349 59.2563 45.7379 61.894C45.2077 63.6457 44.7832 65.4586 44.1826 67.1862C43.7155 68.5283 42.7627 69.7999 42.418 71.1197C44.3532 69.4162 49.4137 67.4346 50.7001 71.1697C52.1182 75.2886 47.7009 80.957 45.4932 83.8562C46.3181 83.2686 47.9604 81.6003 48.9892 82.4326C49.5453 82.8867 49.6398 83.96 49.6287 84.5995C49.6083 85.8785 48.9688 86.8906 48.3997 88.0325C47.8306 89.1743 46.5627 91.7824 46.7314 93.1615"
        stroke="#333333" stroke-width="1.29756" stroke-linecap="round" stroke-linejoin="round" />
    <path
        d="M1.44141 72.1335C2.94287 69.9295 4.64824 67.9795 6.34804 65.9312C8.07936 63.8421 14.5857 56.1068 16.2614 54.1697C18.6156 51.4448 20.6638 49.6505 23.0273 47.0331C24.1543 45.7875 25.8782 44.7049 26.4009 43.083C26.9403 41.4147 27.5854 38.979 28.4956 37.548C29.3519 37.4923 30.8738 38.5767 33.0074 39.3404C35.1409 40.1041 38.7092 40.6973 41.2951 41.3498C44.4459 42.1411 47.6683 42.6137 50.9137 42.7604C51.6014 44.7346 52.3206 47.2611 52.5301 49.3502C52.8026 52.0565 51.1139 56.0549 50.1926 56.116C49.2714 56.1772 47.7829 49.4095 46.7467 47.3279C45.7828 48.6254 43.5714 55.8213 42.4184 55.9307C41.2654 56.04 39.2338 54.6906 37.8992 53.6878C36.5645 52.6849 31.5559 48.4234 28.5938 44.957"
        stroke="#333333" stroke-width="1.29756" stroke-linecap="round" stroke-linejoin="round" />
    <path
        d="M52.5273 50.4717C55.0038 52.5941 58.9892 58.042 60.8429 60.1014C63.3485 62.9389 65.5734 66.0124 67.4864 69.2789C68.8785 71.6887 70.6079 74.1262 70.9453 75.8575C71.2827 77.5888 70.4244 79.7817 68.923 79.8373C67.4215 79.893 66.3575 77.6129 66.4965 74.8695C66.6355 72.1261 67.7607 65.5864 69.2158 61.323C69.948 59.1765 71.0695 56.6351 72.4597 54.8352C73.001 54.1308 74.2671 52.6516 75.1475 52.9982"
        stroke="#333333" stroke-width="1.29756" stroke-linecap="round" stroke-linejoin="round" />
    <path
        d="M28.9299 37.6724L29.6436 33.2236C29.6436 33.2236 30.0143 30.1521 30.3202 28.6302C30.5389 27.518 31.2285 25.8887 31.1228 24.8117C31.0431 24.0053 31.3619 24.4187 30.6594 24.0702C30.2126 23.8533 29.6621 23.9442 29.1765 23.9405C27.4044 23.9238 25.2207 23.7292 24.0974 22.2722C22.5496 20.2684 23.9121 17.6992 25.5322 16.7112C27.3321 15.599 30.4147 15.738 34.2444 16.2904C34.6985 15.9197 34.9006 14.5869 35.2361 14.0012C35.6921 13.2059 36.1017 12.5331 36.7727 11.8954C38.1463 10.5978 39.4902 10.0195 41.2883 9.69511C45.839 8.87208 50.4064 11.3541 54.5901 12.9761C56.492 13.7175 62.8834 17.0263 62.8834 17.0263L52.7809 17.3971C52.7809 17.3971 52.5956 21.2174 52.5344 22.7115C52.451 24.8766 52.2693 26.9434 52.1637 29.1048C52.008 32.408 50.8031 42.1119 50.8031 42.1119"
        stroke="#333333" stroke-width="1.29756" stroke-linecap="round" stroke-linejoin="round" />
    <path d="M40.793 20.8633C41.134 21.7289 43.3362 23.5956 44.1296 22.7169" stroke="#333333" stroke-width="1.29756"
        stroke-linecap="round" stroke-linejoin="round" />
    <path d="M46.6017 14.3159C46.598 14.8613 46.6812 15.4038 46.8482 15.923" stroke="#333333" stroke-width="1.29756"
        stroke-linecap="round" stroke-linejoin="round" />
    <path d="M48.9492 13.9453C49.1324 14.3372 49.2573 14.7537 49.32 15.1817" stroke="#333333" stroke-width="1.29756"
        stroke-linecap="round" stroke-linejoin="round" />
    <path d="M27.6953 20.1219C28.5424 19.9958 29.5898 20.678 30.4146 20.8633" stroke="#333333" stroke-width="1.29756"
        stroke-linecap="round" stroke-linejoin="round" />
    <path
        d="M30.6602 24.085C30.2135 23.8681 29.663 23.9589 29.1773 23.9552H29.1328C29.1532 25.0155 29.2033 26.0758 29.2589 27.1342C29.3015 27.9091 29.485 29.0806 30.2042 29.2882C30.245 29.0528 30.2839 28.8322 30.3229 28.6376C30.5416 27.5254 31.2312 25.896 31.1255 24.819C31.0439 24.0145 31.3628 24.4261 30.6602 24.085Z"
        fill="#333333" />
    <path
        d="M52.2556 9.01465C47.4027 8.78109 42.1976 4.85504 37.645 8.35846C37.4751 8.48881 37.2838 8.58855 37.0797 8.65319C34.7144 8.34363 32.7087 10.4512 31.5298 12.4421C30.8958 13.5294 30.3978 14.6904 30.0469 15.8991C30.9515 15.9232 31.9339 16.0085 32.9831 16.1364C32.9823 16.1438 32.9823 16.1513 32.9831 16.1587C33.3538 17.3246 33.9803 18.5165 33.5911 19.7529C33.3798 20.4239 34.3603 21.0653 34.8293 20.474C36.8602 17.9433 38.115 14.8788 38.4421 11.6506C40.0956 12.557 42.4219 12.6163 44.1143 12.5904C47.0854 12.539 50.0025 11.787 52.6281 10.3956C53.314 10.036 52.9507 9.04802 52.2556 9.01465Z"
        fill="#333333" />
    <path
        d="M75.2734 52.9966C77.4561 53.7838 79.5498 54.7984 81.5203 56.0236C84.025 57.6613 86.2886 59.641 88.2453 61.9053C89.9433 63.8998 90.3437 64.6172 90.4697 67.2809C90.5958 69.9446 90.4401 72.9901 87.6411 74.2877C89.263 75.8689 90.4215 80.9164 87.3945 81.8247C87.8653 82.3808 88.49 82.8405 88.9312 83.4244C89.9989 84.8424 90.7385 86.3458 90.9702 87.9696"
        stroke="#333333" stroke-width="1.29756" stroke-linecap="round" stroke-linejoin="round" />
    <path
        d="M75.1484 52.9965C76.9761 50.3458 78.6704 47.2187 80.2145 44.4123C82.5408 40.1989 84.7967 35.0809 88.9545 32.3486C93.976 29.0491 100.957 29.8128 106.518 31.6721C112.264 33.5943 114.294 36.6584 111.651 37.7891C110.538 38.2581 108.314 36.8734 107.093 36.6287C105.515 36.3155 103.819 35.8261 102.34 36.0541"
        stroke="#333333" stroke-width="1.29756" stroke-linecap="round" stroke-linejoin="round" />
    <path
        d="M79.3516 46.0728C82.3471 46.753 84.3564 48.1414 86.7032 49.9043C87.8932 50.7977 91.0407 52.8905 91.2039 54.29C91.3596 55.6135 88.8664 62.2608 88.8664 62.2608"
        stroke="#333333" stroke-width="1.29756" stroke-linecap="round" stroke-linejoin="round" />
    <path
        d="M91.832 34.8305C93.2241 34.3356 94.5032 34.3968 96.0343 34.9232C97.7134 35.5319 99.2179 36.5425 100.416 37.8668C101.186 38.7621 102.27 41.8244 100.105 42.0172C99.4951 42.0728 98.2624 40.829 97.6766 40.5454C96.7924 40.1172 95.4318 39.6315 94.4642 39.8966C96.6052 40.7307 97.2688 42.7698 95.8786 44.7161"
        stroke="#333333" stroke-width="1.29756" stroke-linecap="round" stroke-linejoin="round" />
    <path
        d="M91.7148 47.8061C92.1801 49.5263 94.0338 49.5727 95.5593 49.6598C97.413 49.771 100.672 48.0953 100.981 46.1749C102.638 47.2241 103.239 49.1185 103.751 50.8943C103.997 51.7563 104.631 53.5191 105.899 52.8796C107.271 52.1863 106.974 49.784 106.668 48.7904C106.127 47.035 105.393 45.5613 103.467 44.0247C106.298 45.3982 109.614 51.823 111.365 48.9202C113.099 46.0507 106.294 41.1478 104.21 40.4879C104.192 40.4571 104.182 40.4219 104.182 40.3859C104.182 40.35 104.192 40.3147 104.21 40.284C107.538 40.9439 109.278 43.4074 112.037 44.0265C115.138 44.7235 115.816 40.3192 111.666 37.7778"
        stroke="#333333" stroke-width="1.29756" stroke-linecap="round" stroke-linejoin="round" />
    <path d="M93.0685 49.4097C93.0685 50.6905 91.365 52.1902 91.2148 53.6119" stroke="#333333" stroke-width="1.29756"
        stroke-linecap="round" stroke-linejoin="round" />
    <path
        d="M94.0547 25.3455C96.8834 23.5975 100.971 22.0961 104.166 21.3657C107.477 20.6094 110.756 19.6974 114.089 19.0783C116.955 18.5389 123.774 17.7808 128.872 17.7808"
        stroke="#333333" stroke-width="1.29756" stroke-linecap="round" stroke-linejoin="round" />
    <path
        d="M114.699 27.6623C116.017 27.2693 117.48 26.8374 118.792 26.5501C120.377 26.209 121.975 26.0144 123.567 25.7122C126.012 25.2469 128.542 25.0393 131.011 24.8169"
        stroke="#333333" stroke-width="1.29756" stroke-linecap="round" stroke-linejoin="round" />
    <path
        d="M157.846 17.2711C154.053 16.98 150.277 16.3109 146.499 15.764C142.692 15.2079 130.372 12.9835 129.598 13.2542C131.058 15.5249 133.17 17.6251 135.159 19.6827C135.159 19.6827 134.571 23.8923 134.708 26.2187C134.708 26.2187 137.93 24.7895 139.385 24.4614C140.464 25.759 141.463 26.975 141.463 26.975C141.463 26.975 150.238 24.5708 152.867 23.4048C155.857 22.072 158.872 20.9469 161.92 19.7994C162.929 19.4418 163.835 18.8437 164.561 18.057C162.48 17.5676 159.987 17.4342 157.846 17.2711Z"
        fill="#9ED5F0" stroke="#9ED5F0" stroke-width="1.29756" stroke-linecap="round" stroke-linejoin="round" />
    <path
        d="M141.459 26.9801C141.459 26.9801 140.46 25.7622 139.381 24.4665C138.593 23.5174 137.761 22.5257 137.248 21.94C136.593 21.1985 135.881 20.4422 135.155 19.6878C133.169 17.6302 131.058 15.53 129.594 13.2593"
        stroke="#333333" stroke-width="1.29756" stroke-linecap="round" stroke-linejoin="round" />
    <path
        d="M156.985 19.0098C156.294 19.4695 155.742 19.0357 154.996 19.0635C153.918 19.1062 153.1 19.7531 151.96 19.6697C149.895 19.5177 143.116 19.7549 141.196 19.8031C139.947 19.8328 136.33 19.9459 135.155 19.6808C135.155 19.6808 134.567 23.8904 134.704 26.2168"
        stroke="#333333" stroke-width="1.29756" stroke-linecap="round" stroke-linejoin="round" />
</svg>