<svg width="172" height="154" viewBox="0 0 172 154" fill="none" xmlns="http://www.w3.org/2000/svg">
    <path
        d="M13.5046 80.042C11.0693 62.7175 8.79496 35.4698 28.5399 26.6942C28.8914 26.5375 29.2387 26.402 29.5818 26.2813C29.5984 26.149 29.6275 26.0185 29.6686 25.8917C29.5691 25.7477 29.4568 25.6037 29.3721 25.4575C28.182 23.647 27.1698 20.9851 28.9761 19.2062L28.9994 19.1872C27.8856 16.358 29.3001 14.2827 32.0891 14.0074C35.0644 13.711 37.29 13.4822 39.0773 11.9385C39.5008 11.5785 40.0154 11.9385 39.9413 12.4425C39.8437 13.1634 39.4941 13.8266 38.9545 14.3145C42.3851 14.2044 45.966 14.9837 49.1001 15.5851C51.2178 15.9895 53.579 16.9615 56.0778 18.0225C54.0681 19.3926 49.3648 21.9931 49.3648 21.9931C49.3648 21.9931 51.3851 25.6079 52.7531 28.219C54.0152 30.697 55.098 33.2624 55.9931 35.8954L56.01 35.9293C56.7554 35.5566 57.6618 35.7578 58.5893 37.0432C58.8921 37.4667 59.087 38.3286 59.051 39.1608C60.7959 39.1884 62.0157 40.7618 63.695 41.702C65.622 42.7926 67.0408 43.6905 68.7223 45.211C70.4905 46.8119 71.6023 49.0227 72.6907 51.1001C73.3472 52.3517 73.4658 52.5677 74.7893 52.9848C76.5914 53.5566 77.8641 53.69 78.3554 54.7594C78.8467 55.8288 78.779 56.93 78.779 57.6415C78.779 57.6415 80.1216 57.4594 81.0554 58.0651C82.1778 58.8041 82.1672 59.6745 81.6907 61.2966C82.6543 60.026 84.4437 59.2255 85.9048 58.7215C87.7324 58.0862 90.2439 57.6161 92.2091 58.0248C93.1067 58.2512 93.9452 58.6679 94.6677 59.2467C95.2691 58.7342 97.3232 57.4806 99.0787 57.0931C100.834 56.7055 103.488 56.0342 104.335 57.9994L108.922 58.8465C108.942 58.9705 108.955 59.0957 108.96 59.2213C111.602 57.5822 115.226 57.9147 117.915 58.1625C120.13 51.6465 119.686 44.3046 117.218 37.6785C113.396 27.4248 107.054 20.102 97.0246 12.9211C86.9954 5.74013 71.7357 0.587891 62.7209 0.587891C53.706 0.587891 36.1952 1.35236 30.5326 2.76907C25.1813 4.09683 20.2557 6.5173 16.0775 10.1173C12.342 13.3467 9.30108 17.4274 7.04155 21.8004C1.67331 32.1768 0.627196 44.0801 0.910961 55.579C1.05284 61.2839 1.48061 66.9698 4.45378 71.9865C6.7832 75.9232 10.1566 79.0721 13.7714 81.8357C13.6655 81.1792 13.5766 80.5714 13.5046 80.042Z"
        fill="#F4F6F9" />
    <path d="M81.8535 86.0294C81.8535 86.1247 81.8641 86.2221 81.8683 86.3237L82.6582 85.9531L81.8535 86.0294Z"
        fill="#F4F6F9" />
    <path
        d="M126.31 118.978C128.189 121.352 129.904 123.852 131.445 126.459C132.976 129.041 139.771 138.699 139.771 138.699"
        stroke="#333333" stroke-width="1.48235" stroke-linecap="round" stroke-linejoin="round" />
    <path
        d="M38.8808 122.762C38.8808 122.762 32.206 131.815 29.7749 134.949C27.2613 138.195 24.718 141.395 22.3166 144.709C21.0164 146.503 16.9992 151.274 16.4189 151.97"
        stroke="#333333" stroke-width="1.48235" stroke-linecap="round" stroke-linejoin="round" />
    <path
        d="M59.7416 120.763C59.7416 120.763 54.2654 128.033 52.4527 130.805C50.64 133.577 48.2788 135.963 46.4682 138.737C45.3416 140.476 40.2593 146.977 40.2593 146.977"
        stroke="#333333" stroke-width="1.48235" stroke-linecap="round" stroke-linejoin="round" />
    <path
        d="M80.6494 119.189C80.6494 119.189 84.1456 123.425 85.4671 125.407C88.0866 129.341 90.9729 132.929 93.4633 136.986C96.4576 141.891 99.7654 147.496 103.005 152"
        stroke="#333333" stroke-width="1.48235" stroke-linecap="round" stroke-linejoin="round" />
    <path
        d="M102.179 103.269C101.671 100.94 101.097 98.6272 100.796 96.2512C100.655 95.3035 100.631 94.3419 100.724 93.3882C100.364 94.4957 99.89 95.3872 99.2949 95.2835C98.8206 95.1988 98.2234 94.1675 97.7766 92.8545C97.6714 93.0801 97.5415 93.2932 97.389 93.4898C96.309 94.7774 90.513 94.5042 90.513 94.5042L89.3483 90.7284C88.658 91.152 87.741 91.0948 87.4869 90.1037C87.3998 90.2848 87.2687 90.4412 87.1056 90.5584C86.9424 90.6757 86.7524 90.7502 86.553 90.775C85.3671 90.9677 84.501 89.7712 84.501 89.2058C84.39 89.356 84.2481 89.4806 84.0848 89.5712C83.9215 89.6618 83.7406 89.7163 83.5544 89.731C81.8391 89.8771 81.9111 88.2487 81.8751 86.4529C81.8391 84.6571 81.3246 83.8461 80.8269 82.5988C77.9384 83.3675 76.4476 80.8856 77.589 77.9865C75.7869 77.9865 73.7243 78.2618 72.7184 77.4063C72.6464 77.58 72.5808 77.7536 72.5215 77.9315C72.5215 77.9315 64.9721 78.4651 61.2789 78.4228C57.4057 78.3804 51.9613 78.4651 48.0923 78.5096C45.0302 78.5435 42.2413 79.3355 39.2554 79.759C37.4871 80.0089 35.2318 80.0894 34.5267 78.211C33.7135 76.0637 34.0544 72.415 34.0566 70.0983C34.0566 64.1202 34.137 57.8858 33.5441 51.9437C33.3662 50.1564 32.7902 46.4145 33.5441 44.6336C34.3636 42.715 36.2229 41.9251 37.5909 41.544L38.1415 38.4945C38.2516 38.4691 38.366 38.4395 38.4824 38.4056C37.9213 36.5696 37.0001 33.9141 36.2886 32.3682C35.8354 31.3962 35.3801 29.7296 34.6135 28.836C34.8214 29.1972 34.9897 29.5799 35.1154 29.9774C35.1376 30.0652 35.1366 30.1572 35.1125 30.2445C35.0885 30.3318 35.0422 30.4114 34.9781 30.4754C34.9141 30.5394 34.8345 30.5858 34.7472 30.6098C34.6599 30.6339 34.5679 30.6349 34.4801 30.6127C33.5102 30.3014 32.7606 29.6978 32.085 28.9736C30.5243 28.8338 29.4147 27.5717 29.5799 26.2715C29.2368 26.3922 28.8874 26.5298 28.5359 26.695C8.79726 35.4705 11.0716 62.7183 13.5006 80.0428C14.1062 84.348 15.5589 93.8392 15.5589 93.8392C14.4217 95.0675 13.9686 97.6023 13.9686 99.6607C13.9686 102.471 14.462 106.543 15.6923 111.397C16.9227 116.25 18.6803 119.391 20.7599 122.061C22.8394 124.731 27.3966 126.169 29.9271 126.231C40.5408 126.487 50.7606 124.325 61.2683 123.306C71.8735 122.271 82.5549 122.853 93.1728 121.856C96.4975 121.542 102.643 121.606 106.694 120.439C106.497 119.751 106.313 119.096 106.146 118.493C104.748 113.44 103.297 108.4 102.179 103.269Z"
        fill="#FEC84B" stroke="#FEC84B" stroke-width="1.48235" stroke-linecap="round" stroke-linejoin="round" />
    <path
        d="M129.857 82.5409C128.959 76.296 127.405 69.636 121.511 66.3346C120.973 66.0317 120.419 65.7565 119.853 65.4875C119.195 65.5079 118.542 65.3722 117.947 65.0915C116.73 64.56 115.194 63.8485 113.382 63.6579C111.666 63.4865 109.943 63.4115 108.219 63.4334C108.02 63.7892 107.795 63.6854 106.768 63.8696C104.966 64.1894 102.903 64.2127 101.11 64.5049C96.8555 65.2016 92.1543 65.2186 88.0397 66.271C86.5786 66.6459 81.6254 67.5543 81.6254 67.5543H81.5703C82.1145 68.9668 81.8562 70.8706 82.3835 72.4249L82.3115 72.5223C82.5233 72.6388 82.735 72.7553 82.9298 72.8781L83.0357 72.7997C85.5663 71.7409 87.7729 70.5339 90.5237 69.5936C93.8569 68.4543 98.4649 67.6877 101.607 69.9473C102.059 70.2713 103.988 71.6626 106.451 73.5049C108.263 73.5727 109.989 74.2546 111.543 75.0296C113.996 76.2515 115.387 78.7461 116.401 81.3677L116.738 81.66C118.887 83.5405 124.057 87.6381 129.732 92.1254C130.367 88.9828 130.308 85.6814 129.857 82.5409Z"
        fill="#FEC84B" stroke="#FEC84B" stroke-width="1.48235" stroke-linecap="round" stroke-linejoin="round" />
    <path
        d="M91.4831 111.797C92.5779 109.946 94.5198 104.237 93.9057 102.117C93.3191 100.099 91.5234 99.6229 90.2676 101.215C90.7314 97.7488 91.0088 94.5257 89.2808 91.1904"
        stroke="#333333" stroke-width="1.48235" stroke-linecap="round" stroke-linejoin="round" />
    <path
        d="M35.9223 79.6152C32.083 79.8926 30.3571 81.8197 29.5312 82.8552C28.4131 84.2571 27.4136 86.4552 27.9896 88.8334C26.6385 87.4802 25.1774 87.9101 24.0974 89.0663C22.9178 90.3263 22.0856 93.2783 21.9077 95.0677"
        stroke="#333333" stroke-width="1.48235" stroke-linecap="round" stroke-linejoin="round" />
    <path
        d="M22.9917 41.7916C24.2835 41.078 25.8653 40.0975 27.5044 41.6412C28.3515 42.4396 29.2493 45.6351 29.2239 46.8994C29.1625 44.913 32.2395 43.8605 33.1628 45.9168"
        stroke="#333333" stroke-width="1.48235" stroke-linecap="round" stroke-linejoin="round" />
    <path
        d="M48.3677 53.3311C49.7844 55.3513 50.4345 58.2673 50.8242 60.7047C51.2667 63.4852 50.75 64.4974 49.5536 66.9031C50.3858 65.1518 51.4107 64.3619 52.6474 65.0776C53.9519 65.5012 52.5119 67.2969 50.6187 68.6776C52.387 67.2525 54.2378 65.9861 56.6413 66.1005C58.7463 66.2021 60.7347 66.7188 62.846 66.6129C64.8091 66.5155 66.4587 65.7362 68.3689 65.7553C70.9736 65.7828 72.8159 66.8904 74.1797 68.1779C69.8216 67.8539 66.6218 73.9315 66.9416 78.2706"
        stroke="#333333" stroke-width="1.48235" stroke-linecap="round" stroke-linejoin="round" />
    <path
        d="M37.595 41.5459C36.227 41.9271 34.3677 42.717 33.5482 44.6355C32.7859 46.4165 33.3619 50.1584 33.5482 51.9457C34.1412 57.8878 34.067 64.1221 34.0607 70.1003C34.0607 72.417 33.7176 76.0657 34.5308 78.213C35.2445 80.0913 37.4955 80.0108 39.2595 79.761C42.2454 79.3374 45.0343 78.5454 48.0965 78.5115C51.9739 78.4671 57.4141 78.3824 61.283 78.4247C64.9762 78.4671 72.5256 77.9334 72.5256 77.9334C73.5548 74.8777 76.4475 72.1523 80.1322 71.2417C78.5885 70.0833 76.0409 68.601 74.1922 68.1711"
        stroke="#333333" stroke-width="1.48235" stroke-linecap="round" stroke-linejoin="round" />
    <path
        d="M51.1249 37.3761C48.8907 35.5422 41.9152 37.6472 38.1416 38.4942L37.5952 41.5394C40.291 41.5394 42.8089 42.7549 45.4453 42.1895C48.8336 41.4611 48.0437 37.3359 50.5912 37.2088C52.0736 37.1347 54.4602 42.2149 55.25 43.854C54.2971 41.5394 53.6787 38.9432 54.7376 38.166C55.7964 37.3888 56.6625 41.2959 57.914 41.0799C59.3964 40.8236 59.2376 37.9225 58.598 37.0373C56.4804 34.0959 54.4665 36.8255 54.223 39.1549"
        stroke="#333333" stroke-width="1.48235" stroke-linecap="round" stroke-linejoin="round" />
    <path
        d="M55.2437 43.8613C56.6434 46.2903 55.5189 48.3783 57.2025 50.155C58.1554 51.1609 59.8114 50.8093 60.6437 51.055C62.1641 51.506 63.3415 53.2234 63.6719 54.655C64.0128 56.1373 63.8053 57.0543 64.5782 57.9818C65.0272 58.5197 65.8361 58.8903 66.4672 59.5722C67.3142 60.4933 68.2566 62.4839 68.1084 65.5799"
        stroke="#333333" stroke-width="1.48235" stroke-linecap="round" stroke-linejoin="round" />
    <path
        d="M64.2329 45.917C67.0544 48.683 69.5966 51.7203 71.8226 54.9848C72.9619 56.6556 73.0339 58.4069 73.9254 60.0671C74.6411 61.3991 75.8482 61.5876 76.96 62.5109C77.644 63.0784 77.9701 63.8937 78.5037 64.5417C79.2131 65.3993 80.0496 65.7424 80.8501 66.4815C82.3219 67.8452 81.6971 70.4309 82.3748 72.4299"
        stroke="#333333" stroke-width="1.48235" stroke-linecap="round" stroke-linejoin="round" />
    <path
        d="M79.4863 71.4219C83.1435 72.2838 86.104 74.3866 87.5906 77.4085C89.2847 80.8729 89.9009 83.5031 90.2164 87.3381C90.2863 88.2 90.3816 89.4176 89.9221 90.1631C89.3376 91.1096 87.8235 91.4336 87.4868 90.1101"
        stroke="#333333" stroke-width="1.48235" stroke-linecap="round" stroke-linejoin="round" />
    <path
        d="M72.7139 77.4082C73.7197 78.2553 75.7845 77.9884 77.5845 77.9884C76.443 80.8875 77.9339 83.3694 80.8223 82.6007C81.32 83.848 81.8346 84.6569 81.8706 86.4548C81.9066 88.2527 81.8346 89.879 83.5499 89.7329C85.8539 89.5381 85.1339 84.227 84.5176 82.9564"
        stroke="#333333" stroke-width="1.48235" stroke-linecap="round" stroke-linejoin="round" />
    <path
        d="M84.501 89.21C84.501 89.7755 85.365 90.9719 86.5509 90.7792C87.7367 90.5865 87.7558 89.318 87.7325 88.291C87.6838 86.2305 87.3619 83.2213 86.6377 81.4785"
        stroke="#333333" stroke-width="1.48235" stroke-linecap="round" stroke-linejoin="round" />
    <path
        d="M85.4453 74.5137C86.6863 75.5238 90.7183 78.372 90.4747 80.2906C90.2121 81.2944 89.13 80.5405 89.13 80.5405"
        stroke="#333333" stroke-width="1.48235" stroke-linecap="round" stroke-linejoin="round" />
    <path
        d="M59.0532 39.1553C60.7982 39.1828 62.0179 40.7562 63.6972 41.6964C65.6243 42.787 67.0431 43.6849 68.7245 45.2054C70.4928 46.8063 71.6045 49.0172 72.693 51.0946C73.3495 52.3461 73.468 52.5621 74.7916 52.9793C76.5937 53.551 77.8664 53.6845 78.3577 54.7539C78.849 55.8233 78.7812 56.9245 78.7812 57.636C78.7812 57.636 80.1238 57.4539 81.0577 58.0595C82.18 58.7986 82.1695 59.6689 81.693 61.291C82.6565 60.0204 84.4459 59.22 85.9071 58.716C87.7346 58.0807 90.2462 57.6106 92.2113 58.0193C93.1088 58.2478 93.9465 58.6667 94.6678 59.2475C95.2692 58.735 97.3233 57.4814 99.0789 57.0939C100.834 56.7063 103.488 56.035 104.335 58.0002C103.897 59.2115 103.301 63.2753 103.037 64.3743"
        stroke="#333333" stroke-width="1.48235" stroke-linecap="round" stroke-linejoin="round" />
    <path
        d="M104.335 57.9961L108.922 58.8432C109.068 59.6648 108.837 61.8227 108.557 62.5681C108.036 63.9552 108.278 63.6057 106.76 63.8747C104.957 64.1944 102.895 64.2177 101.101 64.51C96.8468 65.2067 92.1456 65.2236 88.0311 66.2761C86.5699 66.6509 81.6167 67.5594 81.6167 67.5594"
        stroke="#333333" stroke-width="1.48235" stroke-linecap="round" stroke-linejoin="round" />
    <path
        d="M108.21 63.4299C109.934 63.408 111.657 63.4829 113.373 63.6543C115.19 63.8449 116.721 64.5564 117.938 65.088C119.156 65.6195 120.609 65.7572 121.041 64.7047C121.473 63.6522 120.27 62.6506 119.302 62.299C117.282 61.5663 116.602 61.2656 115.109 61.2656"
        stroke="#333333" stroke-width="1.48235" stroke-linecap="round" stroke-linejoin="round" />
    <path
        d="M108.968 59.2075C111.785 57.4604 115.713 57.9538 118.44 58.191C120.281 58.3498 122.297 59.7814 122.786 61.6872C123.074 62.799 122.754 66.039 121.632 66.0898"
        stroke="#333333" stroke-width="1.48235" stroke-linecap="round" stroke-linejoin="round" />
    <path d="M118.28 60.6074C118.587 60.8086 118.703 61.2046 118.703 61.6874" stroke="#333333" stroke-width="1.48235"
        stroke-linecap="round" stroke-linejoin="round" />
    <path
        d="M122.295 65.5859C122.373 66.5134 122.776 67.0301 123.692 67.0344C124.609 67.0386 125.387 65.0755 125.073 62.6318C124.76 60.188 122.744 57.9963 119.279 58.3478"
        stroke="#333333" stroke-width="1.48235" stroke-linecap="round" stroke-linejoin="round" />
    <path
        d="M90.2759 79.2741C90.2759 79.2741 101.288 74.6577 103.983 73.8148C106.679 72.972 109.292 73.8996 111.539 75.0198C115.442 76.9659 116.66 82.133 117.941 85.9087C119.18 89.5659 119.823 93.4708 120.819 97.1937C121.878 101.132 122.864 105.103 123.737 109.086C124.753 113.735 129.016 128.109 128.607 129.867C128.256 131.349 124.923 132.459 120.105 134.244C117.301 135.297 114.395 136.053 111.433 136.499C111.433 136.499 107.884 124.77 106.139 118.499C104.742 113.447 103.291 108.407 102.173 103.276C101.665 100.946 101.091 98.6337 100.79 96.2577C100.468 93.7355 100.76 92.5624 101.493 90.0996C101.22 91.5184 100.51 95.5059 99.2886 95.2899C98.0667 95.0739 96.0189 88.5791 97.8698 87.1158C100.184 85.2607 98.4606 92.213 97.3827 93.5026C96.3048 94.7923 91.3538 94.517 91.3538 94.517"
        stroke="#333333" stroke-width="1.48235" stroke-linecap="round" stroke-linejoin="round" />
    <path
        d="M116.734 81.6504C121.924 86.1927 144.729 103.674 149.735 108.333C150.356 108.911 151.076 109.442 150.993 110.277C150.913 111.069 149.428 112.394 148.933 113.011C146.853 115.628 144.486 119.332 142.825 122.167C141.767 123.967 141.379 123.349 139.331 121.799C136.915 119.971 134.969 118.411 132.591 116.52C129.724 114.233 127.125 112.422 123.949 110.063"
        stroke="#333333" stroke-width="1.48235" stroke-linecap="round" stroke-linejoin="round" />
    <path
        d="M83.0356 72.7997C85.5662 71.7409 87.7728 70.5338 90.5236 69.5936C93.8568 68.4543 98.4648 67.6877 101.607 69.9472C102.058 70.2712 103.988 71.6625 106.45 73.5049"
        stroke="#333333" stroke-width="1.48235" stroke-linecap="round" stroke-linejoin="round" />
    <path
        d="M128.044 130.959C128.044 130.959 129.965 137.928 130.759 140.895C131.458 143.498 132.876 149.027 132.876 149.027"
        stroke="#333333" stroke-width="1.48235" stroke-linecap="round" stroke-linejoin="round" />
    <path d="M114.364 136.287C114.961 138.587 118.214 149.91 118.214 149.91" stroke="#333333" stroke-width="1.48235"
        stroke-linecap="round" stroke-linejoin="round" />
    <path
        d="M133.597 149.199C134.266 147.293 133.597 142.501 136.843 142.501C138.239 142.785 136.367 146.054 135.443 147.355C135.57 146.107 138.728 144.149 139.238 145.821C140.068 148.551 134.804 148.248 133.597 149.199Z"
        stroke="#333333" stroke-width="1.48235" stroke-linecap="round" stroke-linejoin="round" />
    <path
        d="M163.929 120.761C162.883 119.732 160.427 114.991 162.047 113.576C164.088 111.795 164.713 116.886 164.649 118.076C163.656 116.3 166.358 111.486 167.311 114.794C167.722 116.247 164.524 120.848 163.929 120.761Z"
        fill="#333333" stroke="#333333" stroke-width="1.48235" stroke-linecap="round" stroke-linejoin="round" />
    <path d="M150.809 110.762L162.869 121.202" stroke="#333333" stroke-width="1.48235" stroke-linecap="round"
        stroke-linejoin="round" />
    <path d="M143.687 120.728L152.285 127.75" stroke="#333333" stroke-width="1.48235" stroke-linecap="round"
        stroke-linejoin="round" />
    <path
        d="M38.425 38.0707C37.845 36.1228 37.1311 34.2173 36.2883 32.3679C35.7653 31.2413 35.2295 29.1914 34.2236 28.4735C30.6236 30.4937 27.4069 26.07 31.4008 24.145C29.0036 20.2634 30.1895 16.4791 34.7424 14.9926C39.2954 13.506 44.6361 14.7257 49.0853 15.577C51.2029 15.9815 53.5641 16.9535 56.0629 18.0144C54.0681 19.393 49.3648 21.9935 49.3648 21.9935C49.3648 21.9935 51.385 25.6083 52.753 28.2194C54.0152 30.6975 55.0979 33.2629 55.993 35.8959"
        stroke="#333333" stroke-width="1.48235" stroke-linecap="round" stroke-linejoin="round" />
    <path d="M43.3848 25.7248C44.3081 26.4702 45.5215 26.0805 46.3728 25.3457" stroke="#333333" stroke-width="1.48235"
        stroke-linecap="round" stroke-linejoin="round" />
    <path d="M40.2909 22.0996C39.9499 23.1246 39.232 23.6921 37.9297 23.1733" stroke="#333333" stroke-width="1.48235"
        stroke-linecap="round" stroke-linejoin="round" />
    <path d="M42.8682 20.1664C43.7724 20.6831 45.35 20.5201 45.4453 19.0928" stroke="#333333" stroke-width="1.48235"
        stroke-linecap="round" stroke-linejoin="round" />
    <path
        d="M131.197 149.202L131.198 149.202C131.42 149.193 131.645 149.183 131.872 149.172C133.324 149.106 134.85 149.035 136.31 149.209C137.996 149.409 139.58 149.933 140.844 151.153C140.886 151.194 140.918 151.267 140.93 151.37C140.941 151.47 140.931 151.587 140.902 151.7C140.872 151.813 140.825 151.916 140.768 151.99C140.71 152.064 140.649 152.101 140.591 152.106L140.591 152.106C135.17 152.667 129.855 152.807 124.428 152.879L120.193 152.934L120.193 152.934C120.034 152.936 119.873 152.942 119.711 152.947C119.397 152.958 119.076 152.969 118.755 152.957C118.272 152.938 117.808 152.865 117.404 152.664C116.043 151.969 116.275 149.994 117.723 149.562C117.722 149.563 117.722 149.563 117.722 149.563C117.722 149.563 117.729 149.562 117.748 149.56C117.77 149.558 117.8 149.556 117.839 149.554C117.917 149.549 118.025 149.544 118.162 149.539C118.435 149.529 118.819 149.518 119.288 149.506C120.148 149.483 121.292 149.458 122.558 149.43C122.672 149.428 122.787 149.425 122.902 149.423C125.708 149.361 129.03 149.286 131.197 149.202Z"
        fill="#333333" stroke="#333333" stroke-width="0.211765" />
    <path
        d="M153.274 129.98C154.085 129.628 154.865 129.166 155.638 128.709C155.972 128.512 156.304 128.315 156.637 128.129C161.397 125.463 166.144 122.773 170.878 120.059M153.274 129.98L153.232 129.882C153.232 129.882 153.232 129.882 153.232 129.882M153.274 129.98C152.654 130.247 151.857 130.418 151.273 129.98M153.274 129.98L153.232 129.883C153.232 129.883 153.232 129.883 153.232 129.882M153.232 129.882C154.036 129.533 154.807 129.077 155.577 128.622C155.913 128.424 156.248 128.226 156.585 128.037L156.585 128.037C161.345 125.371 166.092 122.681 170.825 119.967M153.232 129.882C152.616 130.148 151.872 130.296 151.337 129.896M170.825 119.967C170.825 119.967 170.825 119.967 170.825 119.967L170.878 120.059M170.825 119.967C170.825 119.967 170.825 119.967 170.825 119.967L170.878 120.059M170.825 119.967C170.881 119.935 170.928 119.89 170.963 119.836C170.999 119.783 171.022 119.722 171.03 119.658C171.038 119.594 171.031 119.53 171.01 119.469C170.989 119.408 170.954 119.354 170.908 119.309M170.878 120.059C170.948 120.018 171.007 119.962 171.052 119.895C171.096 119.828 171.125 119.751 171.135 119.671C171.145 119.591 171.136 119.51 171.11 119.434C171.083 119.358 171.039 119.289 170.982 119.233M170.982 119.233L170.909 119.309C170.908 119.309 170.908 119.309 170.908 119.309M170.982 119.233C169.879 118.174 168.339 118.43 167.024 118.911M170.982 119.233L170.908 119.308C170.908 119.308 170.908 119.309 170.908 119.309M170.908 119.309C169.854 118.297 168.373 118.531 167.061 119.01M167.024 118.911L167.061 119.01C167.061 119.01 167.061 119.01 167.061 119.01M167.024 118.911C165.175 119.608 163.368 120.413 161.613 121.323C158.14 123.085 154.838 125.165 151.749 127.536C151.483 127.652 151.254 127.838 151.084 128.074M167.024 118.911L167.06 119.01C167.06 119.01 167.061 119.01 167.061 119.01M167.061 119.01C165.216 119.706 163.413 120.509 161.662 121.417L161.661 121.417C158.194 123.176 154.898 125.253 151.814 127.62L151.804 127.628L151.792 127.633C151.543 127.742 151.329 127.915 151.171 128.135M151.171 128.135C151.171 128.135 151.171 128.135 151.171 128.135L151.084 128.074M151.171 128.135C150.771 128.697 150.782 129.463 151.337 129.896M151.171 128.135C151.171 128.136 151.17 128.136 151.17 128.136L151.084 128.074M151.084 128.074C150.661 128.669 150.661 129.503 151.273 129.98M151.273 129.98L151.336 129.895C151.337 129.895 151.337 129.895 151.337 129.896M151.273 129.98L151.338 129.896C151.338 129.896 151.337 129.896 151.337 129.896"
        fill="#333333" stroke="#333333" stroke-width="0.211765" />
    <path
        d="M34.6136 28.8426C34.4992 28.7062 34.3684 28.5845 34.2239 28.4805C33.5778 28.8611 32.831 29.0362 32.083 28.9824C32.7585 29.7066 33.5082 30.3101 34.4781 30.6214C34.5659 30.6436 34.6579 30.6426 34.7452 30.6186C34.8325 30.5945 34.9121 30.5482 34.9761 30.4842C35.0401 30.4201 35.0865 30.3406 35.1105 30.2533C35.1346 30.166 35.1356 30.0739 35.1134 29.9861C34.9885 29.588 34.8209 29.2046 34.6136 28.8426Z"
        fill="#A694FA" />
    <path
        d="M39.0627 11.9392C37.2839 13.483 35.0582 13.7117 32.0745 14.0082C29.2855 14.2835 27.8709 16.3588 28.9848 19.1879L28.9615 19.207C27.1552 20.9858 28.1674 23.6541 29.3575 25.4583C29.4528 25.6044 29.5545 25.7484 29.654 25.8924C29.8828 25.2806 30.317 24.7671 30.8822 24.4397C31.5103 24.6783 32.1706 24.8211 32.8411 24.8632C33.2011 24.8908 33.398 24.5117 33.3387 24.2089C33.1778 23.347 33.0232 22.483 32.8517 21.6232C32.7373 21.0557 32.6102 20.4945 32.2524 20.0244C32.0926 19.8134 31.8978 19.6315 31.6764 19.4865C31.9726 19.2869 32.2273 19.0316 32.426 18.7348C32.7902 18.1926 32.9681 17.7903 33.4425 17.3223C33.9307 16.8118 34.5142 16.4017 35.1599 16.1152C37.0531 15.3973 39.5709 14.8192 39.9182 12.4348C40.0008 11.9371 39.4757 11.5792 39.0627 11.9392Z"
        fill="#A694FA" />
</svg>