<svg width="20" height="21" viewBox="0 0 20 21" fill="none" xmlns="http://www.w3.org/2000/svg" stroke="#98A2B3">
    <path
        d="M7.79496 17.9998C8.38257 18.5185 9.15444 18.8332 9.99981 18.8332C10.8452 18.8332 11.6171 18.5185 12.2047 17.9998M14.9998 7.1665C14.9998 5.84042 14.473 4.56865 13.5353 3.63097C12.5977 2.69329 11.3259 2.1665 9.99981 2.1665C8.67373 2.1665 7.40196 2.69329 6.46428 3.63097C5.5266 4.56865 4.99981 5.84042 4.99981 7.1665C4.99981 9.74166 4.3502 11.5048 3.62453 12.671C3.01242 13.6547 2.70636 14.1466 2.71758 14.2838C2.73001 14.4357 2.7622 14.4937 2.88463 14.5845C2.99519 14.6665 3.49364 14.6665 4.49052 14.6665H15.5091C16.506 14.6665 17.0044 14.6665 17.115 14.5845C17.2374 14.4937 17.2696 14.4357 17.282 14.2838C17.2933 14.1466 16.9872 13.6547 16.3751 12.671C15.6494 11.5048 14.9998 9.74166 14.9998 7.1665Z"
        stroke-width="1.66667" stroke-linecap="round" stroke-linejoin="round" />
</svg>