<svg width="28" height="30" viewBox="0 0 28 30" fill="none" xmlns="http://www.w3.org/2000/svg">
<path d="M25.3333 8.70394L14 15.0002M14 15.0002L2.66662 8.70394M14 15.0002L14 27.6669M26 20.4117V9.58887C26 9.13201 26 8.90358 25.9327 8.69985C25.8731 8.51962 25.7758 8.35417 25.6472 8.21459C25.5018 8.0568 25.3021 7.94587 24.9027 7.724L15.036 2.24252C14.6579 2.03244 14.4688 1.9274 14.2686 1.88622C14.0914 1.84977 13.9086 1.84977 13.7314 1.88622C13.5312 1.9274 13.3421 2.03244 12.964 2.24252L3.09729 7.724C2.69793 7.94587 2.49825 8.05681 2.35284 8.21459C2.22421 8.35418 2.12686 8.51962 2.06731 8.69985C2 8.90359 2 9.13201 2 9.58887V20.4117C2 20.8685 2 21.097 2.06731 21.3007C2.12686 21.4809 2.22421 21.6464 2.35284 21.786C2.49825 21.9437 2.69793 22.0547 3.0973 22.2766L12.964 27.758C13.3421 27.9681 13.5312 28.0731 13.7314 28.1143C13.9086 28.1508 14.0914 28.1508 14.2686 28.1143C14.4688 28.0731 14.6579 27.9681 15.036 27.758L24.9027 22.2766C25.3021 22.0547 25.5018 21.9437 25.6472 21.786C25.7758 21.6464 25.8731 21.4809 25.9327 21.3007C26 21.097 26 20.8685 26 20.4117Z" stroke="#7A5EF8" stroke-width="2.66667" stroke-linecap="round" stroke-linejoin="round"/>
</svg>
