<svg width="24" height="24" viewBox="0 0 24 24" fill="none" xmlns="http://www.w3.org/2000/svg">
    <path
        d="M17 9L11 15M11 9L17 15M2.72 12.96L7.04 18.72C7.392 19.1893 7.568 19.424 7.79105 19.5932C7.9886 19.7432 8.21232 19.855 8.45077 19.9231C8.72 20 9.01334 20 9.6 20H17.2C18.8802 20 19.7202 20 20.362 19.673C20.9265 19.3854 21.3854 18.9265 21.673 18.362C22 17.7202 22 16.8802 22 15.2V8.8C22 7.11984 22 6.27976 21.673 5.63803C21.3854 5.07354 20.9265 4.6146 20.362 4.32698C19.7202 4 18.8802 4 17.2 4H9.6C9.01334 4 8.72 4 8.45077 4.07689C8.21232 4.14499 7.9886 4.25685 7.79105 4.40675C7.568 4.576 7.392 4.81067 7.04 5.28L2.72 11.04C2.46181 11.3843 2.33271 11.5564 2.28294 11.7454C2.23902 11.9123 2.23902 12.0877 2.28294 12.2546C2.33271 12.4436 2.46181 12.6157 2.72 12.96Z"
        stroke="#FC5D5D" stroke-width="2" stroke-linecap="round" stroke-linejoin="round" />
</svg>