<svg width="20" height="19" viewBox="0 0 20 19" fill="none" xmlns="http://www.w3.org/2000/svg" stroke="#98A2B3">
    <path
        d="M9.99984 11.9998C11.3805 11.9998 12.4998 10.8805 12.4998 9.49984C12.4998 8.11913 11.3805 6.99984 9.99984 6.99984C8.61913 6.99984 7.49984 8.11913 7.49984 9.49984C7.49984 10.8805 8.61913 11.9998 9.99984 11.9998Z"
        stroke-width="1.66667" stroke-linecap="round" stroke-linejoin="round" />
    <path
        d="M15.6059 11.7726C15.5051 12.0011 15.475 12.2545 15.5195 12.5003C15.5641 12.746 15.6812 12.9728 15.8559 13.1514L15.9014 13.1968C16.0422 13.3375 16.154 13.5046 16.2302 13.6886C16.3065 13.8725 16.3457 14.0697 16.3457 14.2688C16.3457 14.4679 16.3065 14.6651 16.2302 14.849C16.154 15.0329 16.0422 15.2 15.9014 15.3407C15.7606 15.4816 15.5935 15.5934 15.4096 15.6696C15.2257 15.7459 15.0285 15.7851 14.8294 15.7851C14.6303 15.7851 14.4331 15.7459 14.2492 15.6696C14.0652 15.5934 13.8981 15.4816 13.7574 15.3407L13.712 15.2953C13.5334 15.1206 13.3066 15.0035 13.0609 14.9589C12.8151 14.9144 12.5617 14.9444 12.3332 15.0453C12.1091 15.1413 11.918 15.3008 11.7834 15.504C11.6488 15.7073 11.5766 15.9455 11.5756 16.1892V16.318C11.5756 16.7199 11.416 17.1052 11.1318 17.3894C10.8477 17.6735 10.4623 17.8332 10.0604 17.8332C9.6586 17.8332 9.27322 17.6735 8.98907 17.3894C8.70492 17.1052 8.54529 16.7199 8.54529 16.318V16.2498C8.53943 15.9991 8.45826 15.7559 8.31235 15.5519C8.16643 15.3479 7.96252 15.1925 7.72711 15.1059C7.49861 15.0051 7.24515 14.975 6.99939 15.0195C6.75364 15.0641 6.52687 15.1812 6.34832 15.3559L6.30287 15.4014C6.16215 15.5422 5.99505 15.654 5.81111 15.7302C5.62717 15.8065 5.43001 15.8457 5.2309 15.8457C5.03178 15.8457 4.83462 15.8065 4.65069 15.7302C4.46675 15.654 4.29964 15.5422 4.15893 15.4014C4.01805 15.2606 3.9063 15.0935 3.83005 14.9096C3.7538 14.7257 3.71455 14.5285 3.71455 14.3294C3.71455 14.1303 3.7538 13.9331 3.83005 13.7492C3.9063 13.5652 4.01805 13.3981 4.15893 13.2574L4.20438 13.212C4.37903 13.0334 4.49619 12.8066 4.54075 12.5609C4.58531 12.3151 4.55523 12.0617 4.45438 11.8332C4.35835 11.6091 4.19889 11.418 3.99564 11.2834C3.79239 11.1488 3.55422 11.0766 3.31044 11.0756H3.18166C2.77981 11.0756 2.39443 10.916 2.11028 10.6318C1.82614 10.3477 1.6665 9.96229 1.6665 9.56044C1.6665 9.1586 1.82614 8.77322 2.11028 8.48907C2.39443 8.20492 2.77981 8.04529 3.18166 8.04529H3.24984C3.50059 8.03943 3.74378 7.95826 3.94779 7.81235C4.1518 7.66643 4.3072 7.46252 4.39378 7.22711C4.49462 6.99861 4.5247 6.74515 4.48014 6.49939C4.43558 6.25364 4.31843 6.02687 4.14378 5.84832L4.09832 5.80287C3.95745 5.66215 3.84569 5.49505 3.76944 5.31111C3.69319 5.12717 3.65395 4.93001 3.65395 4.7309C3.65395 4.53178 3.69319 4.33462 3.76944 4.15069C3.84569 3.96675 3.95745 3.79964 4.09832 3.65893C4.23904 3.51805 4.40614 3.4063 4.59008 3.33005C4.77402 3.2538 4.97118 3.21455 5.17029 3.21455C5.36941 3.21455 5.56657 3.2538 5.7505 3.33005C5.93444 3.4063 6.10154 3.51805 6.24226 3.65893L6.28772 3.70438C6.46626 3.87903 6.69303 3.99619 6.93878 4.04075C7.18454 4.08531 7.43801 4.05523 7.6665 3.95438H7.72711C7.95118 3.85835 8.14227 3.69889 8.27688 3.49564C8.41148 3.29239 8.48371 3.05422 8.48469 2.81044V2.68166C8.48469 2.27981 8.64432 1.89443 8.92846 1.61028C9.21261 1.32614 9.59799 1.1665 9.99984 1.1665C10.4017 1.1665 10.7871 1.32614 11.0712 1.61028C11.3554 1.89443 11.515 2.27981 11.515 2.68166V2.74984C11.516 2.99361 11.5882 3.23179 11.7228 3.43504C11.8574 3.63829 12.0485 3.79774 12.2726 3.89378C12.5011 3.99462 12.7545 4.0247 13.0003 3.98014C13.246 3.93558 13.4728 3.81843 13.6514 3.64378L13.6968 3.59832C13.8375 3.45745 14.0046 3.34569 14.1886 3.26944C14.3725 3.19319 14.5697 3.15395 14.7688 3.15395C14.9679 3.15395 15.1651 3.19319 15.349 3.26944C15.5329 3.34569 15.7 3.45745 15.8407 3.59832C15.9816 3.73904 16.0934 3.90614 16.1696 4.09008C16.2459 4.27402 16.2851 4.47118 16.2851 4.67029C16.2851 4.86941 16.2459 5.06657 16.1696 5.2505C16.0934 5.43444 15.9816 5.60154 15.8407 5.74226L15.7953 5.78772C15.6206 5.96626 15.5035 6.19303 15.4589 6.43878C15.4144 6.68454 15.4444 6.93801 15.5453 7.1665V7.22711C15.6413 7.45118 15.8008 7.64227 16.004 7.77688C16.2073 7.91148 16.4455 7.98371 16.6892 7.98469H16.818C17.2199 7.98469 17.6052 8.14432 17.8894 8.42846C18.1735 8.71261 18.3332 9.09799 18.3332 9.49984C18.3332 9.90168 18.1735 10.2871 17.8894 10.5712C17.6052 10.8554 17.2199 11.015 16.818 11.015H16.7498C16.5061 11.016 16.2679 11.0882 16.0646 11.2228C15.8614 11.3574 15.7019 11.5485 15.6059 11.7726Z"
        stroke-width="1.66667" stroke-linecap="round" stroke-linejoin="round" />
</svg>