<svg width="16" height="16" viewBox="0 0 16 16" fill="none" xmlns="http://www.w3.org/2000/svg">
    <g clip-path="url(#clip0_494_22561)">
        <path
            d="M6.06016 6C6.2169 5.55444 6.52626 5.17873 6.93347 4.93942C7.34067 4.7001 7.81943 4.61262 8.28495 4.69247C8.75047 4.77232 9.17271 5.01434 9.47688 5.37568C9.78106 5.73702 9.94753 6.19434 9.94683 6.66666C9.94683 8 7.94683 8.66666 7.94683 8.66666M8.00016 11.3333H8.00683M14.6668 8C14.6668 11.6819 11.6821 14.6667 8.00016 14.6667C4.31826 14.6667 1.3335 11.6819 1.3335 8C1.3335 4.3181 4.31826 1.33333 8.00016 1.33333C11.6821 1.33333 14.6668 4.3181 14.6668 8Z"
            stroke="#98A2B3" stroke-width="1.33333" stroke-linecap="round" stroke-linejoin="round" />
    </g>
    <defs>
        <clipPath id="clip0_494_22561">
            <rect width="16" height="16" fill="white" />
        </clipPath>
    </defs>
</svg>