<svg width="14" height="14" viewBox="0 0 14 14" fill="none" xmlns="http://www.w3.org/2000/svg">
    <path
        d="M11.6667 12.25C11.6667 11.4359 11.6667 11.0289 11.5662 10.6977C11.34 9.95193 10.7564 9.36835 10.0107 9.14214C9.67945 9.04166 9.27241 9.04166 8.45833 9.04166H5.54167C4.72759 9.04166 4.32055 9.04166 3.98934 9.14214C3.2436 9.36835 2.66003 9.95193 2.43381 10.6977C2.33334 11.0289 2.33334 11.4359 2.33334 12.25M9.625 4.375C9.625 5.82475 8.44975 7 7 7C5.55025 7 4.375 5.82475 4.375 4.375C4.375 2.92525 5.55025 1.75 7 1.75C8.44975 1.75 9.625 2.92525 9.625 4.375Z"
        stroke="#98A2B3" stroke-width="1.16667" stroke-linecap="round" stroke-linejoin="round" />
</svg>