<svg width="304" height="238" viewBox="0 0 162 127" fill="none" xmlns="http://www.w3.org/2000/svg">
    <path
        d="M117.391 91.316L117.392 91.3209C117.077 91.4232 116.788 91.5981 116.551 91.833L116.549 91.8348C116.046 92.356 115.866 93.1715 115.798 93.9906C115.764 94.403 115.758 94.8231 115.756 95.2167C115.756 95.2934 115.756 95.3689 115.756 95.4431C115.755 95.752 115.755 96.0386 115.742 96.2897C115.711 96.9146 115.688 97.5464 115.664 98.1858C115.567 100.842 115.464 103.629 114.769 106.598C114.339 108.436 113.719 109.725 113.083 110.558C112.444 111.394 111.799 111.755 111.323 111.774C111.223 111.778 111.096 111.739 110.941 111.636C110.786 111.533 110.612 111.373 110.42 111.151C110.038 110.706 109.597 110.023 109.119 109.088C108.164 107.22 107.066 104.361 105.986 100.429C103.819 92.5448 100.696 86.325 97.0975 81.6545C95.9276 80.1356 93.8969 78.0511 91.6708 76.2784C89.4857 74.5382 87.0936 73.0833 85.1334 72.7755C85.2287 70.8079 84.9815 68.8385 84.4025 66.9552L84.4026 66.9536L84.406 66.8918L84.419 66.6521L84.468 65.7515C84.5098 64.9806 84.569 63.8907 84.6381 62.615C84.7738 60.1091 84.9479 56.8861 85.1047 53.9547C86.4569 54.585 87.7575 55.3207 88.9945 56.1549C91.1285 57.6006 93.0682 59.3382 95.0112 61.0787C95.3206 61.3559 95.6301 61.6331 95.9405 61.9093C98.0892 63.8221 100.315 65.6665 102.906 66.8421C105.687 68.1061 108.768 68.224 111.696 67.8178L111.697 67.8177C112.756 67.6666 113.805 67.4506 114.838 67.1709V68.8423C112.645 72.8233 114.492 78.142 118.386 80.3986V83.1029V83.1119L118.387 83.1208L118.487 83.7172C118.385 83.778 118.287 83.8461 118.195 83.9209L118.194 83.9213C117.769 84.2688 117.52 84.9203 117.374 85.6703C117.227 86.4263 117.181 87.3083 117.184 88.1453C117.187 88.9831 117.239 89.7799 117.291 90.367C117.317 90.6606 117.343 90.902 117.362 91.0701C117.371 91.1542 117.379 91.22 117.385 91.2648L117.391 91.316Z"
        fill="#F4F6F9" stroke="#F9FAFB" stroke-width="0.216336" />
    <path
        d="M38.489 69.3648L38.4896 69.3646C39.9571 68.8915 41.252 68.0146 42.4865 67.0877C44.5815 65.5387 46.5212 63.7617 48.4539 61.9912C48.8693 61.6107 49.2844 61.2304 49.7006 60.8528C54.0302 56.927 58.6342 53.6526 64.1189 52.1473C64.5023 53.312 65.644 53.8136 66.7012 54.0251C66.9612 54.977 67.3213 55.8987 67.7755 56.7748L67.7752 56.775L67.7802 56.783C67.8321 56.8647 67.9008 56.9346 67.9816 56.9879C68.0625 57.0413 68.1537 57.0769 68.2493 57.0924C68.3449 57.108 68.4427 57.1031 68.5363 57.0781C68.5705 57.0689 68.6038 57.0572 68.6361 57.0429C68.5933 57.4593 68.5475 57.8462 68.5002 58.1468L68.5002 58.1474C68.3502 59.1338 68.2672 60.1255 68.1867 61.113L68.1788 61.2096C68.1009 62.1657 68.0233 63.1176 67.8878 64.0629L67.8878 64.063C67.8642 64.2279 67.8409 64.3933 67.8175 64.5589C67.403 67.4944 66.9769 70.5124 65.227 72.7709L65.2161 72.7733C65.184 72.7805 65.1367 72.7912 65.0756 72.8052C64.9535 72.8331 64.7766 72.8742 64.5569 72.9269C64.1176 73.0322 63.5074 73.1837 62.8235 73.3688C61.4575 73.7383 59.7909 74.2432 58.6066 74.7814L58.6065 74.7815C58.5232 74.8194 58.4397 74.8573 58.3563 74.8952C56.4684 75.753 54.5647 76.6179 52.9681 78.0243L52.9678 78.0246C49.828 80.8125 47.3255 84.2422 45.6288 88.0801C45.2785 86.4133 44.7628 84.7578 44.0103 83.4413C43.2372 82.0886 42.2052 81.0794 40.8336 80.801C42.1225 78.7257 42.3627 76.8194 41.9161 75.4285C41.4689 74.0358 40.3342 73.1707 38.9124 73.1959C38.9051 73.1394 38.8946 73.0596 38.8811 72.9594C38.8524 72.7463 38.8102 72.4409 38.7562 72.0719C38.6516 71.3572 38.5025 70.4029 38.321 69.4162C38.377 69.3997 38.433 69.3825 38.489 69.3648Z"
        fill="#F4F6F9" stroke="#F9FAFB" stroke-width="0.216336" />
    <path
        d="M159.352 72.9464L159.352 72.9463C158.625 69.7725 157.72 66.46 155.875 63.8421C154.031 61.2259 151.516 59.5206 148.67 58.521L148.669 58.521C142.918 56.4978 136.765 57.9786 131.225 60.2255C131.548 60.4254 131.845 60.6651 132.109 60.9389C132.541 61.3654 132.866 61.8881 133.056 62.4643C133.237 63.0113 133.293 63.5916 133.219 64.1622L133.27 64.1778C134.244 64.4479 134.862 64.9738 135.195 65.6526C135.515 66.3027 135.568 67.0807 135.444 67.8843L135.506 67.9038C136.417 68.0637 136.932 68.6808 137.169 69.4744C137.397 70.2392 137.371 71.175 137.205 72.0539L137.576 72.2102L137.593 72.2176L137.607 72.2306C138.24 72.8176 138.495 73.8006 138.461 74.7681C138.427 75.7365 138.101 76.7216 137.532 77.3252L137.53 77.3282L137.53 77.3282C137.089 77.7609 136.512 78.0251 135.899 78.0776L135.956 78.2517L135.965 78.279L135.959 78.3071C135.479 80.6173 133.853 81.6607 132.292 81.8913L132.102 84.6832C132.396 84.8366 132.675 85.018 132.935 85.2249L132.936 85.2257C133.52 85.7024 133.708 86.4696 133.758 87.2731C133.783 87.6772 133.773 88.0975 133.757 88.505C133.753 88.6047 133.749 88.7035 133.745 88.8012C133.732 89.1044 133.72 89.3962 133.72 89.6687V94.374V94.5053L133.654 94.4925C135.401 95.8103 136.084 97.4942 136.341 99.2273C136.479 100.157 136.495 101.102 136.488 102.011C136.486 102.231 136.483 102.448 136.48 102.663C136.47 103.338 136.461 103.985 136.495 104.589C136.495 104.589 136.495 104.59 136.495 104.59L136.387 104.596C136.581 107.514 136.551 110.443 136.297 113.357L159.352 72.9464ZM159.352 72.9464C160.947 79.8589 161.515 86.9685 161.039 94.0465L161.039 94.0468C160.808 97.6061 160.316 101.144 159.568 104.631C159.211 106.276 158.792 107.899 158.313 109.502C157.786 111.253 157.067 112.67 155.325 113.024C154.531 113.185 153.699 113.222 152.857 113.221C152.493 113.22 152.123 113.212 151.754 113.204C151.279 113.194 150.805 113.183 150.346 113.189L145.117 113.251L136.406 113.356L159.352 72.9464Z"
        fill="#F4F6F9" stroke="#F9FAFB" stroke-width="0.216336" />
    <path
        d="M21.3239 108.341L21.3239 108.341C21.4417 109.15 21.3738 110.026 21.2202 110.948C21.1026 111.653 20.9358 112.38 20.7657 113.121C20.7199 113.32 20.6739 113.521 20.6285 113.722L15.4437 113.68L10.1694 113.637H10.1693C9.94122 113.635 9.71187 113.635 9.48185 113.636C8.18581 113.638 6.8688 113.64 5.63908 113.278C2.7079 112.404 1.18425 109.685 0.9697 106.466L0.969669 106.466C0.754578 103.425 1.39986 100.177 2.04909 97.2248L2.04911 97.2247C2.7387 94.0793 3.74459 91.0117 5.05143 88.0687C7.64291 82.2924 11.5748 77.2127 16.5938 73.8122L16.5939 73.8121C18.071 72.8081 19.6416 71.9494 21.2839 71.2478C21.4029 71.318 21.528 71.3773 21.6575 71.4249C21.6334 71.4635 21.6134 71.5062 21.5967 71.5513C21.5536 71.6672 21.5278 71.8115 21.5146 71.9757C21.4881 72.3044 21.5111 72.7341 21.5679 73.2253C21.6817 74.2091 21.9339 75.4604 22.2188 76.6892C22.5039 77.9188 22.8223 79.129 23.0695 80.0317C23.1931 80.4831 23.2988 80.8577 23.3737 81.1195C23.4112 81.2504 23.4409 81.3531 23.4613 81.4231L23.4744 81.4678C22.9484 81.9832 22.4802 82.5545 22.0781 83.1715L22.0777 83.172C20.1546 86.1592 19.7421 89.0525 19.452 92.4582C19.2246 94.7718 19.1587 97.0985 19.2547 99.4213L19.2548 99.4229C19.3432 100.982 19.7584 102.468 20.2009 103.933C20.2492 104.093 20.2979 104.253 20.3465 104.413C20.7438 105.718 21.1372 107.01 21.3239 108.341Z"
        fill="#F4F6F9" stroke="#F9FAFB" stroke-width="0.216336" />
    <path
        d="M85.0205 72.8683C88.9146 73.407 94.6842 78.6985 97.012 81.7186C100.601 86.3784 103.718 92.5851 105.882 100.458C108.045 108.33 110.28 111.923 111.327 111.882C112.374 111.841 114.007 110.32 114.875 106.623C115.742 102.926 115.69 99.5079 115.851 96.2953C115.913 95.0362 115.677 92.8945 116.627 91.9102C117.67 90.8285 119.857 91.4018 121.201 91.6289C124.956 92.2671 129.573 92.1222 132.865 94.0952C137.279 96.7366 136.197 101.314 136.383 104.596C136.816 112.215 136.565 114.115 136.043 115.926C135.639 117.323 135.074 122.115 131.948 122.253C128.822 122.392 132.26 117.723 133.811 120.663C134.689 122.327 132.803 125.152 131.708 126.007"
        stroke="#F9FAFB" stroke-width="1.51435" stroke-linecap="round" stroke-linejoin="round" />
    <path
        d="M20.6804 120.469C19.0038 116.575 21.9287 111.865 21.4311 108.326C21.0093 105.319 19.5382 102.506 19.3629 99.417C19.2671 97.099 19.3329 94.7771 19.5598 92.4683C19.8497 89.0653 20.2607 86.1945 22.1688 83.2307C23.9687 80.4184 27.0688 78.9797 29.786 77.1625C32.3128 75.4729 35.984 73.4372 38.818 73.3074C41.652 73.1776 43.3611 76.6606 40.6569 80.8791C45.9571 81.7185 46.3032 93.5737 46.2189 95.6311C46.141 97.5435 46.0025 102.744 43.8284 103.636C41.9917 104.388 42.022 102.911 42.1799 101.418C42.4719 98.6511 43.4584 95.7306 44.0815 93.0221C45.3795 87.3562 48.6548 81.9738 53.0443 78.11C54.6971 76.6541 56.683 75.7823 58.656 74.8845C61.0076 73.8158 65.2932 72.8726 65.2932 72.8726"
        stroke="#F9FAFB" stroke-width="1.51435" stroke-linecap="round" stroke-linejoin="round" />
    <path
        d="M117.508 91.3195C117.508 91.3195 116.696 85.2924 118.269 84.0052C119.842 82.718 123.487 83.3973 126.691 83.5941C129.895 83.791 131.779 84.4162 132.876 85.3097C133.973 86.2031 133.62 88.2172 133.62 89.6688V94.3741"
        stroke="#F9FAFB" stroke-width="1.51435" stroke-linecap="round" stroke-linejoin="round" />
    <path
        d="M118.494 80.3359C114.527 78.0731 112.675 72.589 115.087 68.6257C117.004 65.478 124.141 61.9301 126.613 66.4212C128.478 69.8134 123.07 70.2093 121.123 69.5451C122.65 69.8328 124.151 72.3769 124.151 74.761"
        stroke="#F9FAFB" stroke-width="1.51435" stroke-linecap="round" stroke-linejoin="round" />
    <path
        d="M119.706 62.3219C121.706 61.4555 123.756 60.7079 125.845 60.0829C128.052 59.4728 130.336 59.2694 132.032 61.0153C134.784 63.8493 131.816 67.8601 129.506 70.2095C127.515 72.2474 125.198 72.1566 124.653 70.2268"
        stroke="#F9FAFB" stroke-width="1.51435" stroke-linecap="round" stroke-linejoin="round" />
    <path
        d="M114.946 68.3878C114.946 61.584 114.929 54.9555 116.761 48.4568C117.123 47.1804 117.826 42.8082 120.872 44.3464C122.579 45.2117 121.566 50.4362 121.462 52.1345C121.322 54.4363 121.285 59.1654 121.285 61.3893"
        stroke="#F9FAFB" stroke-width="1.51435" stroke-linecap="round" stroke-linejoin="round" />
    <path d="M127.081 64.4679C126.695 64.842 126.379 65.2815 126.146 65.7659" stroke="#F9FAFB" stroke-width="1.51435"
        stroke-linecap="round" stroke-linejoin="round" />
    <path
        d="M133.24 64.282C136.809 65.2706 135.306 69.7163 133.339 72.0874C131.373 74.4584 129.432 75.1637 128.108 74.5514C127.026 74.0517 126.189 72.758 127.31 71.592"
        stroke="#F9FAFB" stroke-width="1.51435" stroke-linecap="round" stroke-linejoin="round" />
    <path
        d="M135.481 68.0244C138.124 68.483 137.265 72.9655 136.156 74.4561C135.383 75.4923 133.992 76.7882 132.478 76.4226C131.37 76.1565 130.782 75.1246 131.362 73.9974"
        stroke="#F9FAFB" stroke-width="1.51435" stroke-linecap="round" stroke-linejoin="round" />
    <path
        d="M137.534 72.3079C138.735 73.422 138.544 76.0916 137.454 77.249C136.329 78.441 133.588 78.229 134.187 76.1889"
        stroke="#F9FAFB" stroke-width="1.51435" stroke-linecap="round" stroke-linejoin="round" />
    <path d="M135.853 78.2832C135.289 80.9982 133.117 81.9198 131.373 81.8289" stroke="#F9FAFB" stroke-width="1.51435"
        stroke-linecap="round" stroke-linejoin="round" />
    <path d="M132.188 81.8289L132.002 84.5698" stroke="#F9FAFB" stroke-width="1.51435" stroke-linecap="round"
        stroke-linejoin="round" />
    <path
        d="M23.5877 81.5001C23.5877 81.5001 20.7754 71.9813 21.8462 71.3756C22.9171 70.7698 27.7154 68.243 30.3872 66.9731C31.6679 66.3631 35.51 64.1781 36.6609 64.641C37.8118 65.104 38.8243 73.3074 38.8243 73.3074"
        stroke="#F9FAFB" stroke-width="1.51435" stroke-linecap="round" stroke-linejoin="round" />
    <path
        d="M36.5461 64.0957C37.5737 61.0844 36.2389 55.756 38.3417 53.4758C41.0394 50.551 46.0649 47.5006 44.358 45.6488C42.2055 43.3102 39.4796 46.0166 37.5196 47.0571C35.3736 48.1972 33.3011 49.3936 30.8587 50.843C20.6606 46.685 16.3793 48.9869 10.601 50.2373C8.41382 50.7175 3.49867 52.4482 7.12229 54.5986C10.019 56.3163 14.694 56.6278 16.4247 59.6154C17.4956 61.4565 18.2614 63.927 18.7741 65.967C19.1268 67.3711 19.8428 70.8195 21.8483 71.3754"
        stroke="#F9FAFB" stroke-width="1.51435" stroke-linecap="round" stroke-linejoin="round" />
    <path d="M6.68115 51.9617C8.59572 51.4208 13.446 53.0433 14.638 53.7984" stroke="#F9FAFB" stroke-width="1.51435"
        stroke-linecap="round" stroke-linejoin="round" />
    <path d="M11.7197 50.0946C13.8247 50.4732 16.226 51.609 17.881 52.3358" stroke="#F9FAFB" stroke-width="1.51435"
        stroke-linecap="round" stroke-linejoin="round" />
    <path d="M17.3208 49.162C19.0169 49.6725 20.7259 50.7542 22.3593 51.4011" stroke="#F9FAFB" stroke-width="1.51435"
        stroke-linecap="round" stroke-linejoin="round" />
    <path
        d="M106.64 14.0517L106.64 14.052C104.418 17.6014 103.197 21.6852 103.106 25.8715C103.024 30.2369 104.251 34.3439 106.652 37.7465L106.652 37.7466C109.171 41.3204 112.877 43.4031 117.078 43.6198C118.088 43.6717 119.105 43.7084 120.125 43.7084C123.364 43.7084 126.615 43.3388 129.482 41.9347C133.42 39.9947 136.106 37.6733 137.945 34.6013C139.61 31.8067 141.212 27.5165 140.724 23.8458C139.573 15.2394 134.835 9.3409 127.388 7.21268C123.281 6.04035 119.284 5.95145 115.833 6.94649L106.64 14.0517ZM106.64 14.0517C108.877 10.4517 111.966 8.06361 115.833 6.94651L106.64 14.0517Z"
        fill="#F97066" stroke="#F9FAFB" stroke-width="0.216336" />
    <path
        d="M121.914 20.9158V23.9688M121.914 27.0218H121.922M120.857 17.0169L114.58 27.8601C114.231 28.4616 114.057 28.7623 114.083 29.0091C114.106 29.2244 114.218 29.42 114.393 29.5473C114.594 29.6932 114.942 29.6932 115.636 29.6932H128.192C128.887 29.6932 129.234 29.6932 129.435 29.5473C129.61 29.42 129.723 29.2244 129.745 29.0091C129.771 28.7623 129.597 28.4616 129.249 27.8601L122.971 17.0169C122.624 16.4177 122.451 16.118 122.224 16.0174C122.027 15.9296 121.801 15.9296 121.604 16.0174C121.378 16.118 121.204 16.4177 120.857 17.0169Z"
        stroke="#FCFCFD" stroke-width="1.5265" stroke-linecap="round" stroke-linejoin="round" />
    <path d="M100.757 15.9978H98.8896" stroke="#F9FAFB" stroke-width="1.51435" stroke-linecap="round"
        stroke-linejoin="round" />
    <path d="M127.719 1.38867L129.845 1.47304" stroke="#F9FAFB" stroke-width="1.51435" stroke-linecap="round"
        stroke-linejoin="round" />
    <path d="M144.383 22.0012L146.629 21.9427" stroke="#F9FAFB" stroke-width="1.51435" stroke-linecap="round"
        stroke-linejoin="round" />
    <path
        d="M65.2928 72.8683C67.1836 70.4519 67.5578 67.17 67.9992 64.0786C68.2804 62.1164 68.3129 60.1283 68.6114 58.164C68.8083 56.879 68.9986 54.0428 68.9986 54.0428C68.9986 54.0428 63.4237 54.6117 64.1722 50.5619C64.5854 48.3358 67.3761 45.7744 69.7407 46.7112C70.3075 42.1227 70.2101 37.4953 74.5801 34.7413C79.4909 31.6499 84.8863 37.4131 88.3304 40.6905C90.753 42.9938 92.9681 45.5058 94.9503 48.1974C92.0773 48.5565 85.2952 48.2536 85.2952 48.2536C85.0248 53.5755 84.2936 66.9689 84.2936 66.9689C85.6392 71.3756 85.1719 76.4033 83.0907 76.4768C81.0096 76.5504 79.8154 72.864 78.2037 71.0576C77.3795 73.2383 74.6645 76.758 71.8305 76.7624C68.9965 76.7667 66.2966 74.6228 65.2928 72.8683Z"
        stroke="#F9FAFB" stroke-width="1.51435" stroke-linecap="round" stroke-linejoin="round" />
    <path d="M67.9062 65.5885C71.3676 69.3289 79.4672 68.8184 83.5863 66.7091" stroke="#F9FAFB" stroke-width="1.51435"
        stroke-linecap="round" stroke-linejoin="round" />
    <path
        d="M66.4136 50.4688C66.6595 50.4465 66.9071 50.4861 67.1338 50.5839C67.3605 50.6818 67.5592 50.8349 67.7116 51.0291"
        stroke="#F9FAFB" stroke-width="1.51435" stroke-linecap="round" stroke-linejoin="round" />
    <path d="M75.8066 50.1942C76.341 51.1547 77.4465 51.3711 78.42 50.9406" stroke="#F9FAFB" stroke-width="1.51435"
        stroke-linecap="round" stroke-linejoin="round" />
    <path d="M77.0527 44.2796V43.5029" stroke="#F9FAFB" stroke-width="1.51435" stroke-linecap="round"
        stroke-linejoin="round" />
    <path d="M81.1636 43.7494V42.8148" stroke="#F9FAFB" stroke-width="1.51435" stroke-linecap="round"
        stroke-linejoin="round" />
    <path
        d="M77.555 78.6639C77.7713 80.8165 76.6464 84.0074 76.257 86.1124C75.6469 89.3985 74.5696 92.5073 74.5587 95.1293C74.5479 97.7512 75.1147 99.0752 76.575 100.105C78.0353 101.135 78.5999 101.846 78.5004 103.716C78.3619 106.294 77.317 109.124 76.2483 111.445C75.5798 112.899 74.3229 114.474 75.7854 115.724C77.5334 117.204 79.6794 115.904 80.3479 118.969C80.7416 120.797 80.1143 123.19 79.6318 124.908"
        stroke="#F9FAFB" stroke-width="1.51435" stroke-linecap="round" stroke-linejoin="round" />
    <path d="M85.6392 91.5056C88.4126 91.5056 90.8096 91.2503 93.477 91.6419" stroke="#F9FAFB" stroke-width="1.51435"
        stroke-linecap="round" stroke-linejoin="round" />
    <path d="M91.487 90.0431L91.2988 93.9631" stroke="#F9FAFB" stroke-width="1.51435" stroke-linecap="round"
        stroke-linejoin="round" />
    <path d="M89.2456 89.6688C89.2456 91.3995 89.6026 93.472 89.0596 95.0772" stroke="#F9FAFB" stroke-width="1.51435"
        stroke-linecap="round" stroke-linejoin="round" />
    <path d="M77.2393 93.1649L77.9878 92.7906" stroke="#F9FAFB" stroke-width="1.51435" stroke-linecap="round"
        stroke-linejoin="round" />
    <path d="M80.7695 105.66L81.4229 105.498" stroke="#F9FAFB" stroke-width="1.51435" stroke-linecap="round"
        stroke-linejoin="round" />
    <path d="M83.3052 119.822L82.7471 119.861" stroke="#F9FAFB" stroke-width="1.51435" stroke-linecap="round"
        stroke-linejoin="round" />
    <path
        d="M67.9737 56.671C67.5444 55.8421 67.2006 54.9718 66.9476 54.0735C67.5885 54.1745 68.2388 54.2035 68.8863 54.1598L68.8773 54.2885C68.866 54.4486 68.8495 54.6755 68.829 54.943C68.7888 55.4665 68.7331 56.1448 68.67 56.7806C68.6257 56.8166 68.5752 56.8444 68.5208 56.8625C68.4543 56.8846 68.3837 56.8918 68.3142 56.8833C68.2446 56.8749 68.1777 56.8512 68.1184 56.8138C68.0604 56.7772 68.0111 56.7285 67.9737 56.671Z"
        fill="#D0D5DD" stroke="#F9FAFB" stroke-width="0.216336" />
    <path
        d="M68.783 37.8054C66.5863 39.3461 66.3953 42.7953 66.2526 45.3713C66.2471 45.4709 66.2416 45.5693 66.2362 45.6662C66.2042 46.2248 66.1815 46.7872 66.1663 47.3498C66.2027 47.3209 66.2396 47.2926 66.2769 47.2649M68.783 37.8054L69.4531 48.6905C69.0357 47.9919 68.6593 47.2696 68.326 46.5272C67.5771 46.6386 66.8703 46.9408 66.2731 47.4036C66.2743 47.3573 66.2755 47.3111 66.2769 47.2649M68.783 37.8054C68.7865 37.8093 68.79 37.8132 68.7935 37.817L68.8733 37.744L68.8136 37.6537C68.81 37.6561 68.8065 37.6585 68.8029 37.6608C68.7915 37.6462 68.7803 37.6314 68.7694 37.6163M68.783 37.8054L73.3579 32.3507M66.2769 47.2649C66.8736 46.8207 67.5719 46.53 68.31 46.4202L68.3911 46.4081L68.4246 46.4829C68.7561 47.2211 69.1303 47.9393 69.5453 48.634L75.4556 36.4065C75.9746 35.8224 76.4704 35.3356 77.0462 34.9966C77.6247 34.656 78.2788 34.4675 79.1105 34.4708C79.2925 34.4708 79.4724 34.4735 79.6503 34.4762C80.7136 34.4922 81.703 34.5071 82.6273 33.9353L82.6276 33.9351C82.8353 33.8076 82.8817 33.6138 82.8288 33.443C82.7742 33.2668 82.6123 33.1129 82.3905 33.0855L82.3913 33.0856L82.4029 32.9781L82.3898 33.0854L77.6038 32.5686L77.6037 32.5686C77.4232 32.549 77.243 32.5283 77.0629 32.5076C75.8236 32.3652 74.5961 32.2242 73.3782 32.4569M66.2769 47.2649C66.292 46.7325 66.3139 46.2007 66.3441 45.6723L66.3441 45.6723C66.3496 45.5758 66.355 45.4779 66.3605 45.3788C66.4302 44.1215 66.5108 42.6678 66.8276 41.3292C67.1695 39.8849 67.7821 38.5951 68.9329 37.8342L69.0386 37.7643L68.9531 37.6709C68.9194 37.6341 68.8878 37.5954 68.8586 37.555M68.8586 37.555C68.6383 37.2181 68.5484 36.8123 68.6061 36.4138L68.6062 36.4138L68.6066 36.4093C68.7126 35.3643 69.422 34.4681 70.358 33.7828C71.2925 33.0985 72.4371 32.6369 73.3782 32.4569M68.8586 37.555C68.8581 37.5543 68.8577 37.5537 68.8572 37.5531L68.7694 37.6163M68.8586 37.555C68.859 37.5557 68.8594 37.5563 68.8599 37.557L68.7694 37.6163M73.3782 32.4569L73.3579 32.3507M73.3782 32.4569C73.3782 32.4569 73.3782 32.4569 73.3782 32.4569L73.3579 32.3507M73.3579 32.3507C71.4455 32.7163 68.7197 34.222 68.499 36.3983C68.4375 36.8237 68.5337 37.2569 68.7694 37.6163"
        fill="#BCAEFB" stroke="#BCAEFB" stroke-width="0.216336" />
    <path d="M118.494 83.103V80.3361" stroke="#F9FAFB" stroke-width="1.51435" stroke-linecap="round"
        stroke-linejoin="round" />
    <path
        d="M29.459 61.4824C29.1392 61.4575 28.8183 61.5127 28.5251 61.643C28.232 61.7733 27.976 61.9746 27.7803 62.2288"
        stroke="#F9FAFB" stroke-width="1.51435" stroke-linecap="round" stroke-linejoin="round" />
</svg>