<svg width="230" height="238" viewBox="0 0 230 238" fill="none" xmlns="http://www.w3.org/2000/svg">
    <path
        d="M222.653 82.2522C219.27 74.0598 214.738 66.391 209.193 59.4766C203.706 52.6473 193.001 44.0185 184.201 43.0863C175.514 42.1746 163.433 42.9839 155.467 51.3259C151.65 42.4786 147.285 33.8776 142.399 25.5727C134.426 12.0712 121.72 3.07366 102.489 0.536583C93.4026 -0.658539 73.1573 2.58536 62.3533 9.19951C51.5494 15.8137 49.9787 29.0727 52.3963 34.3824C45.9631 33.4776 39.3046 35.8439 34.3602 40.2385C31.2154 43.0107 28.9814 46.6681 27.9509 50.7317C27.408 52.9307 27.3943 55.2288 27.565 57.4756C27.7358 59.7224 28.3129 62.3756 27.5275 64.6019C26.8446 66.5312 24.9733 67.7605 23.3958 68.901C21.4052 70.2923 19.5508 71.869 17.8572 73.6098C14.7124 76.9493 8.74017 84.7756 6.9748 88.9927C3.2187 97.9117 2.46407 104.546 1.24846 114.111C-0.08666 124.604 -0.294954 134.561 1.82895 145.02C3.53627 153.406 7.22407 161.25 12.2368 168.168C12.5782 168.011 12.9197 167.86 13.2987 167.724C15.269 166.973 17.1709 166.225 20.0972 166.402C17.707 160.656 15.3475 155.694 16.406 149.23C17.3894 143.224 20.4285 136.347 28.0158 136.005L29.0129 135.917C30.7577 122.722 32.5675 108.996 35.7124 95.6922C37.8021 86.8688 39.9476 78.0511 42.149 69.239C42.7329 66.8966 45.6968 52.7532 48.869 54.8122C51.7714 56.7005 47.025 71.0761 46.5402 74.0263C47.1377 71.998 52.6865 49.3078 56.7124 51.7493C59.0241 53.1493 58.3343 59.9444 57.2929 65.9917C59.5158 56.7415 63.5348 44.6707 67.728 48.758C70.0909 51.0595 67.3387 59.3093 66.7036 61.9829C65.8055 65.739 64.747 69.4473 63.569 73.0976C67.3899 66.4459 74.9499 62.7341 81.8065 69.6829C83.4729 71.3698 87.5807 78.7146 85.8392 81.2244C83.1416 85.1137 80.3553 79.0015 77.6441 76.6044C74.2875 73.6473 69.7358 77.5468 68.0831 80.8693C66.2221 84.6254 65.8329 92.3868 67.1236 96.399C69.0665 102.446 75.4929 102.627 79.0202 97.9424C80.1299 96.4673 80.2358 94.2785 81.909 93.5034C83.8348 92.6259 85.9724 93.1244 86.7919 95.3712C88.3797 99.7181 84.3777 105.506 80.0309 109.098C75.6841 112.69 65.1772 113.64 59.9563 110.088C59.4372 117.846 59.5055 125.591 59.2187 133.308L59.9699 133.243C64.467 133.851 67.2192 138.023 66.3485 143.64C65.6655 148.059 64.7675 153.963 62.5924 158.183C64.2655 156.346 67.4514 155.472 69.1007 157.183C73.1094 161.339 67.1099 172.986 65.3821 176.988C65.6792 176.493 66.649 176.001 67.0894 175.554C76.0733 182.837 67.185 200.033 65.3241 208.676C67.8987 204.158 70.4221 204.838 72.3377 206.719C73.9665 208.314 75.8002 211.356 76.2646 213.548C76.3841 214.105 76.5138 214.696 76.647 215.297C78.788 211.179 81.7382 206.78 84.9719 203.817C89.0694 200.06 94.5329 197.329 99.7846 202.225C101.021 197.67 104.507 192.074 105.801 190.329C108.04 187.3 110.749 184.648 113.826 182.475L113.945 182.502C113.822 173.587 113.549 162.943 113.19 153.707C112.737 153.718 112.284 153.658 111.848 153.529C108.068 151.139 105.702 147.666 104.217 143.74C101.127 143.398 98.3299 142.391 96.7524 139.454C93.5938 133.543 97.2441 130.634 102.025 129.32C102.025 129.159 102.025 128.978 102.025 128.831C102.042 124.529 102.687 119.916 105.542 116.511C107.316 114.329 109.871 112.924 112.665 112.595C112.54 111.486 112.703 110.364 113.139 109.337C113.574 108.31 114.267 107.413 115.15 106.732C117.609 104.751 121.027 104.232 124.09 104.092C131.694 103.751 139.179 106.554 146.787 105.458C148.269 105.246 149.218 107.073 147.839 107.954C146.323 108.924 144.764 109.815 143.164 110.628C149.242 112.089 155.201 114.268 160.579 115.825C165.25 117.174 169.303 118.69 176.149 121.63C171.471 124.136 150.731 130.559 150.731 130.559C150.731 130.559 152.162 144.576 152.725 149.971C153.285 155.305 154.941 170.93 155.836 179.337C162.829 180.88 171.861 184.534 179.284 188.557C186.323 192.495 193.134 196.828 199.683 201.536C200.523 200.511 201.346 199.487 202.148 198.401C215.003 181.209 223.771 161.316 227.789 140.229C231.408 120.875 230.241 100.544 222.653 82.2522ZM161.951 74.3541C155.631 76.4029 150.844 77.8097 144.366 79.3054C135.771 81.2858 127.46 83.2834 118.756 84.7688C110.974 86.0971 102.134 87.5961 94.3416 88.5249C90.4797 88.9859 81.366 91.2566 81.366 88.8663C81.868 84.3761 101.854 80.3298 101.854 80.3298C101.854 80.3298 98.8729 68.8668 97.9304 64.5063C96.486 57.8102 94.666 50.24 95.8816 43.281C96.9573 37.1346 103.124 33.1463 109.373 34.5805C110.913 34.9219 112.504 35.82 114.003 36.9707C115.977 34.5293 118.818 32.1902 122 32.238C128.761 32.3507 132.811 41.7239 135.539 46.8424C139.657 54.5732 141.58 63.3863 144.885 71.0863C144.885 71.0863 154.634 69.6829 160.08 68.6961C163.153 68.1395 172.465 65.3907 173.568 67.8424C174.671 70.2941 165.226 73.2956 161.951 74.3541Z"
        fill="#F4F6F9" />
    <path
        d="M4.87805 190.622C4.2839 185.21 3.46781 179.081 6.07317 174.061C7.67122 170.988 9.88732 169.001 13.2985 167.707C15.2688 166.956 17.1707 166.208 20.0971 166.385C17.7068 160.639 15.3473 155.677 16.4059 149.213C17.3893 143.207 20.4283 136.33 28.0156 135.988"
        stroke="#FCFAFF" stroke-width="3.57217" stroke-linecap="round" stroke-linejoin="round" />
    <path
        d="M59.939 133.212C64.436 133.82 67.1882 137.993 66.3175 143.61C65.5424 148.626 64.4907 155.561 61.6121 159.768C62.4624 156.951 66.9902 154.987 69.0731 157.152C73.0819 161.308 67.0824 172.955 65.3546 176.957C65.6516 176.462 66.6214 175.97 67.0619 175.523C76.0458 182.806 67.1575 200.002 65.2965 208.645C67.8712 204.127 70.3946 204.807 72.3102 206.688C73.939 208.283 75.7726 211.325 76.237 213.518C76.8243 216.273 77.6712 219.715 77.9443 222.566C78.0638 223.785 77.6712 226.322 77.0668 227.466C76.196 229.092 74.3112 228.586 73.5019 227.176C72.136 224.786 74.5263 219.681 75.5507 217.427C77.7087 212.756 81.1302 207.276 84.9375 203.769C89.0351 200.013 94.4985 197.281 99.7502 202.178C100.986 197.622 104.473 192.026 105.767 190.281C108.006 187.252 110.715 184.601 113.791 182.427C124.902 185.159 133.78 186.293 139.244 186.03C145.337 185.638 151.143 183.298 155.805 179.354C162.805 180.891 171.854 184.551 179.291 188.591C186.728 192.63 200.765 201.522 211.122 210.427"
        stroke="#FCFAFF" stroke-width="3.57217" stroke-linecap="round" stroke-linejoin="round" />
    <path d="M190.634 213.5C183.62 213.579 177.317 213.859 170.488 215.549" stroke="#FCFAFF" stroke-width="3.57217"
        stroke-linecap="round" stroke-linejoin="round" />
    <path d="M179.707 211.11C181.005 214.06 181.073 223.403 181.073 223.403" stroke="#FCFAFF" stroke-width="3.57217"
        stroke-linecap="round" stroke-linejoin="round" />
    <path d="M183.122 210.086C185.331 212.606 185.171 216.693 185.171 219.988" stroke="#FCFAFF" stroke-width="3.57217"
        stroke-linecap="round" stroke-linejoin="round" />
    <path
        d="M140.098 202.232C138.267 207.013 135.385 215.208 137.643 219.988C139.691 224.321 144.253 223.01 146.927 227.139C148.573 229.682 148.819 232.749 149.317 235.696"
        stroke="#FCFAFF" stroke-width="3.57217" stroke-linecap="round" stroke-linejoin="round" />
    <path
        d="M112.098 190.622C115.871 195.341 122.628 202.673 128.829 202.744C135.317 202.816 137.509 196.786 141.464 192.466C143.717 195.983 146.749 201.457 151.707 199.166C156.116 197.138 158.926 189.67 158.878 185.166"
        stroke="#FCFAFF" stroke-width="3.57217" stroke-linecap="round" stroke-linejoin="round" />
    <path
        d="M113.805 182.427C113.764 169.65 113.416 156.763 112.729 143.893C107.29 143.586 99.7538 145.047 96.7318 139.406C92.1801 130.907 101.871 128.592 108.632 128.425C109.827 120.824 113.313 114.234 121.112 111.01C133.764 105.8 148.593 112.376 160.585 115.832C165.257 117.18 169.31 118.697 176.156 121.637C171.478 124.143 150.738 130.566 150.738 130.566C150.738 130.566 152.168 144.583 152.732 149.978L155.805 179.344"
        stroke="#FCFAFF" stroke-width="3.57217" stroke-linecap="round" stroke-linejoin="round" />
    <path d="M132.927 124.037L133.951 127.452" stroke="#FCFAFF" stroke-width="3.57217" stroke-linecap="round"
        stroke-linejoin="round" />
    <path d="M138.732 123.354L139.756 126.427" stroke="#FCFAFF" stroke-width="3.57217" stroke-linecap="round"
        stroke-linejoin="round" />
    <path d="M134.293 138.379C136.058 140.957 139.002 140.892 142.147 140.086" stroke="#FCFAFF" stroke-width="3.57217"
        stroke-linecap="round" stroke-linejoin="round" />
    <path d="M102.496 135.835C104.237 135.988 106.091 136.463 107.703 136.821" stroke="#FCFAFF" stroke-width="3.57217"
        stroke-linecap="round" stroke-linejoin="round" />
    <path
        d="M28.439 140.086C30.3716 125.625 32.2156 110.379 35.6951 95.6751C37.7848 86.8517 39.9304 78.034 42.1317 69.222C42.7156 66.8795 45.6795 52.7361 48.8516 54.7951C51.7541 56.6834 47.0077 71.059 46.5229 74.0093C47.1204 71.981 52.6692 49.2907 56.6951 51.7322C60.5877 54.0917 55.9643 71.7727 55.4931 75.3751C55.4931 73.002 61.4038 42.5946 67.7107 48.741C70.0736 51.0424 67.3214 59.2922 66.6863 61.9659C65.2127 68.0441 63.3885 74.032 61.2229 79.8995C62.6195 69.7615 72.8326 60.5624 81.8029 69.6556C83.4692 71.3424 87.577 78.6873 85.8356 81.1971C83.138 85.0863 80.3517 78.9742 77.6404 76.5771C74.2838 73.62 69.7321 77.5195 68.0795 80.842C66.2185 84.5981 65.8292 92.3595 67.1199 96.3717C69.0663 102.419 75.4892 102.6 79.0165 97.9151C80.1263 96.44 80.2321 94.2512 81.9053 93.4761C83.8312 92.5985 85.9687 93.0971 86.7882 95.3439C88.376 99.6907 84.3741 105.479 80.0273 109.071C75.6804 112.663 65.1736 113.612 59.9526 110.061C59.4234 117.98 59.5087 125.884 59.198 133.745C59.0887 136.541 58.9658 137.76 55.8346 138.433C52.1843 139.219 47.4414 139.949 43.4907 140.417C39.1643 140.933 29.716 140.82 28.439 140.086Z"
        stroke="#FCFAFF" stroke-width="3.57217" stroke-linecap="round" stroke-linejoin="round" />
    <path
        d="M31.1704 122.671C35.6094 123.286 39.707 122.603 44.146 122.33C49.7187 121.988 53.9699 120.558 59.5119 119.598"
        stroke="#FCFAFF" stroke-width="3.57217" stroke-linecap="round" stroke-linejoin="round" />
    <path
        d="M119.951 43.7932C117.786 40.0746 113.395 35.5059 109.366 34.5737C103.117 33.1395 96.9501 37.1141 95.8745 43.2741C94.6623 50.2332 96.4823 57.8034 97.9233 64.4995C98.8657 68.86 101.847 80.3229 101.847 80.3229C101.847 80.3229 81.8643 84.3693 81.3589 88.8595C81.3589 91.2498 90.4725 88.979 94.3345 88.5181C102.127 87.5893 110.967 86.0902 118.749 84.762C127.453 83.2766 135.764 81.279 144.359 79.2985C150.847 77.8029 155.627 76.3893 161.944 74.3473C165.219 73.2888 174.66 70.3078 173.554 67.8595C172.448 65.4112 163.126 68.1566 160.066 68.7132C154.603 69.7 144.871 71.1034 144.871 71.1034C141.566 63.3932 139.643 54.58 135.525 46.8595C132.794 41.7376 128.747 32.3678 121.986 32.2551C118.804 32.2005 115.963 34.5463 113.989 36.9878"
        stroke="#FCFAFF" stroke-width="3.57217" stroke-linecap="round" stroke-linejoin="round" />
    <path
        d="M104.196 143.692C105.668 147.619 108.048 151.091 111.828 153.481C111.997 153.587 112.188 153.651 112.386 153.669C112.584 153.687 112.784 153.658 112.968 153.584C112.968 150.354 112.904 147.123 112.729 143.893C110.124 143.746 107.037 144.002 104.196 143.692Z"
        fill="#9079F9" />
    <path
        d="M146.787 105.475C139.179 106.564 131.694 103.768 124.09 104.109C121.017 104.249 117.602 104.768 115.15 106.749C114.265 107.427 113.57 108.322 113.132 109.347C112.693 110.372 112.526 111.493 112.647 112.601C109.854 112.931 107.299 114.336 105.524 116.518C102.67 119.933 102.024 124.536 102.007 128.838C102.007 128.999 102.007 129.18 102.007 129.326C104.129 128.782 106.306 128.483 108.495 128.435C108.751 129.494 109.035 130.549 109.308 131.59C110.008 134.49 111.054 137.295 112.422 139.946C112.938 140.902 114.232 140.755 114.778 139.946C117.991 135.217 121.508 130.149 122.632 124.426C123.059 122.238 123.117 119.823 122.065 117.788C121.839 117.348 121.557 116.94 121.225 116.573C130.685 116.038 139.849 113.078 147.835 107.978C149.218 107.09 148.269 105.263 146.787 105.475Z"
        fill="#9079F9" />
    <path d="M134.122 63.8644C134.122 63.8644 138.872 63.2839 141.125 62.9902" stroke="#FCFAFF" stroke-width="3.57217"
        stroke-linecap="round" stroke-linejoin="round" />
    <path
        d="M101.341 76.4029C113.122 73.5073 125.244 70.7141 137.366 69.0615C139.035 68.8327 141.713 68.8907 143.171 68.0371"
        stroke="#FCFAFF" stroke-width="3.57217" stroke-linecap="round" stroke-linejoin="round" />
    <path
        d="M100.146 71.7932C103.326 70.0346 109.144 68.481 112.439 67.6956C116.38 66.7634 122.342 66.0224 127.822 64.9639"
        stroke="#FCFAFF" stroke-width="3.57217" stroke-linecap="round" stroke-linejoin="round" />
</svg>