<svg width="116" height="108" viewBox="0 0 116 108" fill="none" xmlns="http://www.w3.org/2000/svg">
    <path
        d="M24.3913 71.9156C25.2183 71.3641 26.2142 71.1243 27.2015 71.239C27.5392 71.2821 27.8736 71.3478 28.2025 71.4355C28.2025 71.4355 34.2139 65.6892 37.6357 63.2479C38.9518 62.3081 40.2142 61.8836 41.4543 61.878C43.0818 60.5008 45.5712 57.7815 47.0579 56.1113V55.9111C46.3516 52.619 44.8947 49.4548 43.3858 46.4575C42.5869 44.8633 39.5617 40.0994 43.1467 40.1124C44.4832 40.1124 46.3591 42.0142 47.4564 43.7381C46.2089 40.6388 45.3451 37.8231 44.0512 34.7034C43.4321 33.2112 41.306 26.9681 45.2135 27.0626H45.7696C45.6287 26.2025 45.8382 25.4314 46.9226 24.9921C49.071 24.1227 50.0293 26.2693 50.8746 27.4334L50.8857 27.4463C51.0933 24.638 54.669 25.9004 55.683 29.0942L55.6978 29.1628C56.0407 29.0275 56.4893 29.046 57.0584 29.3148C56.962 28.8755 56.3169 27.6947 56.1538 26.9681C55.7831 25.3387 56.0926 23.2886 58.0927 23.8447C61.8 24.8772 63.5388 32.3307 64.2654 35.3374C63.6537 31.2037 63.3386 29.9933 62.4748 27.3759C61.978 25.8689 60.1336 23.309 60.9344 21.6889C61.8612 19.8111 64.5416 21.1328 65.4758 22.1986C68.627 25.7614 68.8402 31.2816 69.6466 35.7025C69.621 32.934 69.3942 30.1709 68.9681 27.4352C68.5492 24.7066 67.5334 21.3422 68.8087 20.1503C71.0683 18.039 72.7978 21.3756 73.2871 23.2497C74.7589 28.8866 74.7145 35.6488 74.0972 41.5582C74.7627 40.4961 75.4633 39.4673 76.2085 38.4923C77.4727 36.8388 79.7638 32.7459 82.5109 33.6617C85.1543 34.5421 82.5109 38.6962 81.7954 40.37C80.5535 43.2655 79.5822 46.2573 78.3384 49.136C77.7285 50.5522 76.0139 53.3308 75.5746 55.3569C75.5746 55.3569 79.9603 61.233 82.1495 63.8837L82.231 63.9059C82.3515 63.6687 82.4572 63.4388 82.5425 63.2219C85.8791 65.9487 88.2406 68.8478 91.1527 71.6728C91.6235 72.1306 91.9943 72.4532 92.2649 72.7497C92.3928 72.5922 92.5188 72.4328 92.6356 72.2733C98.0112 65.3555 100.389 56.799 100.736 48.3222C100.892 43.8225 100.576 39.3188 99.7926 34.8851C99.1197 30.9479 98.0075 27.0719 96.165 23.4702C94.2628 19.7562 91.4694 16.5718 88.0349 14.202C84.5611 11.7922 80.4441 10.2277 76.2975 9.17854C67.5983 6.97639 57.7275 6.17746 49.0487 8.87454C40.837 11.4252 34.44 17.1585 29.6594 23.7891C20.5228 36.457 16.1389 53.8795 22.6155 68.4511C23.1426 69.6381 23.7354 70.7947 24.3913 71.9156Z"
        fill="#6CE9A6" />
    <path
        d="M74.034 83.1636C71.9338 80.8298 69.4925 77.9122 67.7519 75.241C67.9707 75.1743 68.1875 75.1039 68.4026 75.0316C67.3534 73.8026 61.5867 66.957 61.3012 64.9069C60.9527 65.2776 60.5968 65.6243 60.2631 65.982C57.2788 69.174 55.1378 71.9823 52.4111 75.4042L52.1497 75.558C51.9513 77.9196 50.2831 79.5119 48.5814 81.4897C46.9266 83.3557 45.173 85.1315 43.3281 86.8097C47.9085 87.6216 52.5964 87.5808 57.2306 87.1804C61.8647 86.7801 66.5452 86.2091 71.0848 85.2082C72.4102 84.9153 73.7318 84.5761 75.0368 84.1812C74.6383 83.8068 74.2935 83.4509 74.034 83.1636Z"
        fill="#6CE9A6" />
    <path
        d="M1 86.8449C1.5561 84.3888 4.38478 81.5657 6.40897 80.0383C7.232 79.4155 8.60185 78.3237 9.68809 78.8149C10.9968 79.4044 10.9041 81.9124 11.9125 82.841C12.2128 79.9938 14.5836 76.0307 16.6764 74.1288C18.0611 72.8721 19.7498 73.1631 21.1956 74.3031C23.1883 73.0871 24.5563 70.9239 27.1922 71.2408C29.4351 71.5115 31.7281 72.9332 33.3945 74.418C35.8655 76.6183 37.936 78.6017 39.3577 81.625C40.3736 83.7864 40.6034 86.109 41.1169 88.5244C41.8064 91.7627 40.444 93.6701 36.9888 93.646C36.9647 94.862 36.0045 96.5396 35.3205 97.5387C34.2416 99.1087 33.0609 99.0031 31.7503 99.9596C30.8346 100.629 30.3397 101.785 29.6631 102.658C28.6121 104.014 27.4276 105.204 26.549 106.659"
        stroke="#F9FAFB" stroke-width="1.29756" stroke-linecap="round" stroke-linejoin="round" />
    <path d="M34.5513 91.2808C34.7203 90.946 34.957 90.6499 35.2464 90.4114" stroke="#F9FAFB" stroke-width="1.29756"
        stroke-linecap="round" stroke-linejoin="round" />
    <path
        d="M28.2007 71.4355C28.2007 71.4355 34.2121 65.6892 37.6339 63.2479C40.876 60.9327 43.7862 61.739 46.8781 64.2526C49.8662 66.6827 51.5475 70.3863 52.0999 74.1678C52.5652 77.345 50.5984 79.1486 48.5779 81.4916C47.032 83.2878 42.7649 87.6087 41.1225 88.5355"
        stroke="#F9FAFB" stroke-width="1.29756" stroke-linecap="round" stroke-linejoin="round" />
    <path
        d="M8.5388 44.7317C10.0217 48.3148 10.1255 49.87 7.26904 52.074C10.0495 49.4678 12.2016 50.3928 14.1609 53.0732C12.5019 50.8914 12.285 50.3464 12.5538 48.8097C12.7003 47.9793 14.0497 46.5483 14.8375 45.9922C13.3046 47.0469 10.3925 48.5002 8.5388 44.7317Z"
        stroke="#F9FAFB" stroke-width="1.29756" stroke-linecap="round" stroke-linejoin="round" />
    <path d="M41.4521 61.878C43.9008 59.8075 48.3014 54.6933 48.3014 54.6933" stroke="#F9FAFB" stroke-width="1.29756"
        stroke-linecap="round" stroke-linejoin="round" />
    <path
        d="M52.4111 75.4042C55.1379 71.9823 57.2788 69.1741 60.2632 65.9821C61.3217 64.8495 62.5988 63.7224 63.2291 62.4026C63.9298 60.9197 64.0076 58.0818 64.0076 56.4339C64.0076 49.9831 63.4107 42.8873 61.1437 36.7851C60.5005 35.0575 58.873 30.1564 57.0657 29.3056C55.3028 28.4751 54.6837 30.0192 54.8876 31.2538C55.4437 34.6015 56.2686 38.0104 56.6189 40.9595"
        stroke="#F9FAFB" stroke-width="1.29756" stroke-linecap="round" stroke-linejoin="round" />
    <path d="M26.7195 23.9355L22.2021 23.4147" stroke="#F9FAFB" stroke-width="1.29756" stroke-linecap="round"
        stroke-linejoin="round" />
    <path d="M31.4536 13.8572L28.8047 12.1184" stroke="#F9FAFB" stroke-width="1.29756" stroke-linecap="round"
        stroke-linejoin="round" />
    <path
        d="M55.6828 29.0924C54.5094 25.3851 49.8919 24.2729 51.0597 29.0924C51.4842 30.8404 51.6047 33.3095 52.0403 35.0927C52.4426 36.735 52.9671 39.738 52.9671 39.738"
        stroke="#F9FAFB" stroke-width="1.29756" stroke-linecap="round" stroke-linejoin="round" />
    <path d="M57.8257 64.4268C58.3484 64.4898 59.266 63.9059 59.266 63.9059" stroke="#F9FAFB" stroke-width="1.29756"
        stroke-linecap="round" stroke-linejoin="round" />
    <path
        d="M50.8743 27.4315C50.0291 26.2674 49.0707 24.1209 46.9223 24.9902C44.9482 25.7892 45.8713 27.6873 46.5386 29.2221C47.8251 32.188 49.6268 39.2949 49.6268 39.2949"
        stroke="#F9FAFB" stroke-width="1.29756" stroke-linecap="round" stroke-linejoin="round" />
    <path d="M67.0366 63.9059C67.4908 63.4444 68.071 63.2405 68.6011 63.3851" stroke="#F9FAFB" stroke-width="1.29756"
        stroke-linecap="round" stroke-linejoin="round" />
    <path
        d="M45.2099 27.0608C41.3024 26.9662 43.4286 33.2094 44.0477 34.7015C45.3452 37.8213 46.2053 40.6333 47.4529 43.7363C47.8069 44.6149 48.6095 46.7207 48.6095 46.7207"
        stroke="#F9FAFB" stroke-width="1.29756" stroke-linecap="round" stroke-linejoin="round" />
    <path
        d="M72.7607 43.8049C73.7859 41.9553 74.938 40.179 76.2085 38.4886C77.4727 36.8351 79.7639 32.7422 82.511 33.6579C85.1543 34.5384 82.511 38.6925 81.7955 40.3663C80.5535 43.2617 79.5822 46.2535 78.3384 49.1323C77.5561 50.9452 74.9629 54.9973 75.5579 56.8361"
        stroke="#F9FAFB" stroke-width="1.29756" stroke-linecap="round" stroke-linejoin="round" />
    <path
        d="M47.0522 55.9111C46.3459 52.619 44.889 49.4548 43.3801 46.4575C42.5812 44.8633 39.556 40.0994 43.141 40.1124C44.4774 40.1124 46.3534 42.0143 47.4507 43.7382"
        stroke="#F9FAFB" stroke-width="1.29756" stroke-linecap="round" stroke-linejoin="round" />
    <path
        d="M74.0973 41.5583C74.7145 35.6488 74.759 28.8866 73.2872 23.2497C72.7978 21.3756 71.0628 18.039 68.8088 20.1466C67.5335 21.3386 68.5493 24.7029 68.9682 27.4315C69.3943 30.1672 69.6211 32.9303 69.6466 35.6988C68.8403 31.2742 68.6253 25.7577 65.4759 22.1949C64.5491 21.1347 61.8613 19.8074 60.9344 21.6852C60.1336 23.3053 61.978 25.8652 62.4748 27.3722C63.3386 29.9896 63.6537 31.2 64.2655 35.3337C63.5388 32.3289 61.8075 24.8753 58.0928 23.841C56.0927 23.2849 55.785 25.335 56.1538 26.9644C56.317 27.691 56.962 28.8718 57.0584 29.3111"
        stroke="#F9FAFB" stroke-width="1.29756" stroke-linecap="round" stroke-linejoin="round" />
    <path d="M75.5669 55.3587C75.5669 55.3587 79.973 61.2589 82.1548 63.9059" stroke="#F9FAFB" stroke-width="1.29756"
        stroke-linecap="round" stroke-linejoin="round" />
    <path d="M61.3013 64.9051C61.6145 67.161 68.3804 75.0372 68.3804 75.0372" stroke="#F9FAFB" stroke-width="1.29756"
        stroke-linecap="round" stroke-linejoin="round" />
    <path
        d="M75.8061 71.0981C73.2814 72.8443 70.6159 74.3809 67.752 75.241C69.4925 77.9122 71.9338 80.8298 74.034 83.1636C74.9608 84.1868 76.9517 86.0701 78.3326 86.3259C79.8971 86.6188 81.9899 85.4806 83.1781 84.6465C85.814 82.7928 87.5898 81.1524 89.9143 78.9002C90.8875 77.9566 92.2536 76.1567 92.6114 74.8221C93.047 73.2076 92.4983 72.987 91.1451 71.6709C88.233 68.8459 85.8696 65.9468 82.5349 63.2201C81.634 65.4926 78.7905 69.0331 75.8061 71.0981Z"
        stroke="#F9FAFB" stroke-width="1.29756" stroke-linecap="round" stroke-linejoin="round" />
    <path
        d="M78.3328 86.326C77.8027 88.2352 78.2346 89.9906 78.8611 91.3197C79.5525 92.7878 81.4562 93.596 81.966 95.0993C82.4201 96.4469 82.0383 97.8798 83.0133 99.1347C83.664 99.9707 87.0283 102.052 88.0645 102.138"
        stroke="#F9FAFB" stroke-width="1.29756" stroke-linecap="round" stroke-linejoin="round" />
    <path
        d="M92.7559 73.8342C99.1195 74.5144 103.733 80.3479 107.092 85.2582C107.048 83.4806 108.796 82.8707 110.158 82.9857C113.085 83.2341 113.393 85.8347 115 87.6791"
        stroke="#F9FAFB" stroke-width="1.29756" stroke-linecap="round" stroke-linejoin="round" />
    <path
        d="M105.789 46.7021C105.563 48.0312 104.213 50.3483 103.194 51.3048C101.967 52.4503 99.6387 52.4948 98.0278 52.6023C103.127 52.6023 102.091 55.6257 101.798 59.5017C102.397 56.4264 102.614 55.3847 103.528 54.3355C104.725 52.962 106.421 53.3549 107.819 52.7673C105.893 52.7988 104.657 53.062 104.579 50.9507C104.516 49.427 105.307 48.1777 105.789 46.7021Z"
        stroke="#F9FAFB" stroke-width="1.29756" stroke-linecap="round" stroke-linejoin="round" />
    <path d="M95.1509 19.8074L98.1427 17.5052" stroke="#F9FAFB" stroke-width="1.29756" stroke-linecap="round"
        stroke-linejoin="round" />
    <path d="M93.1045 13.8572L95.5365 11.0767" stroke="#F9FAFB" stroke-width="1.29756" stroke-linecap="round"
        stroke-linejoin="round" />
    <path d="M66.167 3.77697L66.8621 1.34497" stroke="#F9FAFB" stroke-width="1.29756" stroke-linecap="round"
        stroke-linejoin="round" />
    <path d="M50.528 7.47316L49.4844 4.50731" stroke="#F9FAFB" stroke-width="1.29756" stroke-linecap="round"
        stroke-linejoin="round" />
</svg>