<svg width="166" height="149" viewBox="0 0 166 149" fill="none" xmlns="http://www.w3.org/2000/svg">
    <path
        d="M12.7196 77.289C10.3587 60.4939 8.15384 34.0787 27.2955 25.5714C27.6363 25.4194 27.9729 25.288 28.3055 25.171C28.3216 25.0427 28.3498 24.9163 28.3897 24.7933C28.2932 24.6537 28.1844 24.5141 28.1023 24.3724C26.9485 22.6172 25.9672 20.0366 27.7184 18.3122L27.741 18.2937C26.6611 15.5509 28.0325 13.5391 30.7362 13.2722C33.6206 12.9848 35.7782 12.7631 37.5109 11.2665C37.9215 10.9175 38.4204 11.2665 38.3485 11.7551C38.2539 12.454 37.915 13.0968 37.3918 13.5699C40.7176 13.4631 44.1891 14.2186 47.2275 14.8016C49.2804 15.1937 51.5694 16.136 53.9919 17.1646C52.0437 18.4928 47.4841 21.0138 47.4841 21.0138C47.4841 21.0138 49.4426 24.5182 50.7688 27.0495C51.9924 29.4518 53.0421 31.9388 53.9098 34.4914L53.9262 34.5242C54.6489 34.1629 55.5275 34.3579 56.4267 35.6041C56.7203 36.0147 56.9091 36.8502 56.8742 37.657C58.5659 37.6837 59.7484 39.209 61.3763 40.1205C63.2445 41.1778 64.62 42.0483 66.25 43.5223C67.9642 45.0743 69.042 47.2176 70.0972 49.2315C70.7337 50.4448 70.8486 50.6542 72.1317 51.0586C73.8788 51.6129 75.1126 51.7422 75.5889 52.779C76.0651 53.8157 75.9994 54.8833 75.9994 55.573C75.9994 55.573 77.301 55.3965 78.2064 55.9836C79.2944 56.7001 79.2841 57.5439 78.8222 59.1164C79.7563 57.8846 81.4911 57.1086 82.9076 56.62C84.6793 56.0042 87.1141 55.5484 89.0192 55.9446C89.8894 56.164 90.7023 56.568 91.4027 57.1292C91.9857 56.6324 93.9771 55.417 95.6789 55.0413C97.3808 54.6656 99.9532 54.0149 100.774 55.92L105.221 56.7412C105.241 56.8614 105.254 56.9827 105.258 57.1045C107.82 55.5156 111.333 55.8379 113.94 56.0781C116.087 49.7612 115.656 42.6436 113.264 36.22C109.559 26.2796 103.41 19.1805 93.6876 12.219C83.9649 5.2575 69.1714 0.262695 60.432 0.262695C51.6926 0.262695 34.7169 1.00381 29.2273 2.37722C24.0395 3.66442 19.2644 6.01093 15.2139 9.50093C11.5925 12.6317 8.6445 16.5877 6.45401 20.827C1.2498 30.8864 0.235648 42.426 0.510742 53.5735C0.64829 59.1041 1.06298 64.6162 3.94531 69.4797C6.20355 73.2961 9.47388 76.3488 12.9783 79.0279C12.8756 78.3915 12.7894 77.8023 12.7196 77.289Z"
        fill="#F4F6F9" />
    <path d="M78.9805 83.0925C78.9805 83.1848 78.9907 83.2793 78.9948 83.3778L79.7606 83.0186L78.9805 83.0925Z"
        fill="#F4F6F9" />
    <path
        d="M122.078 115.036C123.9 117.338 125.563 119.762 127.057 122.289C128.541 124.792 135.129 134.155 135.129 134.155"
        stroke="#FCFCFD" stroke-width="1.43706" stroke-linecap="round" stroke-linejoin="round" />
    <path
        d="M37.3205 118.704C37.3205 118.704 30.8496 127.48 28.4928 130.519C26.056 133.666 23.5904 136.768 21.2624 139.981C20.0019 141.72 16.1074 146.345 15.5449 147.02"
        stroke="#FCFCFD" stroke-width="1.43706" stroke-linecap="round" stroke-linejoin="round" />
    <path
        d="M57.5438 116.767C57.5438 116.767 52.2349 123.814 50.4776 126.502C48.7203 129.189 46.4312 131.503 44.676 134.192C43.5838 135.877 38.6567 142.18 38.6567 142.18"
        stroke="#FCFCFD" stroke-width="1.43706" stroke-linecap="round" stroke-linejoin="round" />
    <path
        d="M77.8125 115.241C77.8125 115.241 81.2019 119.347 82.4829 121.269C85.0224 125.083 87.8206 128.561 90.2348 132.494C93.1377 137.249 96.3444 142.683 99.4854 147.049"
        stroke="#FCFCFD" stroke-width="1.43706" stroke-linecap="round" stroke-linejoin="round" />
    <path
        d="M98.6848 99.807C98.1921 97.5488 97.6357 95.307 97.3442 93.0036C97.2071 92.0848 97.1836 91.1526 97.2744 90.228C96.9254 91.3017 96.4655 92.166 95.8887 92.0654C95.4288 91.9833 94.8499 90.9835 94.4167 89.7107C94.3148 89.9293 94.1888 90.1359 94.041 90.3266C92.994 91.5748 87.3751 91.3099 87.3751 91.3099L86.246 87.6495C85.5767 88.0601 84.6878 88.0047 84.4415 87.0439C84.3571 87.2195 84.2299 87.3711 84.0718 87.4848C83.9136 87.5984 83.7294 87.6706 83.5361 87.6947C82.3865 87.8815 81.5468 86.7216 81.5468 86.1735C81.4392 86.3191 81.3016 86.4399 81.1433 86.5277C80.985 86.6155 80.8096 86.6684 80.6291 86.6826C78.9663 86.8242 79.0361 85.2455 79.0012 83.5046C78.9663 81.7637 78.4674 80.9775 77.985 79.7683C75.1847 80.5135 73.7395 78.1075 74.846 75.297C73.099 75.297 71.0994 75.5639 70.1242 74.7345C70.0544 74.9028 69.9908 75.0712 69.9333 75.2436C69.9333 75.2436 62.6146 75.7609 59.0343 75.7199C55.2794 75.6788 50.0013 75.7609 46.2506 75.8041C43.282 75.8369 40.5783 76.6047 37.6837 77.0153C35.9695 77.2575 33.7831 77.3355 33.0995 75.5146C32.3111 73.4329 32.6416 69.8957 32.6437 67.6498C32.6437 61.8543 32.7217 55.8105 32.1469 50.0499C31.9744 48.3172 31.416 44.6897 32.1469 42.9632C32.9414 41.1032 34.7439 40.3374 36.0701 39.9679L36.6038 37.0117C36.7106 36.9871 36.8214 36.9583 36.9343 36.9255C36.3903 35.1456 35.4973 32.5712 34.8075 31.0725C34.3682 30.1302 33.9268 28.5146 33.1836 27.6482C33.3852 27.9985 33.5483 28.3695 33.6702 28.7548C33.6917 28.8399 33.6907 28.9291 33.6674 29.0137C33.6441 29.0984 33.5992 29.1755 33.5371 29.2376C33.475 29.2997 33.3979 29.3446 33.3133 29.3679C33.2286 29.3912 33.1394 29.3922 33.0543 29.3706C32.114 29.0689 31.3873 28.4838 30.7324 27.7817C29.2194 27.6462 28.1437 26.4226 28.3038 25.1621C27.9712 25.2791 27.6325 25.4126 27.2917 25.5727C8.15622 34.0801 10.3611 60.4953 12.7158 77.2904C13.3029 81.464 14.7113 90.6653 14.7113 90.6653C13.6088 91.856 13.1695 94.3134 13.1695 96.3088C13.1695 99.0331 13.6478 102.981 14.8406 107.686C16.0334 112.392 17.7373 115.436 19.7533 118.025C21.7693 120.614 26.1872 122.008 28.6405 122.067C38.9298 122.315 48.8373 120.219 59.024 119.232C69.3051 118.228 79.6602 118.793 89.9536 117.826C93.1767 117.522 99.1343 117.583 103.062 116.452C102.871 115.785 102.692 115.151 102.53 114.566C101.175 109.667 99.7687 104.781 98.6848 99.807Z"
        fill="#FEC84B" stroke="#FEC84B" stroke-width="1.43706" stroke-linecap="round" stroke-linejoin="round" />
    <path
        d="M125.517 79.7128C124.646 73.6587 123.139 67.2022 117.426 64.0017C116.905 63.7081 116.367 63.4412 115.819 63.1805C115.181 63.2003 114.548 63.0687 113.971 62.7966C112.791 62.2813 111.302 61.5915 109.545 61.4068C107.882 61.2406 106.211 61.1679 104.54 61.1891C104.347 61.534 104.129 61.4334 103.134 61.612C101.386 61.922 99.3869 61.9446 97.6481 62.2279C93.5237 62.9033 88.9662 62.9198 84.9773 63.9401C83.5608 64.3035 78.7589 65.1842 78.7589 65.1842H78.7056C79.2332 66.5535 78.9827 68.3991 79.4939 69.9059L79.4241 70.0004C79.6294 70.1133 79.8347 70.2262 80.0236 70.3453L80.1262 70.2693C82.5795 69.2428 84.7186 68.0726 87.3854 67.1611C90.6167 66.0567 95.0839 65.3135 98.1305 67.504C98.5678 67.8181 100.438 69.1669 102.826 70.9529C104.583 71.0186 106.256 71.6797 107.763 72.431C110.14 73.6156 111.489 76.034 112.472 78.5755L112.799 78.8588C114.882 80.6818 119.894 84.6543 125.396 89.0044C126.011 85.9579 125.954 82.7573 125.517 79.7128Z"
        fill="#FEC84B" stroke="#FEC84B" stroke-width="1.43706" stroke-linecap="round" stroke-linejoin="round" />
    <path
        d="M88.3152 108.074C89.3766 106.28 91.2592 100.745 90.6638 98.6899C90.0951 96.7334 88.3542 96.2715 87.1368 97.8153C87.5864 94.4546 87.8554 91.3301 86.1802 88.0967"
        stroke="#FCFCFD" stroke-width="1.43706" stroke-linecap="round" stroke-linejoin="round" />
    <path
        d="M34.4526 76.876C30.7306 77.1449 29.0574 79.0131 28.2568 80.017C27.1728 81.376 26.2039 83.507 26.7623 85.8124C25.4525 84.5006 24.036 84.9173 22.989 86.0383C21.8455 87.2598 21.0387 90.1216 20.8662 91.8563"
        stroke="#FCFCFD" stroke-width="1.43706" stroke-linecap="round" stroke-linejoin="round" />
    <path
        d="M21.9175 40.2082C23.1698 39.5164 24.7033 38.5659 26.2923 40.0625C27.1135 40.8364 27.9839 43.9343 27.9593 45.1599C27.8998 43.2343 30.8827 42.214 31.7778 44.2074"
        stroke="#FCFCFD" stroke-width="1.43706" stroke-linecap="round" stroke-linejoin="round" />
    <path
        d="M46.5176 51.3945C47.891 53.353 48.5213 56.1799 48.899 58.5429C49.3281 61.2384 48.8271 62.2197 47.6672 64.5518C48.474 62.854 49.4677 62.0883 50.6666 62.7822C51.9312 63.1928 50.5352 64.9337 48.6999 66.2722C50.4141 64.8906 52.2083 63.6629 54.5384 63.7738C56.579 63.8723 58.5068 64.3732 60.5535 64.2706C62.4566 64.1761 64.0559 63.4207 65.9076 63.4391C68.4327 63.4658 70.2188 64.5395 71.5409 65.7877C67.3159 65.4736 64.2139 71.3655 64.5239 75.572"
        stroke="#FCFCFD" stroke-width="1.43706" stroke-linecap="round" stroke-linejoin="round" />
    <path
        d="M36.0744 39.9697C34.7482 40.3393 32.9457 41.105 32.1512 42.965C31.4122 44.6915 31.9706 48.319 32.1512 50.0517C32.7261 55.8123 32.6542 61.8561 32.648 67.6516C32.648 69.8975 32.3155 73.4347 33.1038 75.5164C33.7956 77.3374 35.9779 77.2594 37.688 77.0171C40.5827 76.6065 43.2864 75.8387 46.2549 75.8059C50.0139 75.7628 55.2879 75.6806 59.0386 75.7217C62.6189 75.7628 69.9377 75.2454 69.9377 75.2454C70.9354 72.283 73.7397 69.6409 77.3118 68.7581C75.8152 67.6352 73.3455 66.1981 71.5533 65.7814"
        stroke="#FCFCFD" stroke-width="1.43706" stroke-linecap="round" stroke-linejoin="round" />
    <path
        d="M49.1905 35.9272C47.0246 34.1493 40.2622 36.19 36.6039 37.0111L36.0742 39.9633C38.6876 39.9633 41.1286 41.1417 43.6845 40.5935C46.9692 39.8873 46.2034 35.8882 48.6731 35.765C50.1102 35.6932 52.4238 40.6182 53.1896 42.2071C52.2658 39.9633 51.6663 37.4464 52.6928 36.6929C53.7192 35.9395 54.5589 39.7272 55.7722 39.5178C57.2092 39.2694 57.0553 36.4569 56.4353 35.5987C54.3823 32.7472 52.43 35.3934 52.1939 37.6517"
        stroke="#FCFCFD" stroke-width="1.43706" stroke-linecap="round" stroke-linejoin="round" />
    <path
        d="M53.1836 42.2139C54.5406 44.5686 53.4505 46.5928 55.0826 48.3152C56.0064 49.2904 57.6118 48.9496 58.4186 49.1877C59.8926 49.625 61.034 51.2899 61.3543 52.6777C61.6848 54.1148 61.4836 55.0037 62.233 55.9029C62.6682 56.4243 63.4524 56.7836 64.0642 57.4446C64.8854 58.3377 65.7989 60.2674 65.6552 63.2688"
        stroke="#FCFCFD" stroke-width="1.43706" stroke-linecap="round" stroke-linejoin="round" />
    <path
        d="M61.8979 44.207C64.6332 46.8885 67.0977 49.833 69.2557 52.9977C70.3602 54.6175 70.43 56.3153 71.2943 57.9248C71.9882 59.2161 73.1583 59.3988 74.2361 60.2939C74.8992 60.8441 75.2154 61.6345 75.7327 62.2627C76.4205 63.0941 77.2314 63.4267 78.0074 64.1431C79.4342 65.4652 78.8286 67.9719 79.4855 69.9099"
        stroke="#FCFCFD" stroke-width="1.43706" stroke-linecap="round" stroke-linejoin="round" />
    <path
        d="M76.6851 68.9326C80.2305 69.7682 83.1005 71.8067 84.5417 74.7363C86.184 78.0949 86.7814 80.6446 87.0873 84.3625C87.1551 85.1981 87.2474 86.3785 86.802 87.1011C86.2353 88.0188 84.7675 88.3329 84.4411 87.0498"
        stroke="#FCFCFD" stroke-width="1.43706" stroke-linecap="round" stroke-linejoin="round" />
    <path
        d="M70.1201 74.7363C71.0953 75.5575 73.0969 75.2988 74.8419 75.2988C73.7353 78.1093 75.1806 80.5154 77.9808 79.7701C78.4633 80.9793 78.9621 81.7635 78.997 83.5065C79.0319 85.2494 78.9621 86.8261 80.625 86.6844C82.8586 86.4956 82.1606 81.3468 81.5632 80.115"
        stroke="#FCFCFD" stroke-width="1.43706" stroke-linecap="round" stroke-linejoin="round" />
    <path
        d="M81.5469 86.1779C81.5469 86.726 82.3845 87.8859 83.5341 87.6991C84.6838 87.5123 84.7022 86.2826 84.6797 85.2869C84.6324 83.2894 84.3204 80.3722 83.6183 78.6826"
        stroke="#FCFCFD" stroke-width="1.43706" stroke-linecap="round" stroke-linejoin="round" />
    <path
        d="M82.4624 71.9297C83.6654 72.9089 87.5742 75.6701 87.3381 77.5301C87.0836 78.5032 86.0345 77.7724 86.0345 77.7724"
        stroke="#FCFCFD" stroke-width="1.43706" stroke-linecap="round" stroke-linejoin="round" />
    <path
        d="M56.8765 37.6523C58.5681 37.679 59.7506 39.2044 61.3786 40.1159C63.2467 41.1731 64.6222 42.0436 66.2522 43.5176C67.9665 45.0696 69.0442 47.2129 70.0995 49.2268C70.7359 50.4401 70.8508 50.6495 72.1339 51.0539C73.881 51.6082 75.1148 51.7376 75.5911 52.7743C76.0674 53.811 76.0017 54.8786 76.0017 55.5684C76.0017 55.5684 77.3032 55.3918 78.2086 55.979C79.2966 56.6954 79.2864 57.5392 78.8245 59.1117C79.7585 57.88 81.4933 57.104 82.9098 56.6154C84.6815 55.9995 87.1163 55.5437 89.0214 55.9399C89.8914 56.1615 90.7036 56.5676 91.4028 57.1307C91.9859 56.6338 93.9772 55.4185 95.6791 55.0428C97.381 54.6671 99.9533 54.0163 100.775 55.9215C100.35 57.0957 99.7727 61.0353 99.5161 62.1008"
        stroke="#FCFCFD" stroke-width="1.43706" stroke-linecap="round" stroke-linejoin="round" />
    <path
        d="M100.774 55.917L105.221 56.7382C105.363 57.5347 105.139 59.6267 104.868 60.3493C104.363 61.694 104.597 61.3552 103.125 61.616C101.378 61.926 99.3784 61.9485 97.6396 62.2318C93.5152 62.9073 88.9577 62.9237 84.9688 63.944C83.5523 64.3074 78.7505 65.1881 78.7505 65.1881"
        stroke="#FCFCFD" stroke-width="1.43706" stroke-linecap="round" stroke-linejoin="round" />
    <path
        d="M104.531 61.185C106.202 61.1638 107.873 61.2365 109.536 61.4026C111.298 61.5874 112.782 62.2772 113.962 62.7925C115.143 63.3078 116.551 63.4412 116.97 62.4209C117.389 61.4006 116.223 60.4295 115.285 60.0888C113.326 59.3784 112.667 59.0869 111.22 59.0869"
        stroke="#FCFCFD" stroke-width="1.43706" stroke-linecap="round" stroke-linejoin="round" />
    <path
        d="M105.266 57.0916C107.997 55.398 111.805 55.8763 114.449 56.1062C116.233 56.2602 118.187 57.648 118.662 59.4956C118.941 60.5734 118.631 63.7144 117.543 63.7637"
        stroke="#FCFCFD" stroke-width="1.43706" stroke-linecap="round" stroke-linejoin="round" />
    <path d="M114.293 58.4482C114.591 58.6433 114.704 59.0272 114.704 59.4952" stroke="#FCFCFD" stroke-width="1.43706"
        stroke-linecap="round" stroke-linejoin="round" />
    <path
        d="M118.186 63.2747C118.262 64.1739 118.652 64.6748 119.541 64.6789C120.43 64.683 121.183 62.78 120.88 60.4109C120.576 58.0418 118.621 55.917 115.263 56.2578"
        stroke="#FCFCFD" stroke-width="1.43706" stroke-linecap="round" stroke-linejoin="round" />
    <path
        d="M87.145 76.5456C87.145 76.5456 97.8203 72.0702 100.434 71.2531C103.047 70.436 105.58 71.3352 107.759 72.4212C111.542 74.3079 112.723 79.3171 113.965 82.9775C115.166 86.5229 115.79 90.3085 116.755 93.9176C117.781 97.7361 118.738 101.585 119.584 105.447C120.569 109.953 124.702 123.888 124.305 125.592C123.965 127.029 120.733 128.105 116.063 129.836C113.345 130.857 110.527 131.59 107.656 132.022C107.656 132.022 104.215 120.651 102.524 114.572C101.169 109.674 99.7624 104.788 98.6784 99.8136C98.1857 97.5554 97.6294 95.3136 97.3379 93.0102C97.0258 90.5651 97.3091 89.4278 98.0194 87.0402C97.7546 88.4157 97.0669 92.2814 95.8823 92.072C94.6978 91.8626 92.7126 85.5662 94.5069 84.1476C96.7507 82.3493 95.0796 89.0891 94.0347 90.3393C92.9897 91.5895 88.19 91.3227 88.19 91.3227"
        stroke="#FCFCFD" stroke-width="1.43706" stroke-linecap="round" stroke-linejoin="round" />
    <path
        d="M112.795 78.8486C117.827 83.2522 139.935 100.199 144.788 104.716C145.389 105.276 146.087 105.791 146.007 106.6C145.929 107.368 144.49 108.653 144.01 109.251C141.994 111.788 139.699 115.379 138.089 118.128C137.063 119.873 136.687 119.273 134.702 117.77C132.359 115.999 130.473 114.486 128.167 112.652C125.388 110.435 122.869 108.68 119.789 106.393"
        stroke="#FCFCFD" stroke-width="1.43706" stroke-linecap="round" stroke-linejoin="round" />
    <path
        d="M80.126 70.2696C82.5792 69.2431 84.7184 68.073 87.3852 67.1615C90.6165 66.057 95.0837 65.3138 98.1303 67.5043C98.5675 67.8184 100.438 69.1672 102.825 70.9532"
        stroke="#FCFCFD" stroke-width="1.43706" stroke-linecap="round" stroke-linejoin="round" />
    <path
        d="M123.759 126.651C123.759 126.651 125.621 133.408 126.391 136.284C127.069 138.807 128.444 144.167 128.444 144.167"
        stroke="#FCFCFD" stroke-width="1.43706" stroke-linecap="round" stroke-linejoin="round" />
    <path d="M110.498 131.816C111.076 134.046 114.23 145.023 114.23 145.023" stroke="#FCFCFD" stroke-width="1.43706"
        stroke-linecap="round" stroke-linejoin="round" />
    <path
        d="M129.142 144.333C129.791 142.486 129.142 137.84 132.289 137.84C133.642 138.115 131.827 141.285 130.932 142.545C131.055 141.336 134.116 139.437 134.611 141.059C135.416 143.705 130.312 143.412 129.142 144.333Z"
        stroke="#FCFCFD" stroke-width="1.43706" stroke-linecap="round" stroke-linejoin="round" />
    <path
        d="M158.548 116.765C157.534 115.767 155.153 111.171 156.723 109.799C158.702 108.073 159.308 113.008 159.246 114.162C158.283 112.439 160.903 107.773 161.827 110.98C162.225 112.388 159.125 116.849 158.548 116.765Z"
        stroke="#FCFCFD" stroke-width="1.43706" stroke-linecap="round" stroke-linejoin="round" />
    <path d="M145.829 107.07L157.52 117.191" stroke="#FCFCFD" stroke-width="1.43706" stroke-linecap="round"
        stroke-linejoin="round" />
    <path d="M138.925 116.731L147.26 123.539" stroke="#FCFCFD" stroke-width="1.43706" stroke-linecap="round"
        stroke-linejoin="round" />
    <path
        d="M36.8787 36.601C36.3164 34.7126 35.6243 32.8654 34.8073 31.0724C34.3002 29.9803 33.7808 27.993 32.8056 27.2971C29.3156 29.2556 26.1972 24.967 30.0691 23.1009C27.7451 19.3378 28.8948 15.6692 33.3086 14.228C37.7224 12.7869 42.9 13.9694 47.2132 14.7947C49.2661 15.1868 51.5552 16.1291 53.9776 17.1576C52.0438 18.4941 47.4842 21.0151 47.4842 21.0151C47.4842 21.0151 49.4427 24.5194 50.7689 27.0507C51.9925 29.4531 53.0421 31.9401 53.9099 34.4926"
        stroke="#FCFCFD" stroke-width="1.43706" stroke-linecap="round" stroke-linejoin="round" />
    <path d="M41.687 24.6321C42.5821 25.3548 43.7584 24.977 44.5837 24.2646" stroke="#FCFCFD" stroke-width="1.43706"
        stroke-linecap="round" stroke-linejoin="round" />
    <path d="M38.6875 21.1172C38.3569 22.1108 37.661 22.661 36.3984 22.158" stroke="#FCFCFD" stroke-width="1.43706"
        stroke-linecap="round" stroke-linejoin="round" />
    <path d="M41.186 19.244C42.0626 19.7449 43.5921 19.5868 43.6845 18.2031" stroke="#FCFCFD" stroke-width="1.43706"
        stroke-linecap="round" stroke-linejoin="round" />
    <path
        d="M136.239 146.154C133.744 143.746 129.998 144.101 126.812 144.234C122.611 144.396 113.936 144.524 113.724 144.587C112.238 145.031 111.989 147.065 113.398 147.784C114.219 148.194 115.266 148.069 116.149 148.057L120.255 148.003C125.516 147.934 130.673 147.798 135.933 147.254C136.307 147.217 136.497 146.404 136.239 146.154Z"
        fill="#FCFCFD" />
    <path
        d="M165.385 115.282C164.315 114.256 162.823 114.504 161.548 114.97C159.755 115.646 158.004 116.427 156.303 117.309C152.936 119.017 149.735 121.033 146.74 123.332C146.482 123.445 146.26 123.625 146.095 123.853C145.685 124.43 145.685 125.239 146.278 125.701C146.845 126.126 147.617 125.96 148.218 125.701C149.343 125.212 150.409 124.506 151.478 123.907C156.093 121.323 160.695 118.715 165.284 116.083C165.352 116.044 165.409 115.99 165.452 115.924C165.496 115.859 165.523 115.785 165.533 115.708C165.543 115.63 165.534 115.551 165.509 115.478C165.483 115.404 165.441 115.337 165.385 115.282Z"
        fill="#FCFCFD" />
    <path
        d="M33.1837 27.6548C33.0729 27.5225 32.946 27.4046 32.806 27.3037C32.1796 27.6728 31.4557 27.8425 30.7305 27.7903C31.3854 28.4924 32.1121 29.0775 33.0523 29.3792C33.1375 29.4007 33.2267 29.3998 33.3113 29.3765C33.396 29.3531 33.4731 29.3083 33.5352 29.2462C33.5972 29.1841 33.6421 29.107 33.6655 29.0223C33.6888 28.9377 33.6897 28.8485 33.6682 28.7634C33.5472 28.3774 33.3847 28.0057 33.1837 27.6548Z"
        fill="#FCFCFD" />
    <path
        d="M37.4969 11.2678C35.7725 12.7644 33.6148 12.9861 30.7222 13.2735C28.0185 13.5404 26.6471 15.5523 27.727 18.295L27.7044 18.3135C25.9533 20.0379 26.9346 22.6246 28.0883 24.3737C28.1807 24.5154 28.2792 24.655 28.3757 24.7946C28.5976 24.2014 29.0184 23.7037 29.5664 23.3863C30.1753 23.6176 30.8154 23.756 31.4654 23.7969C31.8144 23.8236 32.0053 23.4561 31.9478 23.1625C31.7918 22.327 31.642 21.4894 31.4757 20.6559C31.3648 20.1057 31.2416 19.5617 30.8947 19.1059C30.7398 18.9014 30.5509 18.725 30.3363 18.5845C30.6235 18.391 30.8704 18.1434 31.063 17.8557C31.4161 17.3301 31.5886 16.94 32.0484 16.4863C32.5218 15.9914 33.0874 15.5939 33.7134 15.3162C35.5487 14.6202 37.9897 14.0598 38.3263 11.7482C38.4064 11.2657 37.8973 10.9188 37.4969 11.2678Z"
        fill="#9079F9" />
</svg>