<svg width="175" height="193" viewBox="0 0 175 193" fill="none" xmlns="http://www.w3.org/2000/svg">
    <path
        d="M171.613 106.869C169.689 102.948 166.93 99.4054 163.881 96.2987C160.952 93.317 157.577 90.942 154.351 88.3109C151.33 85.8475 148.509 82.9999 148.061 78.9267C147.558 74.4328 149.144 69.9359 149.997 65.5853C150.914 61.0945 150.923 56.4656 150.023 51.9714C149.123 47.4772 147.332 43.2087 144.756 39.4176C139.72 31.9511 132.256 26.4481 124.043 22.8932C116.006 19.4146 106.891 18.195 99.4028 13.5152C95.4393 11.0426 92.4454 7.34443 88.6009 4.70113C84.9058 2.16455 80.5674 0.890159 76.1528 0.408451C67.5643 -0.527524 57.7503 1.82918 50.3235 6.20113C46.5064 8.44199 43.5034 11.57 41.1771 15.3048C39.0979 18.6219 37.5552 22.2347 35.668 25.6706C33.8387 28.9786 31.7046 31.9847 28.5034 34.0944C25.1924 36.2865 21.4912 37.7774 18.1223 39.8871C14.5064 42.1615 11.4363 45.1615 9.69848 49.1158C8.01964 53.0699 7.33808 57.376 7.71373 61.6554C8.45153 71.3414 13.5247 79.7255 16.0247 88.9481C17.1223 93.003 17.7625 97.4024 16.8448 101.558C15.8235 106.171 12.4332 109.573 10.8784 113.969C10.0192 116.474 9.63051 119.116 9.73202 121.762C12.1497 121.119 14.9698 123.155 16.1101 124.073C20.7503 127.802 23.2717 133.927 24.8753 139.262C24.3052 137.433 24.3906 135.521 23.9424 133.662C23.3686 131.418 22.5507 129.245 21.5034 127.18C20.4729 125.046 18.3082 121.972 17.6802 119.604C17.2656 118.04 18.1863 116.555 19.168 116.366C21.607 115.921 22.979 117.552 23.8814 118.396C26.6253 120.948 28.1893 124.088 29.979 127.338C31.5979 130.262 32.1131 132.521 33.5308 136.18L33.5491 136.25C33.778 135.768 34.1425 135.363 34.5979 135.085C35.6131 134.503 36.4271 134.735 37.0704 135.326L37.3509 134.863C38.671 130.232 40.0948 126.122 43.6101 119.619C47.1253 113.116 52.6223 105.439 55.671 101.476C56.3418 98.1981 56.7381 91.7774 61.3631 89.2042C61.5643 89.3475 61.7899 89.5091 62.0247 89.6493L61.9729 89.5091C59.8906 82.4237 56.3906 64.8139 55.5247 58.2103C54.0674 58.3322 47.6375 60.6889 45.729 61.2225C43.4973 61.8322 37.2442 63.3292 34.2534 64.0182C31.2625 64.7072 40.3296 49.8993 42.9149 46.1463C47.4149 39.6188 52.6253 32.57 58.8113 27.5487C59.2442 27.195 59.6649 26.817 60.0857 26.4359C58.2678 26.2109 56.5062 25.6561 54.8875 24.7987C53.9881 24.3475 54.3906 23.256 55.3265 23.1737C62.1345 22.5639 66.1253 17.6554 72.8143 16.4816C76.4119 15.8475 80.7412 16.4542 84.1375 17.753C86.7991 18.7682 89.046 20.7316 89.6589 23.5091C96.2899 23.1554 98.5003 33.1463 99.2747 38.1676C99.4241 39.1219 99.543 40.0792 99.6375 41.0365C100.143 40.8541 100.658 40.6984 101.18 40.57C105.537 39.5091 111.119 40.9755 109.958 46.4725C109 50.9969 104.104 52.3231 99.7229 52.817C99.5308 55.7225 99.2229 58.6097 98.8784 61.503C98.8568 61.6345 98.809 61.7603 98.7378 61.8729C98.6666 61.9856 98.5735 62.0828 98.464 62.1587C98.3545 62.2347 98.2308 62.2878 98.1004 62.315C97.9699 62.3422 97.8353 62.3429 97.7046 62.317C97.9149 63.3322 98.1162 64.3475 98.2991 65.3658C98.729 67.7591 100.281 77.6219 100.281 77.6219L100.336 77.8505C100.381 77.8231 100.43 77.7926 100.473 77.7713C101.613 77.2042 103.619 79.4755 104.086 80.1493C106.653 83.8414 108.049 87.9511 108.397 91.3963C112.766 91.7713 120.619 94.9938 123.641 96.8841C131.567 101.866 137.65 106.713 143.964 113.689C151.323 121.823 158.086 130.683 162.93 140.5C163.013 140.668 163.089 140.832 163.168 140.997C166.391 138.235 169.22 135.046 171.299 131.354C175.641 123.613 175.5 114.756 171.613 106.869Z"
        fill="#FDA29B" />
    <path
        d="M30.3555 150.573C31.8941 148.132 32.7374 145.318 32.7945 142.433C32.8189 140.534 32.511 136.259 34.5841 135.073C37.1146 133.628 38.3768 137.207 38.9317 138.866C40.1969 142.662 39.514 147.787 39.0689 151.71C38.8951 153.259 37.1177 158.994 37.7914 159.759"
        stroke="white" stroke-width="2.13415" stroke-linecap="round" stroke-linejoin="round" />
    <path
        d="M75.8061 184.415C75.8061 184.415 71.0926 181.061 69.4036 179.774C67.7146 178.488 66.05 176.814 64.5256 175.326C61.3335 172.238 61.0591 167.951 60.867 163.683C60.6109 158.232 60.6994 152.841 61.9097 147.488C62.4859 144.936 63.7756 139.256 64.7695 137.034C65.7634 134.811 66.2207 132.46 69.1018 131.735C74.3396 130.415 69.6323 141.186 70.5987 144.652"
        stroke="white" stroke-width="2.13415" stroke-linecap="round" stroke-linejoin="round" />
    <path
        d="M68.7949 146.96C71.426 143.866 73.3955 140.207 76.1821 137.158C78.862 134.229 81.6181 131.015 84.5205 128.271C86.7492 126.162 89.3529 123.951 92.0846 122.372C93.5022 121.552 96.9199 119.988 96.9779 123.61C97.0297 126.787 91.2157 130.469 88.4413 133.463"
        stroke="white" stroke-width="2.13415" stroke-linecap="round" stroke-linejoin="round" />
    <path
        d="M82.9434 138.89C88.2482 133.747 92.8702 128.552 99.3702 124.838C100.773 124.04 104.459 122.512 105.306 124.872C106.178 127.296 102.706 129.14 101.178 130.277C99.6995 131.39 94.1873 136.131 92.861 137.415"
        stroke="white" stroke-width="2.13415" stroke-linecap="round" stroke-linejoin="round" />
    <path
        d="M90.2812 139.293C95.2386 135.799 98.2569 132.844 103.729 130.942C105.732 130.247 107.928 130.027 107.998 132.585C108.077 135.469 105.104 137.158 102.83 138.488C100.681 139.747 97.8056 141.991 95.6471 143.256"
        stroke="white" stroke-width="2.13415" stroke-linecap="round" stroke-linejoin="round" />
    <path
        d="M93.2755 144.695C96.0712 142.927 99.2541 141.119 102.422 140.326C103.855 139.969 108.733 138.378 108.001 141.866C107.754 143.064 106.303 144.204 105.443 144.982C103.919 146.351 102.239 147.726 100.803 149.232C99.4462 150.665 98.059 151.826 96.8182 153.399C95.7816 154.707 94.7419 155.969 93.7298 157.299C91.6688 160.003 90.4218 163.25 88.748 166.21"
        stroke="white" stroke-width="2.13415" stroke-linecap="round" stroke-linejoin="round" />
    <path
        d="M33.5107 136.165C32.1021 132.506 31.5778 130.25 29.9589 127.323C28.1631 124.073 26.5899 120.921 23.8613 118.381C22.9467 117.537 21.596 115.905 19.1479 116.351C18.1662 116.53 17.2454 118.024 17.6601 119.588C18.2881 121.957 20.4528 125.034 21.4832 127.165C22.5306 129.23 23.3485 131.403 23.9223 133.646C24.3704 135.506 24.2851 137.433 24.8552 139.247C23.2515 133.912 20.7302 127.787 16.09 124.058C14.7698 122.997 11.2119 120.43 8.6052 122.265C6.21495 123.957 10.3979 126.625 11.1875 127.585C14.1509 131.189 16.8095 134.954 18.471 139.351C17.5839 136.302 14.1723 132.482 11.6021 130.707C10.1235 129.689 7.36739 127.463 5.44971 128.268C0.897876 130.171 7.68751 135.479 8.80336 136.5C10.0443 137.638 11.1623 138.903 12.1387 140.274C12.6997 141.052 13.7576 142.259 13.9893 143.192C12.2271 141.088 10.3948 138.378 8.03507 136.314C5.67532 134.25 3.30946 134.848 2.24239 136.009C-0.806389 139.363 5.90093 143.247 7.7302 145.137C10.407 147.902 11.2881 151.488 12.718 155C14.0046 158.159 13.8521 161.747 14.4101 165.061C15.2729 170.204 16.654 174.29 21.6204 176.512C24.346 177.732 27.1479 178.866 30.1082 179.329C31.3826 179.53 35.4649 180.451 35.4649 180.451C36.777 179.314 37.7938 177.875 38.4284 176.259C39.6753 173.265 40.2881 169.973 40.7973 166.765C41.2332 164.043 41.7973 161.305 41.6448 158.534C41.5686 157.159 41.4497 156.945 40.593 156.338C40.0839 155.979 38.9375 155.662 39.0076 155.509"
        stroke="white" stroke-width="2.13415" stroke-linecap="round" stroke-linejoin="round" />
    <path
        d="M98.5138 166.918C98.2089 166.991 96.5808 171.186 95.9955 172.021C93.34 175.814 89.7943 179.421 85.7668 181.744C81.8461 184.006 77.0443 185.402 73.4863 184.427C74.7058 185.598 76.2302 187.549 77.4802 188.53C79.1449 189.851 80.8034 191.168 82.1235 191.787"
        stroke="white" stroke-width="2.13415" stroke-linecap="round" stroke-linejoin="round" />
    <path
        d="M90.7461 162.32C90.7461 162.32 96.2339 165.78 98.5296 166.753C100.969 165.576 105.6 169.543 107.694 171.326C109.347 172.741 110.743 173.122 110.072 175.54C109.38 178.058 108.017 180.338 106.676 182.533C105.314 184.603 103.721 186.512 101.929 188.222"
        stroke="white" stroke-width="2.13415" stroke-linecap="round" stroke-linejoin="round" />
    <path d="M40.8184 155.963C41.1232 152.963 45.736 153.671 46.861 154.305" stroke="white" stroke-width="2.13415"
        stroke-linecap="round" stroke-linejoin="round" />
    <path
        d="M76.1815 137.158C77.7547 134.134 77.9833 131.366 78.1358 129.75C78.3065 127.951 78.3888 125.744 77.6693 124.067C77.0595 122.662 75.8248 121.61 75.4498 120.073C74.8004 117.402 76.3644 114.421 76.4833 111.726C76.6571 108.11 76.4833 103.823 75.1602 100.427"
        stroke="white" stroke-width="2.13415" stroke-linecap="round" stroke-linejoin="round" />
    <path
        d="M57.9863 103.128C57.9863 103.128 58.5961 104.741 59.3065 106.668C59.8126 108.046 61.026 110.588 62.3552 111.341C66.1357 113.476 69.5961 105.244 70.4101 102.851C71.3491 100.091 72.3613 97.0762 73.0717 94.4146C77.8674 98 79.843 104.991 84.7851 108.54C91.8644 113.622 96.4345 107.625 100.639 102.049C102.282 99.8658 105.8 95.125 105.925 92.7012"
        stroke="white" stroke-width="2.13415" stroke-linecap="round" stroke-linejoin="round" />
    <path
        d="M37.3301 134.848C38.6502 130.216 40.074 126.107 43.5892 119.604C47.1045 113.101 52.6014 105.424 55.6502 101.46C56.3209 98.1829 56.7173 91.7622 61.3423 89.189C63.3819 90.628 67.1959 92.6036 70.1837 92.753C74.3532 92.9965 78.5301 92.4227 82.4795 91.064C86.9337 89.4847 92.4978 86.1859 95.5496 82.6493C96.8758 81.1097 99.3179 78.3292 100.455 77.7713C101.592 77.2134 103.601 79.4756 104.068 80.1493C106.635 83.8414 108.031 87.9512 108.379 91.3963C112.748 91.7713 120.601 94.9939 123.623 96.8841C131.55 101.866 137.632 106.713 143.946 113.689C151.306 121.823 158.068 130.683 162.912 140.5C166.553 147.872 168.342 155.152 170.739 162.912"
        stroke="white" stroke-width="2.13415" stroke-linecap="round" stroke-linejoin="round" />
    <path d="M78.3672 119.878V119.311" stroke="white" stroke-width="2.13415" stroke-linecap="round"
        stroke-linejoin="round" />
    <path
        d="M100.26 77.6036C100.26 77.6036 98.708 67.7408 98.2781 65.3475C97.5433 61.2713 96.4702 57.1402 95.9427 53.0975C100.711 52.8292 108.687 52.375 109.937 46.4634C111.098 40.9756 105.516 39.5 101.159 40.5609C98.7415 41.1463 96.7445 42.3231 94.4366 43.1859C94.5098 40.8841 92.9976 37.6219 92.2141 35.4512C91.1693 32.7406 89.6748 30.2256 87.7933 28.0122C83.9519 23.439 77.3299 21.5305 71.5677 21.7408C69.1817 21.8245 66.8259 22.3015 64.5952 23.1524C62.2964 24.0091 60.6683 26.0183 58.8025 27.5396C52.6165 32.5457 47.4061 39.5945 42.9061 46.1372C40.3208 49.8902 31.2537 64.7012 34.2445 64.0091C37.2354 63.317 43.4885 61.8353 45.7202 61.2134C47.6287 60.6798 54.0586 58.3231 55.5159 58.2012C56.3817 64.7957 59.8817 82.4146 61.9641 89.5"
        stroke="white" stroke-width="2.13415" stroke-linecap="round" stroke-linejoin="round" />
    <path d="M70.6289 43.4847V41.7438" stroke="white" stroke-width="2.13415" stroke-linecap="round"
        stroke-linejoin="round" />
    <path d="M61.7114 44.8994L61.2754 43.2134" stroke="white" stroke-width="2.13415" stroke-linecap="round"
        stroke-linejoin="round" />
    <path d="M69.4688 34.2896C70.5572 34.0488 72.1029 34.375 72.9566 34.811" stroke="white" stroke-width="2.13415"
        stroke-linecap="round" stroke-linejoin="round" />
    <path d="M56.5996 38.006C57.061 37.2279 57.7166 36.5829 58.502 36.1341" stroke="white" stroke-width="2.13415"
        stroke-linecap="round" stroke-linejoin="round" />
    <path
        d="M83.5804 41.0762L83.4493 40.8445C83.3375 40.6453 83.1648 40.4873 82.9566 40.3936C82.7483 40.2999 82.5155 40.2755 82.2923 40.3239C82.0691 40.3724 81.8674 40.4912 81.7168 40.6628C81.5661 40.8344 81.4745 41.0499 81.4554 41.2774C81.3466 41.9217 81.2 42.5589 81.0164 43.186C80.2603 46.0488 79.3182 49.6128 80.8609 51.4451C81.1535 51.7806 81.5185 52.0451 81.9284 52.2189C82.3382 52.3927 82.7822 52.4711 83.2267 52.4482C83.3578 52.4482 83.492 52.4482 83.6322 52.4482C85.1719 52.314 85.8944 51.5335 86.2298 50.8841C87.4706 48.5061 85.4676 44.3933 83.5804 41.0762Z"
        fill="#9ED5F0" />
    <path
        d="M65.3556 60.1402C68.0111 59.9664 69.1392 59.7561 71.1026 57.5701C72.0934 56.4634 73.4258 54.3201 75.9532 56.5305C78.4806 58.7408 74.0325 65.8536 68.9623 66.7073C66.8434 67.064 63.7093 65.9878 63.1087 63.6585C62.5081 61.3292 63.9806 59.8841 65.3556 60.1402Z"
        stroke="white" stroke-width="2.13415" stroke-linecap="round" stroke-linejoin="round" />
    <path
        d="M66.5801 66.5731C67.3209 64.6798 68.074 63.2804 69.824 62.2072C70.7386 61.6493 76.013 59.1981 76.4795 59.6676"
        stroke="white" stroke-width="2.13415" stroke-linecap="round" stroke-linejoin="round" />
    <path
        d="M95.9434 53.0975C96.3397 56.1463 97.047 59.2286 97.6842 62.3079C97.8149 62.3337 97.9495 62.3331 98.08 62.3059C98.2104 62.2787 98.3341 62.2255 98.4436 62.1496C98.5531 62.0737 98.6462 61.9765 98.7174 61.8638C98.7886 61.7512 98.8364 61.6253 98.858 61.4938C99.2025 58.6127 99.5104 55.7012 99.7025 52.8079C98.3671 52.9603 97.0623 53.0335 95.9434 53.0975Z"
        fill="white" />
    <path
        d="M99.6171 41.0274C99.5226 40.0701 99.4037 39.1128 99.2543 38.1585C98.4738 33.1372 96.2696 23.1463 89.6385 23.5C89.0287 20.7225 86.7787 18.7591 84.1171 17.7439C80.7116 16.4451 76.3915 15.8384 72.7939 16.4725C66.1049 17.6463 62.1232 22.5701 55.3061 23.1646C54.3702 23.2469 53.9677 24.3384 54.8671 24.7896C57.547 26.1372 59.8763 26.6768 62.8275 26.4725C66.1324 26.2408 69.2299 26.1493 72.4738 26.9786C75.2757 27.6951 78.0744 28.6676 81.0104 28.5701C83.2299 28.4969 83.236 28.4817 85.1476 27.3994C84.0683 30.3414 84.5226 32.1128 86.2025 34.7987C88.5592 38.5701 91.175 42.3109 93.6171 46.8567C93.922 47.4298 95.044 47.4359 95.169 46.6554C95.3762 45.3536 95.5157 44.0419 95.5866 42.7256C96.9403 42.1524 98.233 41.5183 99.6171 41.0274Z"
        fill="white" />
    <path d="M102.338 45.3292L100.262 46.8384" stroke="white" stroke-width="2.13415" stroke-linecap="round"
        stroke-linejoin="round" />
    <path
        d="M110.529 174.317C112.008 173.213 115.712 173.354 117.541 173.726C121.087 174.451 123.206 177.409 124.84 180.372C124.645 178.543 124.139 177.186 125.977 175.985C127.444 175.027 129.429 175.101 131.072 175.418C132.176 175.631 136.767 176.753 136.737 178.442C136.703 180.466 133.267 179.238 132.359 178.588C130.529 177.277 129.746 174.649 129.734 172.491C129.715 169.872 130.801 165.232 133.243 163.982C127.203 164.076 124.474 153.061 125.621 148.552"
        stroke="white" stroke-width="2.13415" stroke-linecap="round" stroke-linejoin="round" />
    <path
        d="M76.7209 58.2194C76.7665 57.9153 76.7016 57.6049 76.538 57.3444C76.2331 56.8018 75.3825 56.3292 74.6569 56.0884C74.3222 55.8966 73.9447 55.792 73.5591 55.784C73.1734 55.776 72.7919 55.8649 72.4496 56.0426C71.5045 56.564 70.7484 57.5152 70.0106 58.2591C69.1417 59.1188 68.0929 59.4786 66.977 59.9054C66.5334 59.679 66.0259 59.6102 65.538 59.7103C64.4222 59.8566 63.6569 60.8536 63.4679 61.9115C63.2941 62.8658 63.4313 64.5152 64.4526 64.9603C64.6375 65.049 64.8432 65.0848 65.0471 65.064C65.3002 65.7469 66.2971 66.0914 66.6478 65.2713C66.7087 65.1341 66.7758 64.9664 66.8459 64.7957C67.8639 63.8168 69.0309 63.0059 70.3032 62.3932C70.45 62.3319 70.5736 62.2258 70.6563 62.09C70.739 61.9541 70.7765 61.7956 70.7636 61.6371C71.1539 61.3688 71.5441 61.1036 71.9404 60.8505C73.0404 60.4154 74.1924 60.1254 75.3673 59.9877C76.5624 59.8627 77.0715 59.1615 76.7209 58.2194Z"
        fill="white" />
    <path d="M70.3379 170.659C71.3806 170.793 72.2525 170.277 73.1824 170.049" stroke="white" stroke-width="2.13415"
        stroke-linecap="round" stroke-linejoin="round" />
</svg>