<svg width="53" height="53" viewBox="0 0 53 53" fill="none" xmlns="http://www.w3.org/2000/svg">
<rect width="53" height="53" rx="8" fill="#8961DE"/>
<path opacity="0.4" d="M27.7505 23.703V21.6832C27.354 21.6832 27.0251 21.3638 27.0251 20.9786V18.5736C27.0251 18.2532 26.764 18.0005 26.4352 18.0005H19.7911C17.7021 18.0005 16 19.653 16 21.6832V24.1155C16 24.3043 16.0774 24.4828 16.2128 24.6143C16.3482 24.7449 16.5319 24.8201 16.7253 24.8201C17.4603 24.8201 18.0213 25.3274 18.0213 25.9944C18.0213 26.6905 17.4507 27.2448 16.735 27.2533C16.3385 27.2533 16 27.5257 16 27.9203V30.3262C16 32.3555 17.7021 33.9995 19.7814 33.9995H26.4352C26.764 33.9995 27.0251 33.745 27.0251 33.4265V31.3963C27.0251 31.0027 27.354 30.6917 27.7505 30.6917V28.8701C27.354 28.8701 27.0251 28.5497 27.0251 28.1655V24.4076C27.0251 24.0224 27.354 23.703 27.7505 23.703Z" fill="white"/>
<path d="M33.9787 25.9948C33.9787 26.69 34.559 27.2443 35.265 27.2537C35.6615 27.2537 36 27.5262 36 27.9113V30.3258C36 32.3559 34.3075 34 32.2186 34H29.0658C28.7466 34 28.4758 33.7454 28.4758 33.426V31.3967C28.4758 31.0022 28.1567 30.6921 27.7505 30.6921V28.8705C28.1567 28.8705 28.4758 28.5502 28.4758 28.1659V24.4081C28.4758 24.022 28.1567 23.7035 27.7505 23.7035V21.6827C28.1567 21.6827 28.4758 21.3633 28.4758 20.9781V18.574C28.4758 18.2537 28.7466 18 29.0658 18H32.2186C34.3075 18 36 19.6441 36 21.6733V24.0407C36 24.2286 35.9226 24.4081 35.7872 24.5387C35.6518 24.6702 35.4681 24.7453 35.2747 24.7453C34.559 24.7453 33.9787 25.31 33.9787 25.9948Z" fill="white"/>
</svg>
