<svg width="53" height="53" viewBox="0 0 53 53" fill="none" xmlns="http://www.w3.org/2000/svg">
<rect width="53" height="53" rx="8" fill="#8961DE"/>
<path fill-rule="evenodd" clip-rule="evenodd" d="M35.9964 22.3751H31.7618C29.7911 22.3786 28.1947 23.9351 28.1911 25.8566C28.1884 27.7823 29.7867 29.3458 31.7618 29.3484H36V29.6543C36 33.0136 33.9636 35 30.5173 35H21.4836C18.0364 35 16 33.0136 16 29.6543V22.3379C16 18.9786 18.0364 17 21.4836 17H30.5138C33.96 17 35.9964 18.9786 35.9964 22.3379V22.3751ZM20.7396 22.3673H26.3796H26.3831H26.3902C26.8124 22.3656 27.1538 22.0302 27.152 21.6177C27.1502 21.206 26.8053 20.8732 26.3831 20.8749H20.7396C20.32 20.8766 19.9796 21.2086 19.9778 21.6185C19.976 22.0302 20.3173 22.3656 20.7396 22.3673Z" fill="white"/>
<path opacity="0.4" d="M30.0374 26.2967C30.2465 27.2479 31.0805 27.9171 32.0326 27.8997H35.2825C35.6787 27.8997 36 27.5716 36 27.1661V24.6345C35.9991 24.2298 35.6787 23.9009 35.2825 23.9H31.9561C30.8731 23.9035 29.9983 24.8025 30 25.9103C30 26.04 30.0128 26.1696 30.0374 26.2967Z" fill="white"/>
<circle cx="32" cy="25.9" r="1" fill="white"/>
</svg>
