<svg width="53" height="53" viewBox="0 0 53 53" fill="none" xmlns="http://www.w3.org/2000/svg">
<rect width="53" height="53" rx="8" fill="#8961DE"/>
<path d="M32.5298 29.2611L29.2687 26.0016L32.528 22.7421C33.1549 22.1169 33.1549 21.0995 32.528 20.4744C31.901 19.8437 30.8873 19.8455 30.2604 20.4725L26.9993 23.732L23.7382 20.4689C23.1113 19.8419 22.0957 19.8455 21.4688 20.4689C20.8437 21.0958 20.8437 22.1133 21.4688 22.7384L24.7317 26.0016L21.4761 29.2556C20.8492 29.8826 20.8492 30.9 21.4761 31.5234C21.7896 31.8387 22.1984 31.9945 22.609 31.9945C23.0215 31.9945 23.4302 31.8387 23.7437 31.5252L26.9993 28.2693L30.2622 31.5307C30.5757 31.8442 30.9845 32 31.3951 32C31.8057 32 32.2163 31.8423 32.5298 31.5307C33.1567 30.9037 33.1567 29.8881 32.5298 29.2611Z" fill="white"/>
</svg>
