<svg width="95" height="20" viewBox="0 0 95 20" fill="none" xmlns="http://www.w3.org/2000/svg">
    <path d="M25.8834 0H23.5005V14.522H25.8834V0Z" fill="white" class="letter" />
    <path
        d="M35.6305 3.38601C36.3482 3.76246 36.9082 4.31879 37.3125 5.0587C37.7168 5.79677 37.9189 6.68875 37.9189 7.73279V14.5237H35.5582V8.08884C35.5582 7.05778 35.3004 6.26779 34.7849 5.71703C34.2694 5.16626 33.5666 4.89181 32.6746 4.89181C31.7826 4.89181 31.0761 5.16626 30.5531 5.71703C30.0302 6.26779 29.7687 7.05778 29.7687 8.08884V14.5237H27.3857V3.00956H29.7687V4.32621C30.1581 3.85333 30.657 3.4843 31.2634 3.21912C31.8698 2.95393 32.5132 2.82227 33.1957 2.82227C34.1006 2.82227 34.9129 3.00956 35.6305 3.38601Z"
        fill="white" class="letter" />
    <path
        d="M39.6823 5.64285C40.1626 4.75273 40.8172 4.05917 41.6461 3.56404C42.4751 3.0689 43.3986 2.82227 44.4148 2.82227C45.3068 2.82227 46.0968 3.004 46.7866 3.36562C47.4765 3.72723 48.0087 4.16673 48.3851 4.68226V3.01142H50.7885V19.9998H48.3851V12.8529C48.0087 13.3684 47.4653 13.8079 46.7551 14.1695C46.0448 14.5311 45.2363 14.7129 44.3314 14.7129C43.3411 14.7129 42.4398 14.4588 41.6257 13.9507C40.8098 13.4426 40.1626 12.7323 39.6823 11.82C39.202 10.9076 38.9609 9.8728 38.9609 8.71749C38.9609 7.56218 39.202 6.53668 39.6823 5.6447M47.8937 6.68875C47.5655 6.1046 47.1371 5.65769 46.6086 5.35171C46.0801 5.04573 45.5089 4.89181 44.8951 4.89181C44.2813 4.89181 43.7101 5.04202 43.1816 5.34058C42.6512 5.641 42.2247 6.07864 41.8965 6.65723C41.5683 7.23581 41.4051 7.92194 41.4051 8.71564C41.4051 9.50933 41.5683 10.2066 41.8965 10.8056C42.2229 11.4046 42.655 11.8607 43.1909 12.1741C43.7268 12.4875 44.2943 12.6452 44.8932 12.6452C45.4922 12.6452 46.0764 12.4913 46.6067 12.1853C47.1352 11.8793 47.5636 11.4305 47.8919 10.8371C48.2201 10.2455 48.3833 9.55198 48.3833 8.75829C48.3833 7.96459 48.2201 7.27475 47.8919 6.6906"
        fill="white" class="letter" />
    <path
        d="M62.6993 3.00977V14.5239H60.3163V13.1665C59.9399 13.6393 59.4503 14.0121 58.8439 14.2847C58.2375 14.5554 57.594 14.6927 56.9116 14.6927C56.0066 14.6927 55.1944 14.5054 54.4767 14.1289C53.7591 13.7525 53.1953 13.1961 52.7836 12.4581C52.372 11.72 52.168 10.828 52.168 9.78399V3.01347H54.5287V9.42794C54.5287 10.459 54.7864 11.249 55.302 11.7998C55.8175 12.3505 56.5203 12.625 57.4123 12.625C58.3043 12.625 59.0108 12.3505 59.5338 11.7998C60.0567 11.249 60.3163 10.459 60.3163 9.42794V3.01347H62.6993V3.00977Z"
        fill="white" class="letter" />
    <path
        d="M74.9646 9.65378H66.1672C66.2376 10.5736 66.577 11.3116 67.1908 11.868C67.8028 12.4261 68.5557 12.7043 69.4476 12.7043C70.7291 12.7043 71.634 12.1684 72.1644 11.0947H74.7346C74.386 12.1535 73.7555 13.0214 72.8431 13.6964C71.9307 14.3714 70.7995 14.7089 69.4476 14.7089C68.348 14.7089 67.3614 14.4623 66.4917 13.9672C65.6201 13.472 64.9377 12.7766 64.4444 11.8772C63.9493 10.9778 63.7026 9.93751 63.7026 8.75253C63.7026 7.56755 63.9437 6.52721 64.424 5.62782C64.9043 4.72842 65.5793 4.03672 66.4509 3.549C67.3206 3.06129 68.322 2.81836 69.4495 2.81836C70.577 2.81836 71.5042 3.05572 72.3535 3.5286C73.2029 4.00148 73.8649 4.66722 74.3378 5.52397C74.8107 6.38071 75.048 7.36541 75.048 8.47993C75.048 8.91201 75.0202 9.30144 74.9646 9.65007M72.5612 7.72703C72.5464 6.84988 72.233 6.14706 71.621 5.61669C71.0072 5.08818 70.2488 4.82299 69.3438 4.82299C68.5223 4.82299 67.8195 5.08447 67.2335 5.60742C66.6475 6.13037 66.2988 6.83691 66.1894 7.72888H72.5631L72.5612 7.72703Z"
        fill="white" class="letter" />
    <path
        d="M80.0516 3.31173C80.6302 2.98536 81.3163 2.82031 82.11 2.82031V5.2867H81.5036C80.5708 5.2867 79.8643 5.52407 79.3821 5.99695C78.9018 6.46983 78.6608 7.29319 78.6608 8.46333V14.5236H76.2778V3.00946H78.6608V4.68215C79.0094 4.09801 79.473 3.63997 80.0497 3.31359"
        fill="white" class="letter" />
    <path
        d="M94.857 3.00977L87.7935 19.9351H85.3289L87.6692 14.3348L83.1333 3.00977H85.787L89.0267 11.7849L92.3906 3.00977H94.857Z"
        fill="white" class="letter" />
    <path
        d="M12.5558 16.8922L5.71293 9.28165C5.24561 8.76241 5.28827 7.9613 5.80751 7.49398L10.8497 2.86719H5.36986C5.04163 2.86719 4.72638 2.98958 4.48345 3.21026L0.681873 6.67247C-0.1656 7.44206 -0.232363 8.75314 0.533515 9.60432L7.10004 16.9089C7.34483 17.1815 7.69531 17.3373 8.06063 17.3373L12.3573 17.341C12.5891 17.341 12.7115 17.0665 12.5558 16.8922Z"
        fill="#7A5EF8" />
    <path
        d="M8.69128 0.452674L15.5341 8.06325C16.0014 8.58249 15.9588 9.3836 15.4395 9.85092L10.3974 14.4777H15.8772C16.2054 14.4777 16.5207 14.3553 16.7636 14.1346L20.5652 10.6724C21.4127 9.90284 21.4794 8.59176 20.7135 7.74058L14.147 0.435985C13.9022 0.163384 13.5517 0.00761307 13.1864 0.00761307L8.88971 0.00390625C8.6579 0.00390625 8.53551 0.278358 8.69128 0.452674Z"
        fill="#2547A6" />
</svg>