<svg width="152" height="32" viewBox="0 0 152 32" fill="none" xmlns="http://www.w3.org/2000/svg">
    <path d="M41.5282 0H37.7156V23.2348H41.5282V0Z" fill="white" class="letter" />
    <path
        d="M57.124 5.41761C58.2723 6.01991 59.1683 6.91002 59.8151 8.09386C60.462 9.27474 60.7854 10.7019 60.7854 12.3723V23.2376H57.0083V12.942C57.0083 11.2923 56.5959 10.0284 55.7711 9.14717C54.9462 8.26596 53.8217 7.82683 52.3946 7.82683C50.9675 7.82683 49.837 8.26596 49.0003 9.14717C48.1636 10.0284 47.7453 11.2923 47.7453 12.942V23.2376H43.9326V4.8153H47.7453V6.92189C48.3683 6.1653 49.1665 5.57486 50.1367 5.15057C51.1069 4.72629 52.1365 4.51562 53.2283 4.51562C54.6762 4.51562 55.9758 4.8153 57.124 5.41761Z"
        fill="white" class="letter" />
    <path
        d="M63.6061 9.02849C64.3745 7.60431 65.4219 6.49463 66.7482 5.70244C68.0744 4.91024 69.552 4.51562 71.1779 4.51562C72.6051 4.51562 73.869 4.8064 74.9728 5.38497C76.0765 5.96354 76.928 6.66672 77.5303 7.49156V4.81827H81.3756V31.9992H77.5303V20.5643C76.928 21.3891 76.0587 22.0923 74.9223 22.6709C73.786 23.2495 72.4923 23.5402 71.0444 23.5402C69.46 23.5402 68.0181 23.1337 66.7155 22.3208C65.41 21.5078 64.3745 20.3714 63.6061 18.9117C62.8376 17.4519 62.4519 15.7963 62.4519 13.9478C62.4519 12.0994 62.8376 10.4586 63.6061 9.03145M76.7441 10.7019C76.2189 9.76727 75.5335 9.05222 74.6879 8.56266C73.8423 8.0731 72.9285 7.82683 71.9464 7.82683C70.9643 7.82683 70.0505 8.06717 69.2049 8.54486C68.3563 9.02552 67.6739 9.72574 67.1487 10.6515C66.6235 11.5772 66.3624 12.675 66.3624 13.9448C66.3624 15.2147 66.6235 16.3303 67.1487 17.2887C67.6709 18.247 68.3622 18.9769 69.2197 19.4784C70.0772 19.9798 70.9851 20.232 71.9434 20.232C72.9018 20.232 73.8364 19.9857 74.685 19.4962C75.5306 19.0066 76.216 18.2886 76.7411 17.3391C77.2663 16.3927 77.5274 15.283 77.5274 14.0131C77.5274 12.7432 77.2663 11.6395 76.7411 10.7049"
        fill="white" class="letter" />
    <path
        d="M100.433 4.81543V23.2377H96.6206V21.0659C96.0183 21.8224 95.235 22.4188 94.2648 22.855C93.2946 23.2882 92.265 23.5077 91.1732 23.5077C89.7253 23.5077 88.4257 23.2081 87.2775 22.6057C86.1292 22.0034 85.2272 21.1133 84.5686 19.9325C83.9099 18.7516 83.5835 17.3244 83.5835 15.654V4.82136H87.3605V15.0843C87.3605 16.734 87.773 17.9979 88.5978 18.8792C89.4226 19.7604 90.5471 20.1995 91.9743 20.1995C93.4014 20.1995 94.5319 19.7604 95.3686 18.8792C96.2053 17.9979 96.6206 16.734 96.6206 15.0843V4.82136H100.433V4.81543Z"
        fill="white" class="letter" />
    <path
        d="M120.056 15.4462H105.98C106.093 16.9179 106.636 18.0988 107.618 18.9889C108.597 19.8819 109.802 20.327 111.229 20.327C113.279 20.327 114.727 19.4695 115.576 17.7516H119.688C119.13 19.4458 118.121 20.8344 116.662 21.9144C115.202 22.9944 113.392 23.5344 111.229 23.5344C109.47 23.5344 107.891 23.1398 106.5 22.3476C105.105 21.5554 104.013 20.4427 103.224 19.0037C102.432 17.5647 102.037 15.9002 102.037 14.0043C102.037 12.1083 102.423 10.4438 103.191 9.00482C103.96 7.56581 105.04 6.45911 106.434 5.67878C107.826 4.89845 109.428 4.50977 111.232 4.50977C113.036 4.50977 114.519 4.88954 115.878 5.64613C117.237 6.40273 118.296 7.46789 119.053 8.83866C119.81 10.2094 120.189 11.7849 120.189 13.5681C120.189 14.2594 120.145 14.8825 120.056 15.4403M116.211 12.3635C116.187 10.9601 115.685 9.83559 114.706 8.98701C113.724 8.14141 112.511 7.71713 111.063 7.71713C109.748 7.71713 108.624 8.13548 107.686 8.97218C106.749 9.80889 106.191 10.9393 106.016 12.3665H116.214L116.211 12.3635Z"
        fill="white" class="letter" />
    <path
        d="M128.196 5.29896C129.121 4.77676 130.219 4.5127 131.489 4.5127V8.45884H130.519C129.026 8.45884 127.896 8.83863 127.125 9.59522C126.356 10.3518 125.97 11.6692 125.97 13.5414V23.2376H122.158V4.81533H125.97V7.49159C126.528 6.55697 127.27 5.82412 128.193 5.30193"
        fill="white" class="letter" />
    <path
        d="M151.885 4.81543L140.583 31.8955H136.64L140.385 22.9351L133.127 4.81543H137.373L142.556 18.8554L147.939 4.81543H151.885Z"
        fill="white" class="letter" />
    <path
        d="M20.2046 27.0266L9.25625 14.8499C8.50856 14.0191 8.5768 12.7373 9.40757 11.9897L17.4749 4.58691H8.70735C8.18219 4.58691 7.67779 4.78274 7.28911 5.13582L1.2067 10.6753C-0.149233 11.9066 -0.256052 14.0043 0.969332 15.3661L11.4756 27.0533C11.8672 27.4894 12.428 27.7387 13.0125 27.7387L19.8871 27.7446C20.258 27.7446 20.4538 27.3055 20.2046 27.0266Z"
        fill="white" class="letter" />
    <path
        d="M14.0207 0.723876L24.9691 12.9006C25.7167 13.7313 25.6485 15.0131 24.8177 15.7608L16.7504 23.1635H25.5179C26.0431 23.1635 26.5475 22.9677 26.9362 22.6146L33.0186 17.0752C34.3745 15.8439 34.4814 13.7462 33.256 12.3843L22.7497 0.697174C22.3581 0.26102 21.7973 0.0117902 21.2128 0.0117902L14.3382 0.00585938C13.9673 0.00585938 13.7715 0.444975 14.0207 0.723876Z"
        fill="white" class="letter" />
</svg>