<svg width="601" height="83" viewBox="0 0 601 83" fill="none" xmlns="http://www.w3.org/2000/svg">
<path opacity="0.3" d="M84.8022 29.5769H21.341C16.1716 29.5769 11.981 33.7675 11.981 38.937V43.4298C11.981 48.5992 16.1716 52.7898 21.341 52.7898H84.8022C89.9716 52.7898 94.1622 48.5992 94.1622 43.4298V38.937C94.1622 33.7675 89.9716 29.5769 84.8022 29.5769Z" fill="#AAAAAA"/>
<path opacity="0.3" d="M99.4047 59.0614H35.9435C30.7741 59.0614 26.5835 63.252 26.5835 68.4215V72.9143C26.5835 78.0837 30.7741 82.2743 35.9435 82.2743H99.4047C104.574 82.2743 108.765 78.0837 108.765 72.9143V68.4215C108.765 63.252 104.574 59.0614 99.4047 59.0614Z" fill="#AAAAAA"/>
<path d="M72.8212 0H9.36005C4.19064 0 0 4.19064 0 9.36005V13.8529C0 19.0223 4.19064 23.2129 9.36005 23.2129H72.8212C77.9906 23.2129 82.1813 19.0223 82.1813 13.8529V9.36005C82.1813 4.19064 77.9906 0 72.8212 0Z" fill="#AAAAAA"/>
<path d="M57.4708 29.5769H21.341C16.1716 29.5769 11.981 33.7675 11.981 38.937V43.4298C11.981 48.5992 16.1716 52.7899 21.341 52.7899H57.4708C62.6402 52.7899 66.8309 48.5992 66.8309 43.4298V38.937C66.8309 33.7675 62.6402 29.5769 57.4708 29.5769Z" fill="#AAAAAA"/>
<path d="M44.6484 59.0614H35.9435C30.7741 59.0614 26.5835 63.252 26.5835 68.4215V72.9143C26.5835 78.0837 30.7741 82.2743 35.9435 82.2743H44.6484C49.8178 82.2743 54.0085 78.0837 54.0085 72.9143V68.4215C54.0085 63.252 49.8178 59.0614 44.6484 59.0614Z" fill="#AAAAAA"/>
<path d="M183.766 5.33796V18.9297H164.238V77.5981H149.959V18.9297H130.517V5.33796H183.68H183.766Z" fill="#AAAAAA"/>
<path d="M220.928 25.9835H234.261V77.5979H220.928V71.4902C216.971 76.4796 211.293 79.0603 204.067 79.0603C196.841 79.0603 191.249 76.3935 186.346 71.1461C181.443 65.8986 178.948 59.4468 178.948 51.7907C178.948 44.1346 181.443 37.6828 186.346 32.4353C191.249 27.1879 197.185 24.5211 204.067 24.5211C211.293 24.5211 216.885 27.0158 220.928 32.0912V25.9835ZM196.325 62.2856C198.992 65.0384 202.433 66.3287 206.562 66.3287C210.691 66.3287 214.132 64.9524 216.799 62.2856C219.551 59.5328 220.842 56.0919 220.842 51.7907C220.842 47.4895 219.465 44.0485 216.799 41.2958C214.046 38.543 210.691 37.2527 206.562 37.2527C202.433 37.2527 198.992 38.629 196.325 41.2958C193.658 44.0485 192.282 47.4895 192.282 51.7907C192.282 56.0919 193.658 59.5328 196.325 62.2856Z" fill="#AAAAAA"/>
<path d="M275.327 24.5213C282.295 24.5213 288.231 27.188 293.134 32.4355C298.038 37.6829 300.532 44.1347 300.532 51.7909C300.532 59.447 298.038 65.8988 293.134 71.1463C288.231 76.3937 282.295 79.0605 275.327 79.0605C268.359 79.0605 262.51 76.5658 258.639 71.4903V77.5981H245.305V5.33795H258.639V32.0914C262.596 27.102 268.101 24.5213 275.327 24.5213ZM262.596 62.2858C265.262 65.0386 268.703 66.3289 272.833 66.3289C276.962 66.3289 280.403 64.9525 283.069 62.2858C285.822 59.533 287.113 56.0921 287.113 51.7909C287.113 47.4897 285.736 44.0487 283.069 41.2959C280.317 38.5432 276.962 37.2528 272.833 37.2528C268.703 37.2528 265.262 38.6292 262.596 41.2959C259.929 44.0487 258.553 47.4897 258.553 51.7909C258.553 56.0921 259.929 59.533 262.596 62.2858Z" fill="#AAAAAA"/>
<path d="M308.909 77.5982V5.19H322.243V77.5982H308.909Z" fill="#AAAAAA"/>
<path d="M344.641 57.2962C346.448 63.748 351.265 67.0169 359.179 67.0169C364.255 67.0169 368.126 65.2964 370.707 61.8555L381.46 68.0492C376.384 75.4473 368.9 79.0603 358.921 79.0603C350.405 79.0603 343.523 76.4795 338.362 71.3181C333.2 66.1567 330.619 59.6189 330.619 51.7907C330.619 43.9625 333.2 37.5107 338.276 32.3493C343.351 27.1878 349.889 24.5211 357.889 24.5211C365.459 24.5211 371.739 27.1018 376.642 32.3493C381.546 37.5967 384.04 44.0485 384.04 51.7907C384.04 53.5112 383.868 55.3177 383.524 57.2962H344.641ZM344.469 46.9733H370.793C370.018 43.4464 368.47 40.8656 366.061 39.1452C363.653 37.4247 360.986 36.5645 357.975 36.5645C354.362 36.5645 351.437 37.5107 349.115 39.3172C346.792 41.1237 345.243 43.7044 344.469 46.9733Z" fill="#AAAAAA"/>
<path d="M436.117 18.9297H407.213V36.0485H429.257V49.6403H407.213V77.512H392.933V5.33795H436.117V18.9297Z" fill="#AAAAAA"/>
<path d="M443.923 77.5982V5.6113H457.257V77.5982H443.923Z" fill="#AAAAAA"/>
<path d="M513.431 71.146C508.097 76.3935 501.645 79.0602 493.989 79.0602C486.333 79.0602 479.881 76.3935 474.634 71.146C469.387 65.8986 466.72 59.4468 466.72 51.7907C466.72 44.1345 469.387 37.6827 474.634 32.4353C479.881 27.1878 486.333 24.5211 493.989 24.5211C501.645 24.5211 508.097 27.1878 513.431 32.4353C518.764 37.6827 521.345 44.1345 521.345 51.7907C521.345 59.4468 518.678 65.8986 513.431 71.146ZM484.097 62.0275C486.763 64.6943 490.032 66.0706 494.075 66.0706C498.118 66.0706 501.387 64.6943 504.054 62.0275C506.721 59.3608 508.097 55.9198 508.097 51.7907C508.097 47.6615 506.721 44.2206 504.054 41.5538C501.387 38.8871 498.032 37.5107 494.075 37.5107C490.118 37.5107 486.763 38.8871 484.097 41.5538C481.43 44.2206 480.14 47.6615 480.14 51.7907C480.14 55.9198 481.43 59.3608 484.097 62.0275Z" fill="#AAAAAA"/>
<path d="M586.809 25.9839H600.917L584.487 77.5982H571.755L562.292 46.2855L552.83 77.5982H540.098L523.668 25.9839H537.776L546.55 57.6407L555.927 25.9839H568.486L577.863 57.8127L586.637 25.9839H586.809Z" fill="#AAAAAA"/>
</svg>
