<svg width="304" height="238" viewBox="0 0 162 127" fill="none" xmlns="http://www.w3.org/2000/svg">
    <path
        d="M85.0054 53.7896C84.6874 59.7366 84.2937 66.9687 84.2937 66.9687C84.8827 68.8768 85.1288 70.8742 85.0206 72.8682C88.9146 73.4069 94.6843 78.6985 97.0121 81.7207C100.601 86.3784 103.718 92.585 105.882 100.458C108.045 108.33 110.28 111.923 111.327 111.882C112.374 111.841 114.01 110.32 114.875 106.623C115.74 102.926 115.691 99.5078 115.851 96.2952C115.913 95.0361 115.678 92.8944 116.627 91.9101C116.919 91.6214 117.292 91.4283 117.696 91.3563L117.501 91.3195C117.501 91.3195 116.69 85.2924 118.263 84.0052C118.37 83.9181 118.486 83.8407 118.607 83.7737L118.494 83.1031V80.3361C114.6 78.1187 112.755 72.8141 114.946 68.8703V67.0293C113.874 67.326 112.783 67.5536 111.682 67.7108C108.766 68.1153 105.707 67.9963 102.951 66.7437C100.376 65.5755 98.1608 63.741 96.0126 61.8286C93.7562 59.821 91.5366 57.7463 89.0553 56.0654C87.7693 55.1982 86.4149 54.437 85.0054 53.7896Z"
        fill="#F4F6F9" />
    <path
        d="M38.4566 69.2619C38.3701 69.2893 38.2836 69.3153 38.197 69.3398C38.5756 71.3777 38.8179 73.3074 38.8179 73.3074C41.6497 73.1754 43.361 76.6606 40.6568 80.8791C43.4691 81.3248 44.8926 84.89 45.5914 88.4379C47.2829 84.4873 49.8263 80.9591 53.0398 78.1057C54.6926 76.6498 56.6786 75.7779 58.6516 74.8802C61.0031 73.8115 65.2888 72.8682 65.2888 72.8682C67.1795 70.4518 67.5538 67.1699 67.9951 64.0785C68.2764 62.1163 68.3088 60.1282 68.6073 58.1639C68.6614 57.8199 68.7134 57.3656 68.7609 56.8853L68.7242 56.8637C68.6609 56.9152 68.5874 56.9527 68.5086 56.9738C68.4298 56.9949 68.3474 56.999 68.2669 56.9859C68.1864 56.9728 68.1095 56.9428 68.0414 56.8979C67.9733 56.853 67.9155 56.7941 67.8718 56.7253C67.4119 55.8381 67.0492 54.9039 66.7901 53.9389H66.8247C65.7171 53.7355 64.5337 53.2293 64.1919 52.0156C58.6386 53.5148 53.9895 56.8183 49.6282 60.7729C47.2723 62.9103 44.9618 65.1234 42.4221 67.0012C41.1889 67.9271 39.9061 68.7946 38.4566 69.2619Z"
        fill="#F4F6F9" />
    <path
        d="M159.457 72.922C158.731 69.7484 157.822 66.4168 155.964 63.7796C154.105 61.1425 151.57 59.4248 148.706 58.4188C142.845 56.3572 136.58 57.9126 130.981 60.2079C131.37 60.4231 131.724 60.6951 132.033 61.0149C132.453 61.4294 132.769 61.9378 132.954 62.4982C133.139 63.0585 133.189 63.6549 133.099 64.2383L133.24 64.2815C135.139 64.8072 135.602 66.3129 135.323 67.9593L135.481 68.009C137.212 68.3075 137.441 70.3303 137.082 72.1194L137.534 72.3098C138.735 73.4239 138.544 76.0935 137.454 77.2509C136.999 77.6981 136.392 77.9575 135.754 77.9778L135.853 78.285C135.375 80.5868 133.739 81.5971 132.191 81.7961L131.989 84.7469C132.301 84.9036 132.595 85.0921 132.868 85.3094C133.962 86.2028 133.612 88.2169 133.612 89.6685V94.3738L133.179 94.2895C137.229 96.9591 136.208 101.394 136.387 104.596C136.584 107.55 136.55 110.516 136.288 113.465L145.119 113.359L150.348 113.297C151.983 113.277 153.738 113.457 155.347 113.13C157.153 112.762 157.889 111.287 158.417 109.532C158.897 107.927 159.316 106.301 159.674 104.654C160.423 101.161 160.916 97.6184 161.147 94.0537C161.624 86.965 161.055 79.8448 159.457 72.922Z"
        fill="#F4F6F9" />
    <path
        d="M21.431 108.326C21.0091 105.319 19.538 102.506 19.3628 99.4172C19.267 97.0992 19.3328 94.7773 19.5597 92.4685C19.8496 89.0655 20.2606 86.1947 22.1687 83.2309C22.5783 82.6024 23.0572 82.0219 23.5965 81.5003C23.5965 81.5003 20.7841 71.9815 21.855 71.3757C21.6567 71.3197 21.4673 71.236 21.2925 71.127C19.6253 71.8352 18.0313 72.7047 16.5331 73.723C11.4947 77.1368 7.55087 82.2336 4.95268 88.0249C3.64282 90.9747 2.63462 94.0493 1.94345 97.2019C1.29444 100.153 0.645435 103.415 0.861771 106.474C1.07811 109.719 2.61842 112.49 5.60818 113.382C7.07493 113.814 8.665 113.734 10.1685 113.745L15.4428 113.788L20.7149 113.832C21.1519 111.88 21.6711 109.977 21.431 108.326Z"
        fill="#F4F6F9" />
    <path
        d="M85.0208 72.8682C88.9148 73.4068 94.6845 78.6984 97.0122 81.7185C100.601 86.3783 103.719 92.585 105.882 100.457C108.045 108.33 110.28 111.923 111.327 111.882C112.374 111.841 114.008 110.32 114.875 106.623C115.743 102.926 115.691 99.5077 115.851 96.2952C115.914 95.0361 115.678 92.8944 116.627 91.91C117.67 90.8284 119.857 91.4016 121.201 91.6288C124.956 92.267 129.573 92.122 132.866 94.095C137.279 96.7365 136.197 101.314 136.383 104.596C136.816 112.215 136.565 114.115 136.044 115.925C135.639 117.323 135.074 122.115 131.948 122.253C128.822 122.392 132.26 117.723 133.811 120.663C134.689 122.327 132.803 125.152 131.708 126.007"
        stroke="#101828" stroke-width="1.51435" stroke-linecap="round" stroke-linejoin="round" />
    <path
        d="M20.6804 120.469C19.0038 116.575 21.9287 111.865 21.4311 108.326C21.0093 105.319 19.5382 102.506 19.3629 99.417C19.2671 97.099 19.3329 94.7771 19.5598 92.4683C19.8497 89.0653 20.2607 86.1945 22.1688 83.2307C23.9687 80.4184 27.0688 78.9797 29.786 77.1625C32.3128 75.4729 35.984 73.4372 38.818 73.3074C41.652 73.1776 43.3611 76.6606 40.6569 80.8791C45.9571 81.7185 46.3032 93.5737 46.2189 95.6311C46.141 97.5435 46.0025 102.744 43.8284 103.636C41.9917 104.388 42.022 102.911 42.1799 101.418C42.4719 98.6511 43.4584 95.7306 44.0815 93.0221C45.3795 87.3562 48.6548 81.9738 53.0443 78.11C54.6971 76.6541 56.683 75.7823 58.656 74.8845C61.0076 73.8158 65.2932 72.8726 65.2932 72.8726"
        stroke="#101828" stroke-width="1.51435" stroke-linecap="round" stroke-linejoin="round" />
    <path
        d="M117.508 91.3195C117.508 91.3195 116.697 85.2924 118.27 84.0052C119.842 82.718 123.488 83.3973 126.691 83.5941C129.895 83.791 131.78 84.4162 132.876 85.3097C133.973 86.2031 133.621 88.2172 133.621 89.6688V94.3741"
        stroke="#101828" stroke-width="1.51435" stroke-linecap="round" stroke-linejoin="round" />
    <path
        d="M118.494 80.3358C114.527 78.0729 112.675 72.5888 115.087 68.6256C117.004 65.4779 124.141 61.93 126.614 66.4211C128.478 69.8132 123.07 70.2091 121.123 69.545C122.65 69.8327 124.152 72.3768 124.152 74.7608"
        stroke="#101828" stroke-width="1.51435" stroke-linecap="round" stroke-linejoin="round" />
    <path
        d="M119.706 62.3218C121.707 61.4554 123.757 60.7078 125.845 60.0827C128.052 59.4727 130.337 59.2693 132.033 61.0151C134.784 63.8491 131.816 67.86 129.506 70.2094C127.516 72.2473 125.199 72.1564 124.653 70.2267"
        stroke="#101828" stroke-width="1.51435" stroke-linecap="round" stroke-linejoin="round" />
    <path
        d="M114.947 68.3876C114.947 61.5839 114.929 54.9554 116.762 48.4566C117.123 47.1802 117.826 42.8081 120.872 44.3462C122.579 45.2116 121.566 50.4361 121.463 52.1343C121.322 54.4361 121.285 59.1653 121.285 61.3892"
        stroke="#101828" stroke-width="1.51435" stroke-linecap="round" stroke-linejoin="round" />
    <path d="M127.081 64.4678C126.695 64.8419 126.379 65.2814 126.146 65.7658" stroke="#101828" stroke-width="1.51435"
        stroke-linecap="round" stroke-linejoin="round" />
    <path
        d="M133.24 64.2817C136.81 65.2704 135.306 69.7161 133.34 72.0871C131.373 74.4582 129.433 75.1634 128.109 74.5512C127.027 74.0515 126.19 72.7578 127.31 71.5917"
        stroke="#101828" stroke-width="1.51435" stroke-linecap="round" stroke-linejoin="round" />
    <path
        d="M135.481 68.0244C138.125 68.483 137.266 72.9655 136.156 74.4561C135.384 75.4923 133.993 76.7882 132.478 76.4226C131.371 76.1565 130.782 75.1246 131.362 73.9974"
        stroke="#101828" stroke-width="1.51435" stroke-linecap="round" stroke-linejoin="round" />
    <path
        d="M137.534 72.3076C138.735 73.4217 138.544 76.0913 137.454 77.2487C136.329 78.4407 133.588 78.2287 134.187 76.1887"
        stroke="#101828" stroke-width="1.51435" stroke-linecap="round" stroke-linejoin="round" />
    <path d="M135.853 78.2832C135.289 80.9982 133.117 81.9198 131.373 81.8289" stroke="#101828" stroke-width="1.51435"
        stroke-linecap="round" stroke-linejoin="round" />
    <path d="M132.188 81.8291L132.002 84.5701" stroke="#101828" stroke-width="1.51435" stroke-linecap="round"
        stroke-linejoin="round" />
    <path
        d="M23.588 81.5001C23.588 81.5001 20.7756 71.9813 21.8465 71.3756C22.9173 70.7698 27.7157 68.243 30.3874 66.9731C31.6681 66.3631 35.5102 64.1781 36.6612 64.641C37.8121 65.104 38.8245 73.3074 38.8245 73.3074"
        stroke="#101828" stroke-width="1.51435" stroke-linecap="round" stroke-linejoin="round" />
    <path
        d="M36.5466 64.0956C37.5742 61.0842 36.2394 55.7559 38.3422 53.4757C41.0399 50.5508 46.0654 47.5005 44.3585 45.6487C42.206 43.3101 39.4801 46.0164 37.5201 47.057C35.3741 48.1971 33.3016 49.3934 30.8591 50.8429C20.6611 46.6849 16.3798 48.9867 10.6015 50.2372C8.41431 50.7174 3.49916 52.4481 7.12278 54.5985C10.0195 56.3162 14.6945 56.6277 16.4252 59.6153C17.4961 61.4563 18.2619 63.9269 18.7746 65.9669C19.1273 67.3709 19.8433 70.8193 21.8488 71.3753"
        stroke="#101828" stroke-width="1.51435" stroke-linecap="round" stroke-linejoin="round" />
    <path d="M6.6814 51.9618C8.59597 51.421 13.4462 53.0435 14.6382 53.7985" stroke="#101828" stroke-width="1.51435"
        stroke-linecap="round" stroke-linejoin="round" />
    <path d="M11.7197 50.0947C13.8247 50.4733 16.226 51.6091 17.881 52.336" stroke="#101828" stroke-width="1.51435"
        stroke-linecap="round" stroke-linejoin="round" />
    <path d="M17.3208 49.1621C19.0169 49.6727 20.7259 50.7543 22.3593 51.4012" stroke="#101828" stroke-width="1.51435"
        stroke-linecap="round" stroke-linejoin="round" />
    <path
        d="M106.64 14.0518L106.64 14.0521C104.419 17.6015 103.198 21.6853 103.107 25.8716C103.025 30.237 104.252 34.344 106.652 37.7466L106.652 37.7467C109.171 41.3205 112.878 43.4032 117.079 43.6199C118.088 43.6718 119.105 43.7085 120.126 43.7085C123.364 43.7085 126.616 43.339 129.482 41.9348C133.42 39.9949 136.107 37.6734 137.946 34.6014C139.61 31.8068 141.213 27.5166 140.724 23.8459C139.574 15.2395 134.835 9.34103 127.389 7.2128C123.281 6.04047 119.285 5.95157 115.833 6.94661L106.64 14.0518ZM106.64 14.0518C108.877 10.4518 111.967 8.06374 115.833 6.94663L106.64 14.0518Z"
        fill="#F97066" stroke="#101828" stroke-width="0.216336" />
    <path
        d="M121.914 20.9159V23.9689M121.914 27.0219H121.922M120.858 17.0171L114.58 27.8603C114.232 28.4617 114.058 28.7624 114.083 29.0092C114.106 29.2245 114.219 29.4201 114.394 29.5474C114.594 29.6933 114.942 29.6933 115.637 29.6933H128.192C128.887 29.6933 129.234 29.6933 129.435 29.5474C129.61 29.4201 129.723 29.2245 129.745 29.0092C129.771 28.7624 129.597 28.4617 129.249 27.8602L122.971 17.017C122.624 16.4178 122.451 16.1181 122.224 16.0175C122.027 15.9297 121.802 15.9297 121.604 16.0175C121.378 16.1181 121.204 16.4178 120.858 17.0171Z"
        stroke="#FCFCFD" stroke-width="1.5265" stroke-linecap="round" stroke-linejoin="round" />
    <path d="M100.757 15.998H98.8901" stroke="#101828" stroke-width="1.51435" stroke-linecap="round"
        stroke-linejoin="round" />
    <path d="M127.719 1.38867L129.846 1.47304" stroke="#101828" stroke-width="1.51435" stroke-linecap="round"
        stroke-linejoin="round" />
    <path d="M144.383 22.0013L146.629 21.9429" stroke="#101828" stroke-width="1.51435" stroke-linecap="round"
        stroke-linejoin="round" />
    <path
        d="M65.2933 72.8685C67.1841 70.452 67.5583 67.1702 67.9996 64.0787C68.2809 62.1166 68.3133 60.1284 68.6119 58.1641C68.8087 56.8791 68.9991 54.0429 68.9991 54.0429C68.9991 54.0429 63.4241 54.6119 64.1727 50.5621C64.5859 48.336 67.3766 45.7746 69.7412 46.7113C70.308 42.1228 70.2106 37.4954 74.5806 34.7414C79.4914 31.65 84.8868 37.4132 88.3309 40.6907C90.7534 42.9939 92.9686 45.5059 94.9508 48.1975C92.0778 48.5566 85.2957 48.2538 85.2957 48.2538C85.0253 53.5756 84.2941 66.969 84.2941 66.969C85.6397 71.3757 85.1724 76.4034 83.0912 76.4769C81.0101 76.5505 79.8159 72.8641 78.2042 71.0577C77.38 73.2384 74.665 76.7582 71.831 76.7625C68.997 76.7668 66.2971 74.6229 65.2933 72.8685Z"
        stroke="#101828" stroke-width="1.51435" stroke-linecap="round" stroke-linejoin="round" />
    <path d="M67.9065 65.5884C71.3679 69.3288 79.4675 68.8183 83.5865 66.709" stroke="#101828" stroke-width="1.51435"
        stroke-linecap="round" stroke-linejoin="round" />
    <path
        d="M66.4138 50.469C66.6597 50.4466 66.9074 50.4862 67.1341 50.5841C67.3608 50.6819 67.5594 50.835 67.7118 51.0293"
        stroke="#101828" stroke-width="1.51435" stroke-linecap="round" stroke-linejoin="round" />
    <path d="M75.8071 50.1943C76.3415 51.1549 77.447 51.3712 78.4205 50.9407" stroke="#101828" stroke-width="1.51435"
        stroke-linecap="round" stroke-linejoin="round" />
    <path d="M77.0532 44.2796V43.5029" stroke="#101828" stroke-width="1.51435" stroke-linecap="round"
        stroke-linejoin="round" />
    <path d="M81.1636 43.7495V42.8149" stroke="#101828" stroke-width="1.51435" stroke-linecap="round"
        stroke-linejoin="round" />
    <path
        d="M77.555 78.6641C77.7713 80.8166 76.6464 84.0076 76.257 86.1125C75.6469 89.3986 74.5696 92.5074 74.5587 95.1294C74.5479 97.7514 75.1147 99.0753 76.575 100.105C78.0353 101.135 78.5999 101.847 78.5004 103.716C78.3619 106.294 77.317 109.124 76.2483 111.445C75.5798 112.899 74.3229 114.474 75.7854 115.725C77.5334 117.204 79.6794 115.904 80.3479 118.97C80.7416 120.798 80.1143 123.19 79.6318 124.908"
        stroke="#101828" stroke-width="1.51435" stroke-linecap="round" stroke-linejoin="round" />
    <path d="M85.6396 91.5056C88.4131 91.5056 90.8101 91.2503 93.4775 91.6419" stroke="#101828" stroke-width="1.51435"
        stroke-linecap="round" stroke-linejoin="round" />
    <path d="M91.4873 90.043L91.2991 93.963" stroke="#101828" stroke-width="1.51435" stroke-linecap="round"
        stroke-linejoin="round" />
    <path d="M89.2459 89.6689C89.2459 91.3996 89.6028 93.4721 89.0598 95.0773" stroke="#101828" stroke-width="1.51435"
        stroke-linecap="round" stroke-linejoin="round" />
    <path d="M77.2395 93.1648L77.988 92.7905" stroke="#101828" stroke-width="1.51435" stroke-linecap="round"
        stroke-linejoin="round" />
    <path d="M80.7698 105.66L81.4231 105.498" stroke="#101828" stroke-width="1.51435" stroke-linecap="round"
        stroke-linejoin="round" />
    <path d="M83.3055 119.822L82.7473 119.861" stroke="#101828" stroke-width="1.51435" stroke-linecap="round"
        stroke-linejoin="round" />
    <path
        d="M67.9742 56.6711C67.5449 55.8422 67.2011 54.9719 66.9481 54.0736C67.589 54.1746 68.2393 54.2036 68.8868 54.16L68.8778 54.2887C68.8665 54.4487 68.85 54.6757 68.8295 54.9431C68.7893 55.4666 68.7336 56.1449 68.6705 56.7807C68.6262 56.8167 68.5757 56.8445 68.5213 56.8626C68.4548 56.8848 68.3842 56.8919 68.3146 56.8835C68.2451 56.875 68.1782 56.8513 68.1189 56.8139C68.0609 56.7773 68.0116 56.7286 67.9742 56.6711Z"
        fill="#D0D5DD" stroke="#101828" stroke-width="0.216336" />
    <path
        d="M68.7833 37.8056C66.5866 39.3462 66.3955 42.7955 66.2529 45.3714C66.2473 45.4711 66.2419 45.5694 66.2364 45.6663C66.2045 46.225 66.1817 46.7873 66.1665 47.35C66.203 47.321 66.2398 47.2927 66.2771 47.265M68.7833 37.8056L69.4533 48.6907C69.0359 47.992 68.6596 47.2697 68.3262 46.5273C67.5773 46.6387 66.8705 46.9409 66.2733 47.4037C66.2745 47.3575 66.2758 47.3112 66.2771 47.265M68.7833 37.8056C68.7867 37.8094 68.7902 37.8133 68.7937 37.8171L68.8735 37.7441L68.8139 37.6538C68.8103 37.6562 68.8067 37.6586 68.8031 37.661C68.7917 37.6463 68.7805 37.6315 68.7697 37.6164M68.7833 37.8056L73.3582 32.3508M66.2771 47.265C66.8739 46.8208 67.5721 46.5301 68.3103 46.4203L68.3913 46.4083L68.4249 46.483C68.7564 47.2212 69.1305 47.9394 69.5455 48.6341L75.4559 36.4066C75.9748 35.8225 76.4706 35.3357 77.0464 34.9967C77.6249 34.6561 78.2791 34.4676 79.1108 34.4709C79.2928 34.4709 79.4727 34.4736 79.6505 34.4763C80.7138 34.4923 81.7033 34.5072 82.6275 33.9354L82.6278 33.9352C82.8356 33.8077 82.882 33.6139 82.8291 33.4432C82.7744 33.2669 82.6126 33.113 82.3908 33.0857L82.3916 33.0857L82.4032 32.9782L82.3901 33.0856L77.604 32.5687L77.604 32.5687C77.4235 32.5491 77.2432 32.5284 77.0632 32.5077C75.8238 32.3653 74.5964 32.2243 73.3785 32.4571M66.2771 47.265C66.2922 46.7327 66.3142 46.2009 66.3444 45.6725L66.3444 45.6724C66.3499 45.5759 66.3553 45.478 66.3608 45.3789C66.4304 44.1216 66.511 42.6679 66.8279 41.3293C67.1698 39.8851 67.7823 38.5953 68.9332 37.8343L69.0388 37.7645L68.9533 37.671C68.9196 37.6342 68.8881 37.5955 68.8588 37.5551M68.8588 37.5551C68.6385 37.2182 68.5487 36.8124 68.6063 36.4139L68.6064 36.414L68.6069 36.4094C68.7128 35.3644 69.4223 34.4682 70.3582 33.7829C71.2928 33.0986 72.4373 32.637 73.3785 32.4571M68.8588 37.5551C68.8584 37.5545 68.8579 37.5538 68.8574 37.5532L68.7697 37.6164M68.8588 37.5551C68.8593 37.5558 68.8597 37.5564 68.8601 37.5571L68.7697 37.6164M73.3785 32.4571L73.3582 32.3508M73.3785 32.4571C73.3785 32.4571 73.3785 32.4571 73.3785 32.4571L73.3582 32.3508M73.3582 32.3508C71.4458 32.7164 68.7199 34.2221 68.4993 36.3985C68.4377 36.8239 68.5339 37.2571 68.7697 37.6164"
        fill="#BCAEFB" stroke="#BCAEFB" stroke-width="0.216336" />
    <path d="M118.494 83.1029V80.3359" stroke="#101828" stroke-width="1.51435" stroke-linecap="round"
        stroke-linejoin="round" />
    <path
        d="M29.4593 61.4824C29.1395 61.4575 28.8185 61.5127 28.5254 61.643C28.2323 61.7733 27.9763 61.9746 27.7805 62.2288"
        stroke="#101828" stroke-width="1.51435" stroke-linecap="round" stroke-linejoin="round" />
</svg>