<svg width="175" height="193" viewBox="0 0 175 193" fill="none" xmlns="http://www.w3.org/2000/svg">
    <path
        d="M171.613 106.869C169.689 102.949 166.93 99.4059 163.881 96.2992C160.952 93.3175 157.577 90.9425 154.351 88.3114C151.33 85.848 148.509 83.0004 148.061 78.9272C147.558 74.4333 149.144 69.9364 149.997 65.5858C150.914 61.095 150.923 56.4661 150.023 51.9719C149.123 47.4777 147.332 43.2092 144.756 39.4181C139.72 31.9516 132.256 26.4486 124.043 22.8937C116.006 19.415 106.891 18.1955 99.4028 13.5156C95.4393 11.0431 92.4454 7.34492 88.6009 4.70162C84.9058 2.16504 80.5674 0.890647 76.1528 0.40894C67.5643 -0.527036 57.7503 1.82967 50.3235 6.20162C46.5064 8.44248 43.5034 11.5705 41.1771 15.3053C39.0979 18.6224 37.5552 22.2352 35.668 25.6711C33.8387 28.9791 31.7046 31.9852 28.5034 34.0949C25.1924 36.287 21.4912 37.7778 18.1223 39.8876C14.5064 42.162 11.4363 45.162 9.69848 49.1163C8.01964 53.0704 7.33808 57.3765 7.71373 61.6559C8.45153 71.3419 13.5247 79.726 16.0247 88.9486C17.1223 93.0035 17.7625 97.4028 16.8448 101.558C15.8235 106.171 12.4332 109.574 10.8784 113.97C10.0192 116.475 9.63051 119.117 9.73202 121.763C12.1497 121.119 14.9698 123.156 16.1101 124.074C20.7503 127.802 23.2717 133.927 24.8753 139.263C24.3052 137.433 24.3906 135.522 23.9424 133.662C23.3686 131.419 22.5507 129.245 21.5034 127.18C20.4729 125.046 18.3082 121.973 17.6802 119.604C17.2656 118.04 18.1863 116.555 19.168 116.366C21.607 115.921 22.979 117.552 23.8814 118.397C26.6253 120.949 28.1893 124.089 29.979 127.339C31.5979 130.263 32.1131 132.522 33.5308 136.18L33.5491 136.25C33.778 135.768 34.1425 135.364 34.5979 135.086C35.6131 134.503 36.4271 134.735 37.0704 135.327L37.3509 134.863C38.671 130.232 40.0948 126.122 43.6101 119.619C47.1253 113.116 52.6223 105.439 55.671 101.476C56.3418 98.1986 56.7381 91.7778 61.3631 89.2047C61.5643 89.348 61.7899 89.5096 62.0247 89.6498L61.9729 89.5095C59.8906 82.4242 56.3906 64.8144 55.5247 58.2108C54.0674 58.3327 47.6375 60.6894 45.729 61.223C43.4973 61.8327 37.2442 63.3297 34.2534 64.0187C31.2625 64.7077 40.3296 49.8998 42.9149 46.1467C47.4149 39.6193 52.6253 32.5705 58.8113 27.5492C59.2442 27.1955 59.6649 26.8175 60.0857 26.4364C58.2678 26.2114 56.5062 25.6566 54.8875 24.7992C53.9881 24.348 54.3906 23.2565 55.3265 23.1742C62.1345 22.5644 66.1253 17.6559 72.8143 16.4821C76.4119 15.848 80.7412 16.4547 84.1375 17.7535C86.7991 18.7687 89.046 20.7321 89.6589 23.5095C96.2899 23.1559 98.5003 33.1467 99.2747 38.1681C99.4241 39.1224 99.543 40.0797 99.6375 41.037C100.143 40.8546 100.658 40.6989 101.18 40.5705C105.537 39.5096 111.119 40.976 109.958 46.473C109 50.9974 104.104 52.3236 99.7229 52.8175C99.5308 55.723 99.2229 58.6102 98.8784 61.5035C98.8568 61.635 98.809 61.7608 98.7378 61.8734C98.6666 61.9861 98.5735 62.0833 98.464 62.1592C98.3545 62.2352 98.2308 62.2883 98.1004 62.3155C97.9699 62.3427 97.8353 62.3434 97.7046 62.3175C97.9149 63.3327 98.1162 64.348 98.2991 65.3663C98.729 67.7595 100.281 77.6224 100.281 77.6224L100.336 77.851C100.381 77.8236 100.43 77.7931 100.473 77.7717C101.613 77.2047 103.619 79.476 104.086 80.1498C106.653 83.8419 108.049 87.9516 108.397 91.3967C112.766 91.7717 120.619 94.9943 123.641 96.8845C131.567 101.866 137.65 106.714 143.964 113.689C151.323 121.824 158.086 130.683 162.93 140.5C163.013 140.668 163.089 140.833 163.168 140.997C166.391 138.235 169.22 135.046 171.299 131.354C175.641 123.613 175.5 114.757 171.613 106.869Z"
        fill="#FDA29B" />
    <path
        d="M30.3555 150.574C31.8941 148.133 32.7374 145.319 32.7945 142.434C32.8189 140.534 32.511 136.26 34.5841 135.074C37.1146 133.629 38.3768 137.208 38.9317 138.867C40.1969 142.662 39.514 147.787 39.0689 151.711C38.8951 153.26 37.1177 158.995 37.7914 159.76"
        stroke="#333333" stroke-width="2.13415" stroke-linecap="round" stroke-linejoin="round" />
    <path
        d="M75.8061 184.415C75.8061 184.415 71.0926 181.062 69.4036 179.775C67.7146 178.489 66.05 176.815 64.5256 175.327C61.3335 172.239 61.0591 167.952 60.867 163.684C60.6109 158.232 60.6994 152.842 61.9097 147.489C62.4859 144.937 63.7756 139.257 64.7695 137.034C65.7634 134.812 66.2207 132.461 69.1018 131.736C74.3396 130.415 69.6323 141.187 70.5987 144.653"
        stroke="#333333" stroke-width="2.13415" stroke-linecap="round" stroke-linejoin="round" />
    <path
        d="M68.7949 146.961C71.426 143.867 73.3955 140.208 76.1821 137.159C78.862 134.23 81.6181 131.016 84.5205 128.272C86.7492 126.162 89.3529 123.952 92.0846 122.373C93.5022 121.553 96.9199 119.989 96.9779 123.611C97.0297 126.787 91.2157 130.47 88.4413 133.464"
        stroke="#333333" stroke-width="2.13415" stroke-linecap="round" stroke-linejoin="round" />
    <path
        d="M82.9434 138.891C88.2482 133.748 92.8702 128.553 99.3702 124.839C100.773 124.04 104.459 122.513 105.306 124.873C106.178 127.296 102.706 129.141 101.178 130.278C99.6995 131.391 94.1873 136.132 92.861 137.415"
        stroke="#333333" stroke-width="2.13415" stroke-linecap="round" stroke-linejoin="round" />
    <path
        d="M90.2812 139.294C95.2386 135.8 98.2569 132.845 103.729 130.943C105.732 130.248 107.928 130.028 107.998 132.586C108.077 135.47 105.104 137.159 102.83 138.489C100.681 139.748 97.8056 141.992 95.6471 143.257"
        stroke="#333333" stroke-width="2.13415" stroke-linecap="round" stroke-linejoin="round" />
    <path
        d="M93.2755 144.696C96.0712 142.928 99.2541 141.12 102.422 140.327C103.855 139.971 108.733 138.379 108.001 141.867C107.754 143.065 106.303 144.205 105.443 144.983C103.919 146.352 102.239 147.727 100.803 149.233C99.4462 150.666 98.059 151.827 96.8182 153.4C95.7816 154.708 94.7419 155.971 93.7298 157.3C91.6688 160.004 90.4218 163.251 88.748 166.211"
        stroke="#333333" stroke-width="2.13415" stroke-linecap="round" stroke-linejoin="round" />
    <path
        d="M33.5107 136.165C32.1021 132.507 31.5778 130.251 29.9589 127.324C28.1631 124.074 26.5899 120.922 23.8613 118.382C22.9467 117.537 21.596 115.906 19.1479 116.351C18.1662 116.531 17.2454 118.025 17.6601 119.589C18.2881 121.958 20.4528 125.034 21.4832 127.165C22.5306 129.23 23.3485 131.404 23.9223 133.647C24.3704 135.507 24.2851 137.434 24.8552 139.248C23.2515 133.912 20.7302 127.787 16.09 124.059C14.7698 122.998 11.2119 120.431 8.6052 122.266C6.21495 123.958 10.3979 126.626 11.1875 127.586C14.1509 131.19 16.8095 134.955 18.471 139.351C17.5839 136.303 14.1723 132.483 11.6021 130.708C10.1235 129.69 7.36739 127.464 5.44971 128.269C0.897876 130.172 7.68751 135.479 8.80336 136.501C10.0443 137.639 11.1623 138.904 12.1387 140.275C12.6997 141.053 13.7576 142.26 13.9893 143.193C12.2271 141.089 10.3948 138.379 8.03507 136.315C5.67532 134.251 3.30946 134.848 2.24239 136.01C-0.806389 139.364 5.90093 143.248 7.7302 145.138C10.407 147.903 11.2881 151.489 12.718 155.001C14.0046 158.159 13.8521 161.748 14.4101 165.062C15.2729 170.205 16.654 174.29 21.6204 176.513C24.346 177.733 27.1479 178.867 30.1082 179.33C31.3826 179.531 35.4649 180.452 35.4649 180.452C36.777 179.315 37.7938 177.876 38.4284 176.26C39.6753 173.266 40.2881 169.973 40.7973 166.766C41.2332 164.044 41.7973 161.306 41.6448 158.534C41.5686 157.159 41.4497 156.946 40.593 156.339C40.0839 155.979 38.9375 155.662 39.0076 155.51"
        stroke="#333333" stroke-width="2.13415" stroke-linecap="round" stroke-linejoin="round" />
    <path
        d="M98.5138 166.918C98.2089 166.992 96.5808 171.187 95.9955 172.022C93.34 175.815 89.7943 179.422 85.7668 181.745C81.8461 184.007 77.0443 185.403 73.4863 184.428C74.7058 185.598 76.2302 187.55 77.4802 188.531C79.1449 189.851 80.8034 191.168 82.1235 191.787"
        stroke="#333333" stroke-width="2.13415" stroke-linecap="round" stroke-linejoin="round" />
    <path
        d="M90.7461 162.321C90.7461 162.321 96.2339 165.781 98.5296 166.754C100.969 165.577 105.6 169.543 107.694 171.327C109.347 172.742 110.743 173.123 110.072 175.54C109.38 178.059 108.017 180.339 106.676 182.534C105.314 184.604 103.721 186.512 101.929 188.223"
        stroke="#333333" stroke-width="2.13415" stroke-linecap="round" stroke-linejoin="round" />
    <path d="M40.8184 155.964C41.1232 152.964 45.736 153.671 46.861 154.306" stroke="#333333" stroke-width="2.13415"
        stroke-linecap="round" stroke-linejoin="round" />
    <path
        d="M76.1815 137.159C77.7547 134.135 77.9833 131.367 78.1358 129.751C78.3065 127.952 78.3888 125.745 77.6693 124.068C77.0595 122.662 75.8248 121.611 75.4498 120.074C74.8004 117.403 76.3644 114.422 76.4833 111.727C76.6571 108.111 76.4833 103.824 75.1602 100.428"
        stroke="#333333" stroke-width="2.13415" stroke-linecap="round" stroke-linejoin="round" />
    <path
        d="M57.9863 103.129C57.9863 103.129 58.5961 104.742 59.3065 106.669C59.8126 108.047 61.026 110.589 62.3552 111.342C66.1357 113.477 69.5961 105.245 70.4101 102.852C71.3491 100.092 72.3613 97.0771 73.0717 94.4156C77.8674 98.0009 79.843 104.992 84.7851 108.541C91.8644 113.623 96.4345 107.626 100.639 102.05C102.282 99.8668 105.8 95.1259 105.925 92.7021"
        stroke="#333333" stroke-width="2.13415" stroke-linecap="round" stroke-linejoin="round" />
    <path
        d="M37.3301 134.848C38.6502 130.217 40.074 126.108 43.5892 119.605C47.1045 113.101 52.6014 105.425 55.6502 101.461C56.3209 98.1838 56.7173 91.7631 61.3423 89.1899C63.3819 90.6289 67.1959 92.6045 70.1837 92.7539C74.3532 92.9974 78.5301 92.4236 82.4795 91.0649C86.9337 89.4856 92.4978 86.1868 95.5496 82.6503C96.8758 81.1106 99.3179 78.3301 100.455 77.7722C101.592 77.2143 103.601 79.4765 104.068 80.1503C106.635 83.8423 108.031 87.9521 108.379 91.3972C112.748 91.7722 120.601 94.9948 123.623 96.885C131.55 101.867 137.632 106.714 143.946 113.69C151.306 121.824 158.068 130.684 162.912 140.501C166.553 147.873 168.342 155.153 170.739 162.912"
        stroke="#333333" stroke-width="2.13415" stroke-linecap="round" stroke-linejoin="round" />
    <path d="M78.3672 119.879V119.312" stroke="#333333" stroke-width="2.13415" stroke-linecap="round"
        stroke-linejoin="round" />
    <path
        d="M100.26 77.6045C100.26 77.6045 98.708 67.7417 98.2781 65.3484C97.5433 61.2722 96.4702 57.1411 95.9427 53.0984C100.711 52.8301 108.687 52.3758 109.937 46.4642C111.098 40.9764 105.516 39.5008 101.159 40.5618C98.7415 41.1472 96.7445 42.324 94.4366 43.1868C94.5098 40.885 92.9976 37.6228 92.2141 35.452C91.1693 32.7414 89.6748 30.2264 87.7933 28.013C83.9519 23.4398 77.3299 21.5313 71.5677 21.7417C69.1817 21.8254 66.8259 22.3023 64.5952 23.1533C62.2964 24.01 60.6683 26.0191 58.8025 27.5405C52.6165 32.5466 47.4061 39.5953 42.9061 46.138C40.3208 49.8911 31.2537 64.702 34.2445 64.01C37.2354 63.3179 43.4885 61.8362 45.7202 61.2142C47.6287 60.6807 54.0586 58.324 55.5159 58.202C56.3817 64.7966 59.8817 82.4155 61.9641 89.5008"
        stroke="#333333" stroke-width="2.13415" stroke-linecap="round" stroke-linejoin="round" />
    <path d="M70.6289 43.4855V41.7446" stroke="#333333" stroke-width="2.13415" stroke-linecap="round"
        stroke-linejoin="round" />
    <path d="M61.7114 44.9003L61.2754 43.2144" stroke="#333333" stroke-width="2.13415" stroke-linecap="round"
        stroke-linejoin="round" />
    <path d="M69.4688 34.2903C70.5572 34.0494 72.1029 34.3757 72.9566 34.8116" stroke="#333333" stroke-width="2.13415"
        stroke-linecap="round" stroke-linejoin="round" />
    <path d="M56.5996 38.0067C57.061 37.2286 57.7166 36.5836 58.502 36.1348" stroke="#333333" stroke-width="2.13415"
        stroke-linecap="round" stroke-linejoin="round" />
    <path
        d="M83.5804 41.0769L83.4493 40.8452C83.3375 40.646 83.1648 40.488 82.9566 40.3943C82.7483 40.3006 82.5155 40.2761 82.2923 40.3246C82.0691 40.373 81.8674 40.4918 81.7168 40.6635C81.5661 40.8351 81.4745 41.0505 81.4554 41.2781C81.3466 41.9223 81.2 42.5596 81.0164 43.1866C80.2603 46.0494 79.3182 49.6135 80.8609 51.4458C81.1535 51.7812 81.5185 52.0458 81.9284 52.2196C82.3382 52.3933 82.7822 52.4717 83.2267 52.4488C83.3578 52.4488 83.492 52.4488 83.6322 52.4488C85.1719 52.3147 85.8944 51.5342 86.2298 50.8848C87.4706 48.5068 85.4676 44.394 83.5804 41.0769Z"
        fill="#9ED5F0" />
    <path
        d="M65.3556 60.1409C68.0111 59.9671 69.1392 59.7567 71.1026 57.5708C72.0934 56.4641 73.4258 54.3208 75.9532 56.5311C78.4806 58.7415 74.0325 65.8543 68.9623 66.708C66.8434 67.0647 63.7093 65.9884 63.1087 63.6592C62.5081 61.3299 63.9806 59.8848 65.3556 60.1409Z"
        stroke="#333333" stroke-width="2.13415" stroke-linecap="round" stroke-linejoin="round" />
    <path
        d="M66.5801 66.5738C67.3209 64.6805 68.074 63.2811 69.824 62.2079C70.7386 61.65 76.013 59.1988 76.4795 59.6683"
        stroke="#333333" stroke-width="2.13415" stroke-linecap="round" stroke-linejoin="round" />
    <path
        d="M95.9434 53.0982C96.3397 56.147 97.047 59.2293 97.6842 62.3086C97.8149 62.3345 97.9495 62.3338 98.08 62.3066C98.2104 62.2794 98.3341 62.2263 98.4436 62.1503C98.5531 62.0744 98.6462 61.9772 98.7174 61.8645C98.7886 61.7519 98.8364 61.6261 98.858 61.4946C99.2025 58.6135 99.5104 55.7019 99.7025 52.8086C98.3671 52.961 97.0623 53.0342 95.9434 53.0982Z"
        fill="#333333" />
    <path
        d="M99.6171 41.0282C99.5226 40.0709 99.4037 39.1136 99.2543 38.1593C98.4738 33.1379 96.2696 23.1471 89.6385 23.5008C89.0287 20.7233 86.7787 18.7599 84.1171 17.7447C80.7116 16.4459 76.3915 15.8392 72.7939 16.4733C66.1049 17.6471 62.1232 22.5709 55.3061 23.1654C54.3702 23.2477 53.9677 24.3392 54.8671 24.7904C57.547 26.1379 59.8763 26.6776 62.8275 26.4733C66.1324 26.2416 69.2299 26.1501 72.4738 26.9794C75.2757 27.6959 78.0744 28.6684 81.0104 28.5709C83.2299 28.4977 83.236 28.4825 85.1476 27.4001C84.0683 30.3422 84.5226 32.1136 86.2025 34.7995C88.5592 38.5709 91.175 42.3117 93.6171 46.8575C93.922 47.4306 95.044 47.4367 95.169 46.6562C95.3762 45.3544 95.5157 44.0427 95.5866 42.7264C96.9403 42.1532 98.233 41.519 99.6171 41.0282Z"
        fill="#333333" />
    <path d="M102.338 45.3301L100.262 46.8392" stroke="#333333" stroke-width="2.13415" stroke-linecap="round"
        stroke-linejoin="round" />
    <path
        d="M110.529 174.318C112.008 173.214 115.712 173.355 117.541 173.727C121.087 174.452 123.206 177.409 124.84 180.373C124.645 178.544 124.139 177.187 125.977 175.986C127.444 175.028 129.429 175.102 131.072 175.419C132.176 175.632 136.767 176.754 136.737 178.443C136.703 180.467 133.267 179.239 132.359 178.589C130.529 177.278 129.746 174.65 129.734 172.492C129.715 169.873 130.801 165.233 133.243 163.983C127.203 164.077 124.474 153.062 125.621 148.553"
        stroke="#333333" stroke-width="2.13415" stroke-linecap="round" stroke-linejoin="round" />
    <path
        d="M76.7209 58.2201C76.7665 57.916 76.7016 57.6055 76.538 57.3451C76.2331 56.8024 75.3825 56.3299 74.6569 56.089C74.3222 55.8973 73.9447 55.7927 73.5591 55.7847C73.1734 55.7767 72.7919 55.8656 72.4496 56.0433C71.5045 56.5646 70.7484 57.5158 70.0106 58.2598C69.1417 59.1195 68.0929 59.4793 66.977 59.9061C66.5334 59.6797 66.0259 59.6109 65.538 59.711C64.4222 59.8573 63.6569 60.8543 63.4679 61.9122C63.2941 62.8665 63.4313 64.5159 64.4526 64.961C64.6375 65.0496 64.8432 65.0855 65.0471 65.0646C65.3002 65.7476 66.2971 66.0921 66.6478 65.2719C66.7087 65.1348 66.7758 64.9671 66.8459 64.7963C67.8639 63.8175 69.0309 63.0066 70.3032 62.3939C70.45 62.3326 70.5736 62.2265 70.6563 62.0906C70.739 61.9548 70.7765 61.7963 70.7636 61.6378C71.1539 61.3695 71.5441 61.1043 71.9404 60.8512C73.0404 60.4161 74.1924 60.126 75.3673 59.9884C76.5624 59.8634 77.0715 59.1622 76.7209 58.2201Z"
        fill="#333333" />
    <path d="M70.3379 170.659C71.3806 170.793 72.2525 170.278 73.1824 170.049" stroke="#333333" stroke-width="2.13415"
        stroke-linecap="round" stroke-linejoin="round" />
</svg>