<svg width="757" height="166" viewBox="0 0 757 166" fill="none" xmlns="http://www.w3.org/2000/svg">
<g filter="url(#filter0_d_321_71)">
<path d="M208.571 0H189.571V115H208.571V0Z" fill="#F4F4F4"/>
<path d="M285.539 26.4805C291.195 29.4724 295.608 33.894 298.793 39.7746C301.979 45.6406 303.571 52.7298 303.571 61.0276V115H284.97V63.8574C284.97 55.6628 282.938 49.3842 278.876 45.0068C274.814 40.6295 269.276 38.4482 262.247 38.4482C255.218 38.4482 249.651 40.6295 245.53 45.0068C241.409 49.3842 239.349 55.6628 239.349 63.8574V115H220.571V23.4886H239.349V33.953C242.417 30.1946 246.348 27.2617 251.127 25.1541C255.905 23.0465 260.975 22 266.353 22C273.484 22 279.884 23.4886 285.539 26.4805" fill="#F4F4F4"/>
<path d="M317.244 44.3315C321.02 37.2841 326.167 31.7929 332.685 27.8728C339.203 23.9527 346.465 22 354.455 22C361.469 22 367.68 23.4389 373.105 26.3019C378.529 29.1649 382.714 32.6445 385.674 36.7261V23.4976H404.571V158H385.674V101.415C382.714 105.497 378.442 108.977 372.857 111.84C367.272 114.703 360.915 116.141 353.799 116.141C346.013 116.141 338.926 114.13 332.525 110.107C326.109 106.084 321.02 100.461 317.244 93.2374C313.467 86.0138 311.571 77.8212 311.571 68.6743C311.571 59.5274 313.467 51.4082 317.244 44.3461M381.81 52.6121C379.229 47.9873 375.861 44.4489 371.705 42.0264C367.549 39.6038 363.058 38.3852 358.232 38.3852C353.405 38.3852 348.914 39.5745 344.759 41.9383C340.588 44.3168 337.235 47.7817 334.654 52.3625C332.073 56.9434 330.79 62.3757 330.79 68.6596C330.79 74.9435 332.073 80.464 334.654 85.2063C337.22 89.9486 340.618 93.5604 344.832 96.0417C349.046 98.523 353.507 99.7709 358.217 99.7709C362.927 99.7709 367.52 98.5523 371.69 96.1298C375.846 93.7072 379.214 90.1542 381.795 85.4559C384.376 80.7723 385.659 75.2812 385.659 68.9973C385.659 62.7134 384.376 57.2517 381.795 52.6268" fill="#F4F4F4"/>
<path d="M498.571 24V114.671H479.791V103.982C476.824 107.705 472.966 110.641 468.186 112.787C463.407 114.919 458.336 116 452.957 116C445.825 116 439.424 114.525 433.767 111.561C428.111 108.596 423.668 104.215 420.424 98.4032C417.179 92.5911 415.571 85.567 415.571 77.3454V24.0292H434.177V74.5416C434.177 82.661 436.208 88.8819 440.271 93.219C444.334 97.5562 449.873 99.7175 456.903 99.7175C463.933 99.7175 469.502 97.5562 473.623 93.219C477.745 88.8819 479.791 82.661 479.791 74.5416V24.0292H498.571V24Z" fill="#F4F4F4"/>
<path d="M595.909 76.0368H526.122C526.681 83.3082 529.373 89.1428 534.242 93.5409C539.097 97.9535 545.069 100.153 552.145 100.153C562.31 100.153 569.489 95.9158 573.696 87.4276H594.085C591.32 95.7985 586.318 102.659 579.08 107.996C571.843 113.332 562.869 116 552.145 116C543.422 116 535.596 114.05 528.696 110.136C521.782 106.222 516.369 100.724 512.456 93.6142C508.528 86.5041 506.571 78.2798 506.571 68.912C506.571 59.5443 508.484 51.32 512.294 44.2099C516.104 37.0998 521.459 31.6316 528.373 27.776C535.272 23.9205 543.216 22 552.16 22C561.104 22 568.459 23.8765 575.197 27.6148C581.934 31.3531 587.186 36.616 590.937 43.389C594.688 50.1619 596.571 57.9464 596.571 66.757C596.571 70.1728 596.351 73.2514 595.909 76.0075M576.844 60.8051C576.727 53.8709 574.241 48.3147 569.386 44.122C564.517 39.9439 558.5 37.8475 551.321 37.8475C544.804 37.8475 539.229 39.9145 534.581 44.0487C529.932 48.1828 527.166 53.7683 526.298 60.8197H576.859L576.844 60.8051Z" fill="#F4F4F4"/>
<path d="M635.336 25.9051C639.9 23.3115 645.311 22 651.571 22V41.5991H646.789C639.431 41.5991 633.859 43.4854 630.056 47.2431C626.268 51.0008 624.366 57.5437 624.366 66.8422V115H605.571V23.5031H624.366V36.7951C627.116 32.1532 630.773 28.5134 635.321 25.9198" fill="#F4F4F4"/>
<path d="M752.571 24L697.141 157H677.801L696.166 112.992L660.571 24H681.396L706.819 92.9554L733.217 24H752.571Z" fill="#F4F4F4"/>
<path d="M103.096 133.32L49.0893 73.2535C45.401 69.1554 45.7377 62.8326 49.8358 59.1443L89.6312 22.6273H46.3817C43.7911 22.6273 41.303 23.5933 39.3856 25.335L9.38168 52.6605C2.693 58.7345 2.16607 69.0822 8.21077 75.8001L60.0371 133.452C61.9691 135.603 64.7353 136.833 67.6186 136.833L101.53 136.862C103.36 136.862 104.326 134.696 103.096 133.32Z" fill="#7A5EF8"/>
<path d="M72.5948 3.5712L126.602 63.6376C130.29 67.7357 129.954 74.0585 125.855 77.7468L86.06 114.264H129.31C131.9 114.264 134.388 113.298 136.306 111.556L166.31 84.2306C172.998 78.1566 173.525 67.8089 167.48 61.091L115.654 3.43948C113.722 1.28798 110.956 0.0585529 108.073 0.0585529L74.1609 0.0292969C72.3314 0.0292969 71.3654 2.19541 72.5948 3.5712Z" fill="#2547A6"/>
</g>
<defs>
<filter id="filter0_d_321_71" x="0" y="0" width="756.571" height="166" filterUnits="userSpaceOnUse" color-interpolation-filters="sRGB">
<feFlood flood-opacity="0" result="BackgroundImageFix"/>
<feColorMatrix in="SourceAlpha" type="matrix" values="0 0 0 0 0 0 0 0 0 0 0 0 0 0 0 0 0 0 127 0" result="hardAlpha"/>
<feOffset dy="4"/>
<feGaussianBlur stdDeviation="2"/>
<feComposite in2="hardAlpha" operator="out"/>
<feColorMatrix type="matrix" values="0 0 0 0 0 0 0 0 0 0 0 0 0 0 0 0 0 0 0.25 0"/>
<feBlend mode="normal" in2="BackgroundImageFix" result="effect1_dropShadow_321_71"/>
<feBlend mode="normal" in="SourceGraphic" in2="effect1_dropShadow_321_71" result="shape"/>
</filter>
</defs>
</svg>
