<svg width="749" height="158" viewBox="0 0 749 158" fill="none" xmlns="http://www.w3.org/2000/svg">
<path d="M205 0H186V115H205V0Z" fill="#2F2F2F"/>
<path d="M281.968 26.4805C287.623 29.4724 292.036 33.894 295.222 39.7746C298.407 45.6406 300 52.7298 300 61.0276V115H281.398V63.8574C281.398 55.6628 279.367 49.3842 275.305 45.0068C271.242 40.6295 265.704 38.4482 258.675 38.4482C251.647 38.4482 246.079 40.6295 241.958 45.0068C237.838 49.3842 235.777 55.6628 235.777 63.8574V115H217V23.4886H235.777V33.953C238.846 30.1946 242.777 27.2617 247.555 25.1541C252.334 23.0465 257.404 22 262.782 22C269.913 22 276.313 23.4886 281.968 26.4805" fill="#2F2F2F"/>
<path d="M313.672 44.3315C317.449 37.2841 322.596 31.7929 329.114 27.8728C335.632 23.9527 342.893 22 350.884 22C357.897 22 364.109 23.4389 369.533 26.3019C374.958 29.1649 379.142 32.6445 382.103 36.7261V23.4976H401V158H382.103V101.415C379.142 105.497 374.87 108.977 369.285 111.84C363.701 114.703 357.343 116.141 350.228 116.141C342.441 116.141 335.355 114.13 328.953 110.107C322.538 106.084 317.449 100.461 313.672 93.2374C309.896 86.0138 308 77.8212 308 68.6743C308 59.5274 309.896 51.4082 313.672 44.3461M378.238 52.6121C375.658 47.9873 372.289 44.4489 368.134 42.0264C363.978 39.6038 359.487 38.3852 354.66 38.3852C349.834 38.3852 345.343 39.5745 341.187 41.9383C337.017 44.3168 333.663 47.7817 331.082 52.3625C328.501 56.9434 327.218 62.3757 327.218 68.6596C327.218 74.9435 328.501 80.464 331.082 85.2063C333.649 89.9486 337.046 93.5604 341.26 96.0417C345.474 98.523 349.936 99.7709 354.646 99.7709C359.356 99.7709 363.949 98.5523 368.119 96.1298C372.275 93.7072 375.643 90.1542 378.224 85.4559C380.805 80.7723 382.088 75.2812 382.088 68.9973C382.088 62.7134 380.805 57.2517 378.224 52.6268" fill="#2F2F2F"/>
<path d="M495 24V114.671H476.219V103.982C473.253 107.705 469.394 110.641 464.615 112.787C459.836 114.919 454.764 116 449.386 116C442.254 116 435.852 114.525 430.196 111.561C424.54 108.596 420.097 104.215 416.852 98.4032C413.608 92.5911 412 85.567 412 77.3454V24.0292H430.605V74.5416C430.605 82.661 432.637 88.8819 436.7 93.219C440.763 97.5562 446.302 99.7175 453.332 99.7175C460.362 99.7175 465.93 97.5562 470.052 93.219C474.173 88.8819 476.219 82.661 476.219 74.5416V24.0292H495V24Z" fill="#2F2F2F"/>
<path d="M592.338 76.0368H522.55C523.109 83.3082 525.802 89.1428 530.671 93.5409C535.525 97.9535 541.498 100.153 548.574 100.153C558.739 100.153 565.918 95.9158 570.125 87.4276H590.514C587.748 95.7985 582.747 102.659 575.509 107.996C568.271 113.332 559.298 116 548.574 116C539.85 116 532.024 114.05 525.125 110.136C518.211 106.222 512.797 100.724 508.884 93.6142C504.957 86.5041 503 78.2798 503 68.912C503 59.5443 504.912 51.32 508.722 44.2099C512.533 37.0998 517.887 31.6316 524.801 27.776C531.701 23.9205 539.644 22 548.588 22C557.533 22 564.888 23.8765 571.625 27.6148C578.363 31.3531 583.615 36.616 587.366 43.389C591.117 50.1619 593 57.9464 593 66.757C593 70.1728 592.779 73.2514 592.338 76.0075M573.273 60.8051C573.155 53.8709 570.669 48.3147 565.815 44.122C560.945 39.9439 554.929 37.8475 547.75 37.8475C541.233 37.8475 535.658 39.9145 531.009 44.0487C526.361 48.1828 523.595 53.7683 522.727 60.8197H573.288L573.273 60.8051Z" fill="#2F2F2F"/>
<path d="M631.765 25.9051C636.328 23.3115 641.74 22 648 22V41.5991H643.217C635.86 41.5991 630.287 43.4854 626.485 47.2431C622.696 51.0008 620.795 57.5437 620.795 66.8422V115H602V23.5031H620.795V36.7951C623.545 32.1532 627.201 28.5134 631.75 25.9198" fill="#2F2F2F"/>
<path d="M749 24L693.57 157H674.23L692.595 112.992L657 24H677.824L703.247 92.9554L729.645 24H749Z" fill="#2F2F2F"/>
<path d="M99.525 133.32L45.5179 73.2535C41.8296 69.1554 42.1662 62.8326 46.2643 59.1443L86.0598 22.6273H42.8103C40.2197 22.6273 37.7315 23.5933 35.8142 25.335L5.81027 52.6605C-0.878413 58.7345 -1.40534 69.0822 4.63936 75.8001L56.4657 133.452C58.3976 135.603 61.1639 136.833 64.0472 136.833L97.959 136.862C99.7885 136.862 100.754 134.696 99.525 133.32Z" fill="#7A5EF8"/>
<path d="M69.0234 3.5712L123.031 63.6376C126.719 67.7357 126.382 74.0585 122.284 77.7468L82.4886 114.264H125.738C128.329 114.264 130.817 113.298 132.734 111.556L162.738 84.2306C169.427 78.1566 169.954 67.8089 163.909 61.091L112.083 3.43948C110.151 1.28798 107.385 0.0585529 104.501 0.0585529L70.5895 0.0292969C68.7599 0.0292969 67.794 2.19541 69.0234 3.5712Z" fill="#2547A6"/>
</svg>
