<svg width="18" height="20" viewBox="0 0 18 20" fill="none" xmlns="http://www.w3.org/2000/svg">
<path fill-rule="evenodd" clip-rule="evenodd" d="M0 14.8701V7.25708H18V14.9311C18 18.0701 16.0241 20.0001 12.8628 20.0001H5.12733C1.99561 20.0001 0 18.0301 0 14.8701ZM4.95938 12.4101C4.50494 12.4311 4.12953 12.0701 4.10977 11.6111C4.10977 11.1511 4.46542 10.7711 4.91987 10.7501C5.36443 10.7501 5.72997 11.1011 5.73985 11.5501C5.7596 12.0111 5.40395 12.3911 4.95938 12.4101ZM9.01976 12.4101C8.56531 12.4311 8.1899 12.0701 8.17014 11.6111C8.17014 11.1511 8.5258 10.7711 8.98024 10.7501C9.42481 10.7501 9.79034 11.1011 9.80022 11.5501C9.81998 12.0111 9.46432 12.3911 9.01976 12.4101ZM13.0505 16.0901C12.596 16.0801 12.2305 15.7001 12.2305 15.2401C12.2206 14.7801 12.5862 14.4011 13.0406 14.3911H13.0505C13.5148 14.3911 13.8902 14.7711 13.8902 15.2401C13.8902 15.7101 13.5148 16.0901 13.0505 16.0901ZM8.17014 15.2401C8.1899 15.7001 8.56531 16.0611 9.01976 16.0401C9.46432 16.0211 9.81998 15.6411 9.80022 15.1811C9.79034 14.7311 9.42481 14.3801 8.98024 14.3801C8.5258 14.4011 8.17014 14.7801 8.17014 15.2401ZM4.09989 15.2401C4.11965 15.7001 4.49506 16.0611 4.94951 16.0401C5.39407 16.0211 5.74973 15.6411 5.72997 15.1811C5.72009 14.7311 5.35456 14.3801 4.90999 14.3801C4.45554 14.4011 4.09989 14.7801 4.09989 15.2401ZM12.2404 11.6011C12.2404 11.1411 12.596 10.7711 13.0505 10.7611C13.4951 10.7611 13.8507 11.1201 13.8705 11.5611C13.8804 12.0211 13.5247 12.4011 13.0801 12.4101C12.6257 12.4201 12.2503 12.0701 12.2404 11.6111V11.6011Z" fill="white"/>
<path opacity="0.4" d="M0.00341797 7.25699C0.016261 6.66999 0.0656573 5.50499 0.158522 5.12999C0.632726 3.02099 2.24304 1.68099 4.54491 1.48999H13.456C15.7381 1.69099 17.3682 3.03999 17.8424 5.12999C17.9343 5.49499 17.9837 6.66899 17.9965 7.25699H0.00341797Z" fill="white"/>
<path d="M5.30489 4.59C5.73958 4.59 6.06559 4.261 6.06559 3.82V0.771C6.06559 0.33 5.73958 0 5.30489 0C4.8702 0 4.54419 0.33 4.54419 0.771V3.82C4.54419 4.261 4.8702 4.59 5.30489 4.59Z" fill="white"/>
<path d="M12.6949 4.59C13.1197 4.59 13.4556 4.261 13.4556 3.82V0.771C13.4556 0.33 13.1197 0 12.6949 0C12.2602 0 11.9342 0.33 11.9342 0.771V3.82C11.9342 4.261 12.2602 4.59 12.6949 4.59Z" fill="white"/>
</svg>
