<svg width="24" height="24" viewBox="0 0 24 24" fill="none" xmlns="http://www.w3.org/2000/svg">
<path opacity="0.4" d="M11.9999 1.99976C17.5149 1.99976 21.9999 6.48576 21.9999 11.9998C21.9999 17.5138 17.5149 21.9998 11.9999 21.9998C6.48589 21.9998 1.99989 17.5138 1.99989 11.9998C1.99989 6.48576 6.48589 1.99976 11.9999 1.99976Z" fill="#8961DE"/>
<path d="M10.5575 7.77905C10.7485 7.77905 10.9405 7.85205 11.0865 7.99805L14.5735 11.4681C14.7145 11.6091 14.7935 11.8001 14.7935 12.0001C14.7935 12.1991 14.7145 12.3901 14.5735 12.5311L11.0865 16.0031C10.7935 16.2951 10.3195 16.2951 10.0265 16.0011C9.7345 15.7071 9.7355 15.2321 10.0285 14.9401L12.9815 12.0001L10.0285 9.06005C9.7355 8.76805 9.7345 8.29405 10.0265 8.00005C10.1725 7.85205 10.3655 7.77905 10.5575 7.77905Z" fill="#8961DE"/>
</svg>
