<svg width="20" height="20" viewBox="0 0 20 20" fill="none" xmlns="http://www.w3.org/2000/svg">
<path d="M10.012 12.8302C8.40751 12.8302 7.10962 11.5802 7.10962 10.0102C7.10962 8.44018 8.40751 7.18018 10.012 7.18018C11.6165 7.18018 12.8837 8.44018 12.8837 10.0102C12.8837 11.5802 11.6165 12.8302 10.012 12.8302Z" fill="#90A0B7"/>
<path opacity="0.4" d="M19.23 12.3702C19.0358 12.0702 18.7599 11.7702 18.4022 11.5802C18.1161 11.4402 17.9321 11.2102 17.7686 10.9402C17.2474 10.0802 17.554 8.95018 18.4227 8.44018C19.4446 7.87018 19.7716 6.60018 19.1789 5.61018L18.4942 4.43018C17.9117 3.44018 16.6342 3.09018 15.6225 3.67018C14.7232 4.15018 13.5684 3.83018 13.0472 2.98018C12.8837 2.70018 12.7917 2.40018 12.8121 2.10018C12.8428 1.71018 12.7201 1.34018 12.5362 1.04018C12.1581 0.420183 11.4734 0.000183105 10.7171 0.000183105H9.27614C8.53012 0.0201831 7.8454 0.420183 7.46728 1.04018C7.27311 1.34018 7.16069 1.71018 7.18113 2.10018C7.20157 2.40018 7.10959 2.70018 6.94608 2.98018C6.42488 3.83018 5.27007 4.15018 4.38097 3.67018C3.35901 3.09018 2.09178 3.44018 1.49905 4.43018L0.814337 5.61018C0.231821 6.60018 0.558848 7.87018 1.57059 8.44018C2.43925 8.95018 2.74584 10.0802 2.23486 10.9402C2.06112 11.2102 1.87717 11.4402 1.59102 11.5802C1.24356 11.7702 0.936972 12.0702 0.773459 12.3702C0.395334 12.9902 0.415773 13.7702 0.793898 14.4202L1.49905 15.6202C1.87717 16.2602 2.58232 16.6602 3.31813 16.6602C3.6656 16.6602 4.07438 16.5602 4.40141 16.3602C4.6569 16.1902 4.96348 16.1302 5.30073 16.1302C6.31247 16.1302 7.16069 16.9602 7.18113 17.9502C7.18113 19.1002 8.12133 20.0002 9.3068 20.0002H10.6967C11.8719 20.0002 12.8121 19.1002 12.8121 17.9502C12.8428 16.9602 13.691 16.1302 14.7027 16.1302C15.0298 16.1302 15.3364 16.1902 15.6021 16.3602C15.9291 16.5602 16.3277 16.6602 16.6853 16.6602C17.4109 16.6602 18.1161 16.2602 18.4942 15.6202L19.2096 14.4202C19.5775 13.7502 19.6081 12.9902 19.23 12.3702Z" fill="#90A0B7"/>
</svg>
