<svg width="52" height="52" viewBox="0 0 52 52" fill="none" xmlns="http://www.w3.org/2000/svg">
<rect x="0.5" y="0.5" width="51" height="51" rx="4.5" fill="#292929" fill-opacity="0.35" stroke="#292929"/>
<path opacity="0.4" d="M21.1784 35.083C18.8295 35.083 16.9167 33.1374 16.9167 30.747V25.9926C16.9167 23.6071 18.8238 21.6663 21.1688 21.6663H31.8216C34.1715 21.6663 36.0834 23.612 36.0834 26.0033V30.7558C36.0834 33.1422 34.1763 35.083 31.8312 35.083H30.9304H21.1784Z" fill="#54555F"/>
<path d="M25.9775 16.1283L23.1898 18.8555C22.9023 19.1374 22.9023 19.591 23.1917 19.872C23.4811 20.152 23.9478 20.151 24.2353 19.8701L25.7619 18.3758V19.8085V27.8492C25.7619 28.2459 26.0925 28.5679 26.4998 28.5679C26.9081 28.5679 27.2378 28.2459 27.2378 27.8492V18.3758L28.7644 19.8701C29.0519 20.151 29.5186 20.152 29.808 19.872C29.9527 19.731 30.0255 19.5472 30.0255 19.3624C30.0255 19.1794 29.9527 18.9956 29.8099 18.8555L27.0231 16.1283C26.8841 15.993 26.6963 15.9165 26.4998 15.9165C26.3043 15.9165 26.1165 15.993 25.9775 16.1283Z" fill="#54555F"/>
</svg>
