<svg width="52" height="52" viewBox="0 0 52 52" fill="none" xmlns="http://www.w3.org/2000/svg">
<rect x="0.5" y="0.5" width="51" height="51" rx="4.5" fill="#EBEFF2" fill-opacity="0.35" stroke="#EBEFF2"/>
<path opacity="0.4" d="M21.1783 35.083C18.8295 35.083 16.9166 33.1374 16.9166 30.747V25.9926C16.9166 23.6071 18.8237 21.6663 21.1688 21.6663H31.8216C34.1714 21.6663 36.0833 23.612 36.0833 26.0033V30.7558C36.0833 33.1422 34.1762 35.083 31.8312 35.083H30.9303H21.1783Z" fill="#90A0B7"/>
<path d="M25.9774 16.1283L23.1896 18.8555C22.9021 19.1374 22.9021 19.591 23.1915 19.872C23.481 20.152 23.9477 20.151 24.2352 19.8701L25.7618 18.3758V19.8085V27.8492C25.7618 28.2459 26.0924 28.5679 26.4997 28.5679C26.908 28.5679 27.2376 28.2459 27.2376 27.8492V18.3758L28.7643 19.8701C29.0518 20.151 29.5185 20.152 29.8079 19.872C29.9526 19.731 30.0254 19.5472 30.0254 19.3624C30.0254 19.1794 29.9526 18.9956 29.8098 18.8555L27.023 16.1283C26.884 15.993 26.6962 15.9165 26.4997 15.9165C26.3042 15.9165 26.1164 15.993 25.9774 16.1283Z" fill="#90A0B7"/>
</svg>
