<svg width="1920" height="202" viewBox="0 0 1920 202" fill="none" xmlns="http://www.w3.org/2000/svg">
<g clip-path="url(#clip0)">
<path opacity="0.25" d="M0 202L0 124.079C76.464 86.7085 165.744 69.9257 252.8 76.9452C365.376 85.9847 470.928 133.017 583.68 140.07C701.824 147.41 819.744 111.656 932.8 80.7159C1043.63 50.4158 1154.08 38.8345 1267.84 58.6978C1325.68 68.7978 1379.6 88.7285 1434.96 108.087C1583.18 159.917 1780.8 314.379 1920 202L0 202Z" fill="#8961DE"/>
<path opacity="0.5" d="M0 202L0 175.386C20.8 139.851 44.224 106.286 76.304 80.7158C159.056 14.6955 264 15.15 359.328 47.8403C409.168 64.9262 455.472 91.7248 502.8 114.837C568.272 146.82 638.368 192.27 712.128 198.448C770.144 203.246 825.568 182.591 869.888 145.322C920.72 102.582 969.6 40.9555 1035.7 22.4388C1100.4 4.27567 1165.86 33.7003 1226.3 63.3102C1286.75 92.92 1346.56 128.96 1413.38 135.778C1508.94 145.625 1594.62 97.263 1683.62 70.397C1731.94 55.8193 1771.24 56.5424 1822.96 83.022C1862.71 103.376 1899.76 164.445 1920 202L0 202Z" fill="#8961DE"/>
<path d="M0 202L0 192.523C239.888 102.683 502.544 81.9447 761.328 130.341C830.128 143.201 896.096 164.209 965.504 174.882C1059.9 189.409 1142.43 145.353 1227.36 106.367C1321.65 63.0887 1417.6 41.6794 1521.92 50.5C1660.37 62.2834 1816.79 115.292 1920 202L0 202Z" fill="#8961DE"/>
</g>
<defs>
<clipPath id="clip0">
<rect width="1920" height="202" fill="white" transform="matrix(1 0 0 -1 0 202)"/>
</clipPath>
</defs>
</svg>
