<svg width="20" height="18" viewBox="0 0 20 18" fill="none" xmlns="http://www.w3.org/2000/svg">
<path d="M7.34933 11.8578C3.38553 11.8578 0 12.4701 0 14.9174C0 17.3667 3.364 18.0001 7.34933 18.0001C11.3131 18.0001 14.6987 17.3877 14.6987 14.9404C14.6987 12.4912 11.3347 11.8578 7.34933 11.8578Z" fill="#54555F"/>
<path opacity="0.4" d="M7.34932 9.52482C10.0489 9.52482 12.2123 7.40617 12.2123 4.76241C12.2123 2.11865 10.0489 0 7.34932 0C4.65069 0 2.4863 2.11865 2.4863 4.76241C2.4863 7.40617 4.65069 9.52482 7.34932 9.52482Z" fill="#54555F"/>
<path opacity="0.4" d="M14.1734 4.84873C14.1734 6.19505 13.7605 7.45129 13.0364 8.4948C12.9611 8.60212 13.0276 8.74682 13.1588 8.76981C13.3408 8.79952 13.5276 8.81773 13.7184 8.82156C15.6167 8.87043 17.3202 7.6736 17.7909 5.87116C18.4885 3.19674 16.4415 0.79541 13.8339 0.79541C13.5511 0.79541 13.2801 0.824157 13.0159 0.87686C12.9797 0.884526 12.9406 0.901774 12.921 0.932437C12.8955 0.971725 12.9141 1.02251 12.9396 1.05605C13.7233 2.13214 14.1734 3.44205 14.1734 4.84873Z" fill="#54555F"/>
<path d="M19.7791 12.1694C19.4317 11.444 18.5932 10.9467 17.3173 10.7023C16.7155 10.5586 15.0854 10.3545 13.5697 10.3832C13.5472 10.3861 13.5345 10.4014 13.5325 10.411C13.5296 10.4263 13.5364 10.4493 13.5658 10.4656C14.2664 10.8049 16.9738 12.2805 16.6333 15.3929C16.6186 15.5289 16.7292 15.6439 16.8672 15.6248C17.5335 15.5318 19.2478 15.1706 19.7791 14.0475C20.0736 13.4534 20.0736 12.7635 19.7791 12.1694Z" fill="#54555F"/>
</svg>
