<svg width="18" height="20" viewBox="0 0 18 20" fill="none" xmlns="http://www.w3.org/2000/svg">
<path fill-rule="evenodd" clip-rule="evenodd" d="M0 14.87V7.25696H18V14.931C18 18.07 16.0241 20 12.8628 20H5.12733C1.99561 20 0 18.03 0 14.87ZM4.95938 12.41C4.50494 12.431 4.12953 12.07 4.10977 11.611C4.10977 11.151 4.46542 10.771 4.91987 10.75C5.36443 10.75 5.72997 11.101 5.73985 11.55C5.7596 12.011 5.40395 12.391 4.95938 12.41ZM9.01976 12.41C8.56531 12.431 8.1899 12.07 8.17014 11.611C8.17014 11.151 8.5258 10.771 8.98024 10.75C9.42481 10.75 9.79034 11.101 9.80022 11.55C9.81998 12.011 9.46432 12.391 9.01976 12.41ZM13.0505 16.09C12.596 16.08 12.2305 15.7 12.2305 15.24C12.2206 14.78 12.5862 14.401 13.0406 14.391H13.0505C13.5148 14.391 13.8902 14.771 13.8902 15.24C13.8902 15.71 13.5148 16.09 13.0505 16.09ZM8.17014 15.24C8.1899 15.7 8.56531 16.061 9.01976 16.04C9.46432 16.021 9.81998 15.641 9.80022 15.181C9.79034 14.731 9.42481 14.38 8.98024 14.38C8.5258 14.401 8.17014 14.78 8.17014 15.24ZM4.09989 15.24C4.11965 15.7 4.49506 16.061 4.94951 16.04C5.39407 16.021 5.74973 15.641 5.72997 15.181C5.72009 14.731 5.35456 14.38 4.90999 14.38C4.45554 14.401 4.09989 14.78 4.09989 15.24ZM12.2404 11.601C12.2404 11.141 12.596 10.771 13.0505 10.761C13.4951 10.761 13.8507 11.12 13.8705 11.561C13.8804 12.021 13.5247 12.401 13.0801 12.41C12.6257 12.42 12.2503 12.07 12.2404 11.611V11.601Z" fill="#54555F"/>
<path opacity="0.4" d="M0.00335693 7.25687C0.0162 6.66987 0.0655962 5.50487 0.158461 5.12987C0.632665 3.02087 2.24298 1.68087 4.54485 1.48987H13.4559C15.738 1.69087 17.3681 3.03987 17.8423 5.12987C17.9342 5.49487 17.9836 6.66887 17.9964 7.25687H0.00335693Z" fill="#54555F"/>
<path d="M5.30486 4.59C5.73955 4.59 6.06556 4.261 6.06556 3.82V0.771C6.06556 0.33 5.73955 0 5.30486 0C4.87017 0 4.54416 0.33 4.54416 0.771V3.82C4.54416 4.261 4.87017 4.59 5.30486 4.59Z" fill="#54555F"/>
<path d="M12.6949 4.59C13.1197 4.59 13.4556 4.261 13.4556 3.82V0.771C13.4556 0.33 13.1197 0 12.6949 0C12.2603 0 11.9342 0.33 11.9342 0.771V3.82C11.9342 4.261 12.2603 4.59 12.6949 4.59Z" fill="#54555F"/>
</svg>
