<svg width="20" height="20" viewBox="0 0 20 20" fill="none" xmlns="http://www.w3.org/2000/svg">
<path d="M10.012 12.8302C8.40751 12.8302 7.10962 11.5802 7.10962 10.0102C7.10962 8.44018 8.40751 7.18018 10.012 7.18018C11.6165 7.18018 12.8837 8.44018 12.8837 10.0102C12.8837 11.5802 11.6165 12.8302 10.012 12.8302Z" fill="#54555F"/>
<path opacity="0.4" d="M19.23 12.3701C19.0359 12.0701 18.7599 11.7701 18.4023 11.5801C18.1161 11.4401 17.9322 11.2101 17.7686 10.9401C17.2474 10.0801 17.554 8.95012 18.4227 8.44012C19.4447 7.87012 19.7717 6.60012 19.1789 5.61012L18.4942 4.43012C17.9117 3.44012 16.6343 3.09012 15.6225 3.67012C14.7232 4.15012 13.5684 3.83012 13.0472 2.98012C12.8837 2.70012 12.7917 2.40012 12.8121 2.10012C12.8428 1.71012 12.7202 1.34012 12.5362 1.04012C12.1581 0.420122 11.4734 0.00012207 10.7171 0.00012207H9.27617C8.53015 0.0201221 7.84543 0.420122 7.46731 1.04012C7.27314 1.34012 7.16072 1.71012 7.18116 2.10012C7.2016 2.40012 7.10962 2.70012 6.94611 2.98012C6.42491 3.83012 5.2701 4.15012 4.381 3.67012C3.35904 3.09012 2.09181 3.44012 1.49908 4.43012L0.814367 5.61012C0.231852 6.60012 0.558878 7.87012 1.57062 8.44012C2.43928 8.95012 2.74587 10.0801 2.23489 10.9401C2.06116 11.2101 1.8772 11.4401 1.59106 11.5801C1.24359 11.7701 0.937002 12.0701 0.773489 12.3701C0.395365 12.9901 0.415804 13.7701 0.793928 14.4201L1.49908 15.6201C1.8772 16.2601 2.58235 16.6601 3.31816 16.6601C3.66563 16.6601 4.07441 16.5601 4.40144 16.3601C4.65693 16.1901 4.96351 16.1301 5.30076 16.1301C6.3125 16.1301 7.16072 16.9601 7.18116 17.9501C7.18116 19.1001 8.12136 20.0001 9.30683 20.0001H10.6967C11.8719 20.0001 12.8121 19.1001 12.8121 17.9501C12.8428 16.9601 13.691 16.1301 14.7028 16.1301C15.0298 16.1301 15.3364 16.1901 15.6021 16.3601C15.9291 16.5601 16.3277 16.6601 16.6854 16.6601C17.411 16.6601 18.1161 16.2601 18.4942 15.6201L19.2096 14.4201C19.5775 13.7501 19.6082 12.9901 19.23 12.3701Z" fill="#54555F"/>
</svg>
