<svg data-stroke="no-stroke" width="25" height="24" viewBox="0 0 25 24" fill="none" xmlns="http://www.w3.org/2000/svg">
<g clip-path="url(#clip0_1548_135035)">
<path fill-rule="evenodd" clip-rule="evenodd" d="M12.5 -0.000488281C5.8724 -0.000488281 0.5 5.38031 0.5 12.0199C0.5 17.3299 3.938 21.8359 8.7068 23.4247C9.3068 23.5351 9.5252 23.1643 9.5252 22.8451C9.5252 22.5607 9.5156 21.8035 9.5096 20.8015C6.1712 21.5275 5.4668 19.1899 5.4668 19.1899C4.922 17.8003 4.1348 17.4307 4.1348 17.4307C3.0452 16.6867 4.2176 16.7011 4.2176 16.7011C5.4212 16.7851 6.0548 17.9395 6.0548 17.9395C7.1252 19.7755 8.864 19.2451 9.5468 18.9379C9.6572 18.1615 9.9668 17.6323 10.31 17.3323C7.646 17.0287 4.844 15.9967 4.844 11.3911C4.844 10.0795 5.312 9.00551 6.0788 8.16551C5.9552 7.86191 5.5436 6.63911 6.1964 4.98551C6.1964 4.98551 7.2044 4.66151 9.4964 6.21671C10.4753 5.94973 11.4853 5.81374 12.5 5.81231C13.52 5.81711 14.546 5.95031 15.5048 6.21671C17.7956 4.66151 18.8012 4.98431 18.8012 4.98431C19.4564 6.63911 19.0436 7.86191 18.9212 8.16551C19.6892 9.00551 20.1548 10.0795 20.1548 11.3911C20.1548 16.0087 17.348 17.0251 14.6756 17.3227C15.1064 17.6935 15.4892 18.4267 15.4892 19.5487C15.4892 21.1543 15.4748 22.4515 15.4748 22.8451C15.4748 23.1667 15.6908 23.5411 16.3004 23.4235C18.69 22.622 20.7672 21.0899 22.2386 19.0436C23.7099 16.9973 24.501 14.5403 24.5 12.0199C24.5 5.38031 19.1264 -0.000488281 12.5 -0.000488281Z" fill="#D0D5DD"/>
</g>
<defs>
<clipPath id="clip0_1548_135035">
<rect width="25" height="24" fill="white"/>
</clipPath>
</defs>
</svg>
