<svg width="602" height="83" viewBox="0 0 602 83" fill="none" xmlns="http://www.w3.org/2000/svg">
<path opacity="0.3" d="M85.4228 30.2231H21.9616C16.7922 30.2231 12.6016 34.4138 12.6016 39.5832V44.076C12.6016 49.2455 16.7922 53.4361 21.9616 53.4361H85.4228C90.5922 53.4361 94.7828 49.2455 94.7828 44.076V39.5832C94.7828 34.4138 90.5922 30.2231 85.4228 30.2231Z" fill="#5F2EE5"/>
<path opacity="0.3" d="M100.025 59.7076H36.5642C31.3947 59.7076 27.2041 63.8983 27.2041 69.0677V73.5605C27.2041 78.7299 31.3947 82.9206 36.5642 82.9206H100.025C105.195 82.9206 109.385 78.7299 109.385 73.5605V69.0677C109.385 63.8983 105.195 59.7076 100.025 59.7076Z" fill="#5F2EE5"/>
<path d="M73.4418 0.64624H9.98066C4.81124 0.64624 0.620605 4.83688 0.620605 10.0063V14.4991C0.620605 19.6685 4.81124 23.8592 9.98066 23.8592H73.4418C78.6112 23.8592 82.8019 19.6685 82.8019 14.4991V10.0063C82.8019 4.83688 78.6112 0.64624 73.4418 0.64624Z" fill="#5F2EE5"/>
<path d="M58.0914 30.2231H21.9616C16.7922 30.2231 12.6016 34.4138 12.6016 39.5832V44.076C12.6016 49.2455 16.7922 53.4361 21.9616 53.4361H58.0914C63.2608 53.4361 67.4515 49.2455 67.4515 44.076V39.5832C67.4515 34.4138 63.2608 30.2231 58.0914 30.2231Z" fill="#5F2EE5"/>
<path d="M45.269 59.7076H36.5642C31.3947 59.7076 27.2041 63.8983 27.2041 69.0677V73.5605C27.2041 78.7299 31.3947 82.9206 36.5642 82.9206H45.269C50.4384 82.9206 54.6291 78.7299 54.6291 73.5605V69.0677C54.6291 63.8983 50.4384 59.7076 45.269 59.7076Z" fill="#5F2EE5"/>
<path d="M184.387 5.98419V19.576H164.859V78.2443H150.579V19.576H131.138V5.98419H184.3H184.387Z" fill="white"/>
<path d="M221.548 26.6298H234.882V78.2441H221.548V72.1364C217.591 77.1258 211.914 79.7065 204.688 79.7065C197.462 79.7065 191.87 77.0398 186.967 71.7923C182.063 66.5449 179.569 60.0931 179.569 52.4369C179.569 44.7808 182.063 38.329 186.967 33.0816C191.87 27.8341 197.806 25.1674 204.688 25.1674C211.914 25.1674 217.505 27.6621 221.548 32.7375V26.6298ZM196.945 62.9319C199.612 65.6846 203.053 66.975 207.182 66.975C211.311 66.975 214.752 65.5986 217.419 62.9319C220.172 60.1791 221.462 56.7381 221.462 52.4369C221.462 48.1357 220.086 44.6948 217.419 41.942C214.666 39.1893 211.311 37.8989 207.182 37.8989C203.053 37.8989 199.612 39.2753 196.945 41.942C194.279 44.6948 192.902 48.1357 192.902 52.4369C192.902 56.7381 194.279 60.1791 196.945 62.9319Z" fill="white"/>
<path d="M275.948 25.1675C282.916 25.1675 288.852 27.8343 293.755 33.0817C298.658 38.3292 301.153 44.781 301.153 52.4371C301.153 60.0932 298.658 66.545 293.755 71.7925C288.852 77.04 282.916 79.7067 275.948 79.7067C268.98 79.7067 263.13 77.212 259.259 72.1366V78.2443H245.926V5.98419H259.259V32.7376C263.216 27.7482 268.722 25.1675 275.948 25.1675ZM263.216 62.932C265.883 65.6848 269.324 66.9751 273.453 66.9751C277.582 66.9751 281.023 65.5988 283.69 62.932C286.443 60.1793 287.733 56.7383 287.733 52.4371C287.733 48.1359 286.357 44.695 283.69 41.9422C280.937 39.1894 277.582 37.8991 273.453 37.8991C269.324 37.8991 265.883 39.2754 263.216 41.9422C260.55 44.695 259.173 48.1359 259.173 52.4371C259.173 56.7383 260.55 60.1793 263.216 62.932Z" fill="white"/>
<path d="M309.53 78.2444V5.83624H322.863V78.2444H309.53Z" fill="white"/>
<path d="M345.262 57.9425C347.068 64.3942 351.886 67.6632 359.8 67.6632C364.875 67.6632 368.746 65.9427 371.327 62.5017L382.08 68.6954C377.005 76.0935 369.521 79.7065 359.542 79.7065C351.026 79.7065 344.144 77.1258 338.982 71.9643C333.821 66.8029 331.24 60.2651 331.24 52.4369C331.24 44.6087 333.821 38.157 338.896 32.9955C343.972 27.8341 350.509 25.1673 358.51 25.1673C366.08 25.1673 372.359 27.7481 377.263 32.9955C382.166 38.243 384.661 44.6948 384.661 52.4369C384.661 54.1574 384.489 55.9639 384.145 57.9425H345.262ZM345.09 47.6196H371.413C370.639 44.0926 369.091 41.5119 366.682 39.7914C364.273 38.0709 361.606 37.2107 358.596 37.2107C354.983 37.2107 352.058 38.157 349.735 39.9635C347.413 41.77 345.864 44.3507 345.09 47.6196Z" fill="white"/>
<path d="M436.738 19.576H407.833V36.6947H429.877V50.2865H407.833V78.1583H393.554V5.98419H436.738V19.576Z" fill="white"/>
<path d="M444.544 78.2445V6.25754H457.878V78.2445H444.544Z" fill="white"/>
<path d="M514.051 71.7923C508.718 77.0397 502.266 79.7065 494.61 79.7065C486.954 79.7065 480.502 77.0397 475.255 71.7923C470.007 66.5448 467.34 60.093 467.34 52.4369C467.34 44.7808 470.007 38.329 475.255 33.0815C480.502 27.8341 486.954 25.1673 494.61 25.1673C502.266 25.1673 508.718 27.8341 514.051 33.0815C519.385 38.329 521.966 44.7808 521.966 52.4369C521.966 60.093 519.299 66.5448 514.051 71.7923ZM484.717 62.6738C487.384 65.3405 490.653 66.7169 494.696 66.7169C498.739 66.7169 502.008 65.3405 504.675 62.6738C507.341 60.007 508.718 56.5661 508.718 52.4369C508.718 48.3078 507.341 44.8668 504.675 42.2001C502.008 39.5333 498.653 38.1569 494.696 38.1569C490.739 38.1569 487.384 39.5333 484.717 42.2001C482.05 44.8668 480.76 48.3078 480.76 52.4369C480.76 56.5661 482.05 60.007 484.717 62.6738Z" fill="white"/>
<path d="M587.43 26.6301H601.538L585.107 78.2445H572.376L562.913 46.9318L553.45 78.2445H540.719L524.288 26.6301H538.396L547.171 58.2869L556.547 26.6301H569.107L578.483 58.459L587.258 26.6301H587.43Z" fill="white"/>
</svg>
