<svg width="602" height="83" viewBox="0 0 602 83" fill="none" xmlns="http://www.w3.org/2000/svg">
<path opacity="0.3" d="M85.1816 29.8844H21.7204C16.551 29.8844 12.3604 34.0751 12.3604 39.2445V43.7373C12.3604 48.9067 16.551 53.0974 21.7204 53.0974H85.1816C90.351 53.0974 94.5416 48.9067 94.5416 43.7373V39.2445C94.5416 34.0751 90.351 29.8844 85.1816 29.8844Z" fill="#5F2EE5"/>
<path opacity="0.3" d="M99.7841 59.3689H36.3229C31.1535 59.3689 26.9629 63.5596 26.9629 68.729V73.2218C26.9629 78.3912 31.1535 82.5819 36.3229 82.5819H99.7841C104.954 82.5819 109.144 78.3912 109.144 73.2218V68.729C109.144 63.5596 104.954 59.3689 99.7841 59.3689Z" fill="#5F2EE5"/>
<path d="M73.2006 0.307526H9.73945C4.57003 0.307526 0.379395 4.49816 0.379395 9.66758V14.1604C0.379395 19.3298 4.57003 23.5205 9.73945 23.5205H73.2006C78.37 23.5205 82.5607 19.3298 82.5607 14.1604V9.66758C82.5607 4.49816 78.37 0.307526 73.2006 0.307526Z" fill="#5F2EE5"/>
<path d="M57.8502 29.8844H21.7204C16.551 29.8844 12.3604 34.0751 12.3604 39.2445V43.7373C12.3604 48.9067 16.551 53.0974 21.7204 53.0974H57.8502C63.0196 53.0974 67.2103 48.9067 67.2103 43.7373V39.2445C67.2103 34.0751 63.0196 29.8844 57.8502 29.8844Z" fill="#5F2EE5"/>
<path d="M45.0278 59.3689H36.3229C31.1535 59.3689 26.9629 63.5596 26.9629 68.729V73.2218C26.9629 78.3912 31.1535 82.5819 36.3229 82.5819H45.0278C50.1972 82.5819 54.3878 78.3912 54.3878 73.2218V68.729C54.3878 63.5596 50.1972 59.3689 45.0278 59.3689Z" fill="#5F2EE5"/>
<path d="M184.145 5.64548V19.2373H164.618V77.9056H150.338V19.2373H130.896V5.64548H184.059H184.145Z" fill="#130638"/>
<path d="M221.307 26.2911H234.641V77.9054H221.307V71.7977C217.35 76.7871 211.672 79.3678 204.446 79.3678C197.22 79.3678 191.629 76.7011 186.725 71.4536C181.822 66.2061 179.327 59.7544 179.327 52.0982C179.327 44.4421 181.822 37.9903 186.725 32.7428C191.629 27.4954 197.565 24.8286 204.446 24.8286C211.672 24.8286 217.264 27.3233 221.307 32.3987V26.2911ZM196.704 62.5931C199.371 65.3459 202.812 66.6363 206.941 66.6363C211.07 66.6363 214.511 65.2599 217.178 62.5931C219.931 59.8404 221.221 56.3994 221.221 52.0982C221.221 47.797 219.845 44.3561 217.178 41.6033C214.425 38.8505 211.07 37.5602 206.941 37.5602C202.812 37.5602 199.371 38.9366 196.704 41.6033C194.038 44.3561 192.661 47.797 192.661 52.0982C192.661 56.3994 194.038 59.8404 196.704 62.5931Z" fill="#130638"/>
<path d="M275.707 24.8288C282.675 24.8288 288.61 27.4956 293.514 32.743C298.417 37.9905 300.912 44.4423 300.912 52.0984C300.912 59.7545 298.417 66.2063 293.514 71.4538C288.61 76.7012 282.675 79.368 275.707 79.368C268.739 79.368 262.889 76.8733 259.018 71.7979V77.9056H245.684V5.64548H259.018V32.3989C262.975 27.4095 268.481 24.8288 275.707 24.8288ZM262.975 62.5933C265.642 65.3461 269.083 66.6364 273.212 66.6364C277.341 66.6364 280.782 65.2601 283.449 62.5933C286.202 59.8405 287.492 56.3996 287.492 52.0984C287.492 47.7972 286.116 44.3562 283.449 41.6035C280.696 38.8507 277.341 37.5604 273.212 37.5604C269.083 37.5604 265.642 38.9367 262.975 41.6035C260.308 44.3562 258.932 47.7972 258.932 52.0984C258.932 56.3996 260.308 59.8405 262.975 62.5933Z" fill="#130638"/>
<path d="M309.288 77.9057V5.49753H322.622V77.9057H309.288Z" fill="#130638"/>
<path d="M345.021 57.6037C346.827 64.0555 351.645 67.3244 359.559 67.3244C364.634 67.3244 368.505 65.604 371.086 62.163L381.839 68.3567C376.764 75.7548 369.279 79.3678 359.301 79.3678C350.784 79.3678 343.902 76.7871 338.741 71.6256C333.58 66.4642 330.999 59.9264 330.999 52.0982C330.999 44.27 333.58 37.8182 338.655 32.6568C343.73 27.4954 350.268 24.8286 358.268 24.8286C365.838 24.8286 372.118 27.4093 377.022 32.6568C381.925 37.9043 384.42 44.3561 384.42 52.0982C384.42 53.8187 384.248 55.6252 383.904 57.6037H345.021ZM344.849 47.2809H371.172C370.398 43.7539 368.849 41.1732 366.441 39.4527C364.032 37.7322 361.365 36.872 358.354 36.872C354.741 36.872 351.817 37.8182 349.494 39.6247C347.171 41.4312 345.623 44.012 344.849 47.2809Z" fill="#130638"/>
<path d="M436.496 19.2373H407.592V36.356H429.636V49.9478H407.592V77.8195H393.312V5.64548H436.496V19.2373Z" fill="#130638"/>
<path d="M444.303 77.9058V5.91882H457.637V77.9058H444.303Z" fill="#130638"/>
<path d="M513.81 71.4536C508.477 76.701 502.025 79.3678 494.369 79.3678C486.713 79.3678 480.261 76.701 475.013 71.4536C469.766 66.2061 467.099 59.7543 467.099 52.0982C467.099 44.4421 469.766 37.9903 475.013 32.7428C480.261 27.4954 486.713 24.8286 494.369 24.8286C502.025 24.8286 508.477 27.4954 513.81 32.7428C519.144 37.9903 521.724 44.4421 521.724 52.0982C521.724 59.7543 519.058 66.2061 513.81 71.4536ZM484.476 62.335C487.143 65.0018 490.412 66.3782 494.455 66.3782C498.498 66.3782 501.767 65.0018 504.434 62.335C507.1 59.6683 508.477 56.2273 508.477 52.0982C508.477 47.969 507.1 44.5281 504.434 41.8614C501.767 39.1946 498.412 37.8182 494.455 37.8182C490.498 37.8182 487.143 39.1946 484.476 41.8614C481.809 44.5281 480.519 47.969 480.519 52.0982C480.519 56.2273 481.809 59.6683 484.476 62.335Z" fill="#130638"/>
<path d="M587.189 26.2914H601.297L584.866 77.9058H572.135L562.672 46.5931L553.209 77.9058H540.478L524.047 26.2914H538.155L546.93 57.9482L556.306 26.2914H568.866L578.242 58.1203L587.017 26.2914H587.189Z" fill="#130638"/>
</svg>
