<svg width="20" height="20" viewBox="0 0 20 20" fill="none" xmlns="http://www.w3.org/2000/svg" stroke="#98A2B3">
    <path
        d="M9.99935 10.8333C10.4596 10.8333 10.8327 10.4602 10.8327 10C10.8327 9.53977 10.4596 9.16668 9.99935 9.16668C9.53911 9.16668 9.16602 9.53977 9.16602 10C9.16602 10.4602 9.53911 10.8333 9.99935 10.8333Z"
        stroke-width="1.66667" stroke-linecap="round" stroke-linejoin="round" />
    <path
        d="M9.99935 5.00001C10.4596 5.00001 10.8327 4.62691 10.8327 4.16668C10.8327 3.70644 10.4596 3.33334 9.99935 3.33334C9.53911 3.33334 9.16602 3.70644 9.16602 4.16668C9.16602 4.62691 9.53911 5.00001 9.99935 5.00001Z"
        stroke-width="1.66667" stroke-linecap="round" stroke-linejoin="round" />
    <path
        d="M9.99935 16.6667C10.4596 16.6667 10.8327 16.2936 10.8327 15.8333C10.8327 15.3731 10.4596 15 9.99935 15C9.53911 15 9.16602 15.3731 9.16602 15.8333C9.16602 16.2936 9.53911 16.6667 9.99935 16.6667Z"
        stroke-width="1.66667" stroke-linecap="round" stroke-linejoin="round" />
</svg>