<svg width="16" height="12" viewBox="0 0 16 12" fill="none" xmlns="http://www.w3.org/2000/svg" stroke="#98A2B3">
    <path
        d="M1.61342 6.47513C1.52262 6.33137 1.47723 6.25949 1.45182 6.14862C1.43273 6.06534 1.43273 5.93401 1.45182 5.85073C1.47723 5.73986 1.52262 5.66798 1.61341 5.52422C2.36369 4.33624 4.59693 1.33301 8.00027 1.33301C11.4036 1.33301 13.6369 4.33623 14.3871 5.52422C14.4779 5.66798 14.5233 5.73986 14.5487 5.85073C14.5678 5.93401 14.5678 6.06534 14.5487 6.14862C14.5233 6.25949 14.4779 6.33137 14.3871 6.47513C13.6369 7.66311 11.4036 10.6663 8.00027 10.6663C4.59693 10.6663 2.36369 7.66311 1.61342 6.47513Z"
        stroke-width="1.33333" stroke-linecap="round" stroke-linejoin="round" />
    <path
        d="M8.00027 7.99967C9.10484 7.99967 10.0003 7.10424 10.0003 5.99967C10.0003 4.89511 9.10484 3.99967 8.00027 3.99967C6.8957 3.99967 6.00027 4.89511 6.00027 5.99967C6.00027 7.10424 6.8957 7.99967 8.00027 7.99967Z"
        stroke-width="1.33333" stroke-linecap="round" stroke-linejoin="round" />
</svg>